<svg width="102" height="145" viewBox="0 0 102 145" fill="none" xmlns="http://www.w3.org/2000/svg">
<path d="M0 0H38.5C73.5701 0 102 28.4299 102 63.5V94C102 122.167 79.1665 145 51 145C22.8335 145 0 122.167 0 94V0Z" fill="url(#paint0_linear_775_1860)"/>
<path d="M44.6562 94.75C42.4812 94.75 40.4875 93.1187 40.125 90.7625C40.125 90.0375 39.4 89.3125 38.4938 89.3125C34.325 88.95 31.0625 85.325 31.0625 81.1562C31.0625 79.7062 31.425 78.4375 32.15 77.1687C33.7812 77.8937 35.5938 78.4375 37.4062 78.4375C38.4937 78.4375 39.2188 77.7125 39.2188 76.625C39.2188 75.5375 38.4937 74.8125 37.4062 74.8125C35.5938 74.8125 34.1438 74.2687 32.6938 73.3625C32.6938 73.3625 32.6938 73.3625 32.5125 73.1812C31.9688 72.8187 31.6063 72.4562 31.0625 71.9125C31.2437 71.9125 31.0625 71.7312 31.0625 71.7312C30.8813 71.55 30.7 71.1875 30.5187 71.0062C30.3375 70.6437 30.1563 70.4625 29.975 70.1C29.975 69.9187 29.7938 69.9187 29.7938 69.7375C29.6125 69.375 29.4312 68.8312 29.4312 68.4687V68.2875C29.25 67.7437 29.25 67.2 29.25 66.6562C29.25 62.3062 32.6938 58.6812 37.0438 58.5C37.5875 59.95 38.3125 61.0375 39.4 61.9437C39.7625 62.3062 40.125 62.3062 40.4875 62.3062C41.0312 62.3062 41.575 62.125 41.9375 61.5812C42.6625 60.8562 42.4812 59.5875 41.7562 59.0437C40.6687 58.3187 40.125 57.05 40.125 55.7812C40.125 53.2437 42.1187 51.25 44.6562 51.25C47.1938 51.25 49.1875 53.2437 49.1875 55.7812V90.2187C49.1875 92.7562 47.1938 94.75 44.6562 94.75ZM63.5062 89.3125C62.6 89.3125 62.0563 90.0375 61.875 90.9437C61.5125 93.1187 59.7 94.9312 57.3438 94.9312C54.8062 94.9312 52.8125 92.9375 52.8125 90.4V55.9625C52.8125 53.2437 54.8062 51.25 57.3438 51.25C59.8813 51.25 61.875 53.2437 61.875 55.7812V56.6875C61.875 57.2312 62.0562 57.5937 62.4187 57.9562C62.7812 58.3187 63.325 58.5 63.8688 58.5C64.05 58.5 64.4125 58.5 64.5938 58.5C69.125 58.5 72.75 62.125 72.75 66.6562C72.75 69.1937 71.6625 71.3687 69.6687 73C68.0375 71.9125 65.8625 71.1875 63.6875 71.1875C62.6 71.1875 61.875 71.9125 61.875 73C61.875 74.0875 62.6 74.8125 63.6875 74.8125C67.4938 74.8125 70.575 77.8937 70.9375 81.7C70.575 85.6875 67.4937 88.95 63.5062 89.3125Z" fill="#3F3E71"/>
<defs>
<linearGradient id="paint0_linear_775_1860" x1="46.4844" y1="-4.41699e-06" x2="46.4844" y2="145" gradientUnits="userSpaceOnUse">
<stop stop-color="#C5BAFF"/>
<stop offset="1" stop-color="#80DAFD"/>
</linearGradient>
</defs>
</svg>
