<svg width="102" height="145" viewBox="0 0 102 145" fill="none" xmlns="http://www.w3.org/2000/svg">
<path d="M0 0H38.5C73.5701 0 102 28.4299 102 63.5V94C102 122.167 79.1665 145 51 145C22.8335 145 0 122.167 0 94V0Z" fill="url(#paint0_linear_775_1865)"/>
<path d="M67.6667 72.6719H63.3264V68.375C63.3264 65.0929 62.0094 61.9453 59.6652 59.6246C57.321 57.3038 54.1416 56 50.8264 56C47.5112 56 44.3318 57.3038 41.9876 59.6246C39.6433 61.9453 38.3264 65.0929 38.3264 68.375H36.4167C33.654 68.375 31.0045 69.4615 29.051 71.3955C27.0975 73.3294 26 75.9525 26 78.6875C26 81.4225 27.0975 84.0456 29.051 85.9795C31.0045 87.9135 33.654 89 36.4167 89H67.6667C69.8768 89 71.9964 88.1308 73.5592 86.5836C75.122 85.0365 76 82.938 76 80.75C76 78.562 75.122 76.4635 73.5592 74.9164C71.9964 73.3692 69.8768 72.5 67.6667 72.5V72.6719Z" fill="#3F3E71"/>
<defs>
<linearGradient id="paint0_linear_775_1865" x1="46.4844" y1="-4.41699e-06" x2="46.4844" y2="145" gradientUnits="userSpaceOnUse">
<stop stop-color="#C5BAFF"/>
<stop offset="1" stop-color="#80DAFD"/>
</linearGradient>
</defs>
</svg>
