<svg width="102" height="145" viewBox="0 0 102 145" fill="none" xmlns="http://www.w3.org/2000/svg">
<path d="M0 0H38.5C73.5701 0 102 28.4299 102 63.5V94C102 122.167 79.1665 145 51 145C22.8335 145 0 122.167 0 94V0Z" fill="url(#paint0_linear_775_1862)"/>
<g clip-path="url(#clip0_775_1862)">
<path fill-rule="evenodd" clip-rule="evenodd" d="M36.8094 80.8497H65.1909C66.0167 80.8497 66.6919 81.5299 66.6919 82.3594V88.4801C66.6919 89.3095 66.0156 89.9897 65.1909 89.9897H36.8094C35.9847 89.9897 35.3096 89.3107 35.3096 88.4801V82.3594C35.3096 81.5288 35.9836 80.8497 36.8094 80.8497ZM28.9964 83.7619C28.8367 83.0476 29.283 82.3366 29.9933 82.1759C30.7036 82.0153 31.4105 82.4653 31.5702 83.1797L32.3813 86.7824C32.5183 87.392 32.2125 87.9981 31.6789 88.2636L28.4799 89.8633C27.8262 90.1869 27.0344 89.9168 26.7127 89.2606C26.3898 88.6031 26.6594 87.8078 27.3119 87.4831L28.0449 87.1163L27.944 87.0878C24.7348 86.0008 22.8815 83.6457 22.246 81.0309C21.9277 79.7183 21.922 78.3397 22.2109 77.026C22.5009 75.71 23.0899 74.4533 23.9565 73.3925C25.6637 71.3018 28.4164 69.9664 32.0584 70.3812C32.7834 70.4609 33.3056 71.1172 33.2264 71.8464C33.1459 72.5744 32.4934 73.1008 31.7696 73.0199C29.1244 72.7191 27.1692 73.6341 25.9922 75.0754C25.3941 75.808 24.9863 76.6796 24.7846 77.5979C24.5819 78.5185 24.5853 79.487 24.8084 80.4076C25.2434 82.1942 26.5337 83.8109 28.7812 84.572C28.9556 84.6313 29.1097 84.7236 29.2389 84.8386L28.9964 83.7619ZM70.4302 70.887C70.5899 70.1726 71.2968 69.7226 72.0071 69.8832C72.7173 70.0439 73.1637 70.7549 73.0039 71.4693L72.7615 72.546C72.8906 72.4309 73.0447 72.3386 73.2192 72.2793C75.4667 71.5182 76.7569 69.9015 77.1919 68.1149C77.4151 67.1943 77.4185 66.227 77.2157 65.3053C77.0141 64.3881 76.6063 63.5153 76.0081 62.7827C74.8312 61.3414 72.8759 60.4265 70.2308 60.7273C69.5069 60.8082 68.8544 60.2818 68.774 59.5537C68.6947 58.8245 69.2169 58.1682 69.9419 58.0885C73.5839 57.6737 76.3367 59.0091 78.0438 61.0998C78.9104 62.1606 79.4995 63.4173 79.7895 64.7333C80.0783 66.047 80.0727 67.4256 79.7544 68.7382C79.1188 71.353 77.2656 73.7081 74.0563 74.7951L73.9555 74.8236L74.6884 75.1904C75.3409 75.5152 75.6105 76.3104 75.2877 76.9679C74.966 77.6241 74.1741 77.8942 73.5205 77.5706L70.3214 75.9709C69.7879 75.7054 69.482 75.0993 69.6191 74.4897L70.4302 70.887ZM45.6318 59.1424H56.3686C56.7605 59.1424 57.08 59.4648 57.08 59.8591V61.281C57.0797 61.4707 57.0046 61.6525 56.8713 61.7866C56.7379 61.9207 56.5572 61.9962 56.3686 61.9965H45.6318C45.4432 61.9962 45.2624 61.9207 45.1291 61.7866C44.9957 61.6525 44.9207 61.4707 44.9204 61.281V59.8591C44.9204 59.4648 45.2398 59.1424 45.6318 59.1424ZM45.6318 83.9932H56.3686C56.7605 83.9932 57.08 84.3157 57.08 84.7088V86.1307C57.08 86.5249 56.7605 86.8474 56.3686 86.8474H45.6318C45.2398 86.8474 44.9204 86.5249 44.9204 86.1307V84.7088C44.9204 84.3157 45.2398 83.9932 45.6318 83.9932ZM45.6318 71.5684H56.3686C56.5572 71.5687 56.7379 71.6442 56.8713 71.7783C57.0046 71.9124 57.0797 72.0942 57.08 72.2839V73.7058C57.0797 73.8955 57.0046 74.0773 56.8713 74.2115C56.7379 74.3456 56.5572 74.4211 56.3686 74.4214H45.6318C45.4432 74.4211 45.2624 74.3456 45.1291 74.2115C44.9957 74.0773 44.9207 73.8955 44.9204 73.7058V72.2839C44.9207 72.0942 44.9957 71.9124 45.1291 71.7783C45.2624 71.6442 45.4432 71.5687 45.6318 71.5684ZM36.8094 56H65.1909C66.0167 56 66.6919 56.6802 66.6919 57.5097V63.6304C66.6919 64.4598 66.0156 65.14 65.1909 65.14H36.8094C35.9847 65.14 35.3096 64.461 35.3096 63.6304V57.5097C35.3096 56.6791 35.9836 56 36.8094 56ZM36.8094 68.4249H65.1909C66.0167 68.4249 66.6919 69.1051 66.6919 69.9345V76.0552C66.6919 76.8847 66.0156 77.5649 65.1909 77.5649H36.8094C35.9847 77.5649 35.3096 76.8858 35.3096 76.0552V69.9345C35.3096 69.1039 35.9836 68.4249 36.8094 68.4249Z" fill="#3F3E71"/>
</g>
<defs>
<linearGradient id="paint0_linear_775_1862" x1="46.4844" y1="-4.41699e-06" x2="46.4844" y2="145" gradientUnits="userSpaceOnUse">
<stop stop-color="#C5BAFF"/>
<stop offset="1" stop-color="#80DAFD"/>
</linearGradient>
<clipPath id="clip0_775_1862">
<rect width="58" height="34" fill="white" transform="translate(22 56)"/>
</clipPath>
</defs>
</svg>
