<svg width="102" height="145" viewBox="0 0 102 145" fill="none" xmlns="http://www.w3.org/2000/svg">
<path d="M0 0H38.5C73.5701 0 102 28.4299 102 63.5V94C102 122.167 79.1665 145 51 145C22.8335 145 0 122.167 0 94V0Z" fill="url(#paint0_linear_775_1864)"/>
<path d="M58.1983 69.4961C58.3227 70.7153 58.3939 71.8952 58.3939 72.9996C58.3939 75.0668 58.1441 77.4012 57.7619 79.7613C55.4018 80.1435 53.0674 80.3933 51.0002 80.3933C48.9423 80.3933 46.6086 80.1442 44.2383 79.7607C43.8563 77.4005 43.6064 75.0666 43.6064 72.9996C43.6064 71.8957 43.6777 70.7155 43.8023 69.4961C46.29 69.8943 48.7718 70.1558 51.0002 70.1558C53.2288 70.1558 55.7105 69.8943 58.1983 69.4961Z" fill="#3F3E71"/>
<path d="M61.5628 68.8825C61.7166 70.3092 61.8061 71.6983 61.8061 73.0004C61.8061 74.9004 61.6159 76.9847 61.313 79.1002C65.6086 78.2039 69.579 77.0588 71.7061 76.4069C72.3933 76.1963 72.6635 76.1124 73.0258 75.9675C73.2069 75.8951 73.3729 75.8214 73.5893 75.7181C73.6953 74.8269 73.7499 73.92 73.7499 73.0004C73.7499 70.5694 73.3685 68.2276 72.6626 66.0312L72.4787 66.0891C70.2546 66.7657 66.0911 67.9618 61.5628 68.8825Z" fill="#3F3E71"/>
<path d="M71.3706 62.8592C69.1348 63.5368 65.2547 64.6378 61.0967 65.4951C60.1388 59.6737 58.4601 53.8676 57.6523 51.2383C63.6583 53.0719 68.6094 57.3238 71.3706 62.8592Z" fill="#3F3E71"/>
<path d="M57.7421 66.115C55.3882 66.4953 53.0612 66.7437 51 66.7437C48.9389 66.7437 46.612 66.4953 44.2583 66.115C45.1602 60.6068 46.7703 54.98 47.5936 52.2939C47.8042 51.6065 47.8881 51.3365 48.033 50.9741C48.1054 50.793 48.179 50.627 48.2824 50.4106C49.1735 50.3046 50.0805 50.25 51 50.25C51.9607 50.25 52.9074 50.3095 53.8369 50.4251C53.8566 50.5006 53.8748 50.568 53.8928 50.6319C53.9461 50.8205 54.0295 51.0857 54.1694 51.5306L54.1842 51.5773C54.886 53.8082 56.7458 60.0304 57.7421 66.115Z" fill="#3F3E71"/>
<path d="M40.9035 65.495C41.857 59.6993 43.5248 53.9245 44.331 51.2943L44.3481 51.2383C38.342 53.0719 33.391 57.3238 30.6299 62.8592C32.8655 63.5368 36.7455 64.6378 40.9035 65.495Z" fill="#3F3E71"/>
<path d="M29.3373 66.0312C28.6313 68.2276 28.25 70.5694 28.25 73.0004C28.25 73.9514 28.3083 74.8887 28.4217 75.8091L28.7802 75.9287L28.7831 75.9296L28.7866 75.9309L28.789 75.9315C28.9044 75.9699 32.2866 77.0868 36.7407 78.195C37.9975 78.5077 39.3283 78.8166 40.6868 79.0998C40.3839 76.9845 40.1938 74.9004 40.1938 73.0004C40.1938 71.6978 40.2831 70.3088 40.4369 68.8825C35.9076 67.9616 31.7431 66.765 29.5196 66.0885L29.5041 66.0838L29.3373 66.0312Z" fill="#3F3E71"/>
<path d="M51 83.8056C52.9 83.8056 54.9843 83.6154 57.0999 83.3125C56.2035 87.6081 55.0584 91.5786 54.4065 93.7054C54.1959 94.3928 54.112 94.6628 53.9671 95.0253C53.8947 95.2064 53.821 95.3724 53.7177 95.5888C52.8265 95.6948 51.9196 95.7494 51 95.7494C50.0805 95.7494 49.1735 95.6948 48.2824 95.5888C48.179 95.3724 48.1054 95.2064 48.033 95.0253C47.8881 94.663 47.8042 94.3928 47.5936 93.7056C46.9417 91.5788 45.7967 87.6086 44.9004 83.3134C47.0088 83.6152 49.0936 83.8056 51 83.8056Z" fill="#3F3E71"/>
<path d="M35.9166 81.5064C33.1 80.8054 30.7011 80.1015 29.2378 79.6523C31.4404 86.8673 37.1328 92.5596 44.3478 94.7622L44.3307 94.7063C43.6268 92.4097 42.266 87.7156 41.2973 82.7034C39.4136 82.3392 37.5822 81.9206 35.9166 81.5064Z" fill="#3F3E71"/>
<path d="M72.7063 79.6695C70.4097 80.3734 65.7152 81.7343 60.7028 82.7028C59.7343 87.7152 58.3734 92.4095 57.6695 94.7063L57.6523 94.7622C64.8673 92.5596 70.5596 86.8673 72.7622 79.6523L72.7063 79.6695Z" fill="#3F3E71"/>
<path d="M28.4888 75.8672C28.5675 75.8774 28.6317 75.8882 28.653 75.893C28.6717 75.8975 28.7009 75.9053 28.7115 75.9081L28.7349 75.9149L28.7475 75.9188L28.7608 75.9229L28.7719 75.9263C28.7657 75.9244 28.6393 75.8928 28.4888 75.8672Z" fill="#3F3E71"/>
<defs>
<linearGradient id="paint0_linear_775_1864" x1="46.4844" y1="-4.41699e-06" x2="46.4844" y2="145" gradientUnits="userSpaceOnUse">
<stop stop-color="#C5BAFF"/>
<stop offset="1" stop-color="#80DAFD"/>
</linearGradient>
</defs>
</svg>
