<svg width="65" height="72" viewBox="0 0 65 72" fill="none" xmlns="http://www.w3.org/2000/svg">
<path d="M0 16C0 7.16344 7.16344 0 16 0H35C51.5685 0 65 13.4315 65 30V42C65 58.5685 51.5685 72 35 72H16C7.16344 72 0 64.8366 0 56V16Z" fill="url(#paint0_linear_811_440)"/>
<g clip-path="url(#clip0_811_440)">
<path d="M31 21C27.8174 21 24.7652 22.2643 22.5147 24.5147C20.2643 26.7652 19 29.8174 19 33V35.85C18.5475 36.2443 18.1809 36.7273 17.9228 37.2692C17.6648 37.8111 17.5209 38.4002 17.5 39C17.5342 39.8698 17.8303 40.7089 18.3495 41.4075C18.8688 42.1061 19.587 42.6316 20.41 42.915C22.36 47.58 26.275 51 31 51H35.5V48H31C27.61 48 24.535 45.45 22.99 41.415L22.675 40.59L21.79 40.5C21.4296 40.4491 21.1 40.2688 20.8626 39.9928C20.6253 39.7168 20.4964 39.364 20.5 39C20.5016 38.7382 20.5716 38.4814 20.7032 38.2551C20.8348 38.0288 21.0233 37.8409 21.25 37.71L22 37.275V34.5C22 34.1022 22.158 33.7206 22.4393 33.4393C22.7206 33.158 23.1022 33 23.5 33H38.5C38.8978 33 39.2794 33.158 39.5607 33.4393C39.842 33.7206 40 34.1022 40 34.5V42H33.865C33.7288 41.6181 33.492 41.2802 33.1796 41.0218C32.8672 40.7635 32.4907 40.5943 32.0901 40.5323C31.6895 40.4702 31.2795 40.5176 30.9036 40.6693C30.5276 40.821 30.1997 41.0715 29.9544 41.3943C29.709 41.7171 29.5555 42.1001 29.51 42.503C29.4644 42.9058 29.5286 43.3135 29.6956 43.6829C29.8627 44.0523 30.1264 44.3697 30.459 44.6015C30.7916 44.8334 31.1806 44.971 31.585 45H43C43.7956 45 44.5587 44.6839 45.1213 44.1213C45.6839 43.5587 46 42.7956 46 42V39C46 38.2044 45.6839 37.4413 45.1213 36.8787C44.5587 36.3161 43.7956 36 43 36V33C43 29.8174 41.7357 26.7652 39.4853 24.5147C37.2348 22.2643 34.1826 21 31 21Z" fill="#3F3E71"/>
</g>
<defs>
<linearGradient id="paint0_linear_811_440" x1="29.6224" y1="-2.19326e-06" x2="29.6224" y2="72" gradientUnits="userSpaceOnUse">
<stop stop-color="#C5BAFF"/>
<stop offset="1" stop-color="#80DAFD"/>
</linearGradient>
<clipPath id="clip0_811_440">
<rect width="36" height="36" fill="white" transform="translate(13 18)"/>
</clipPath>
</defs>
</svg>
