<svg width="65" height="72" viewBox="0 0 65 72" fill="none" xmlns="http://www.w3.org/2000/svg">
<path d="M0 16C0 7.16344 7.16344 0 16 0H35C51.5685 0 65 13.4315 65 30V42C65 58.5685 51.5685 72 35 72H16C7.16344 72 0 64.8366 0 56V16Z" fill="url(#paint0_linear_2107_830)"/>
<path d="M26.8438 50.25C25.4187 50.25 24.1125 49.1812 23.875 47.6375C23.875 47.1625 23.4 46.6875 22.8063 46.6875C20.075 46.45 17.9375 44.075 17.9375 41.3438C17.9375 40.3937 18.175 39.5625 18.65 38.7312C19.7187 39.2062 20.9062 39.5625 22.0938 39.5625C22.8063 39.5625 23.2812 39.0875 23.2812 38.375C23.2812 37.6625 22.8063 37.1875 22.0938 37.1875C20.9062 37.1875 19.9563 36.8313 19.0063 36.2375C19.0063 36.2375 19.0063 36.2375 18.8875 36.1188C18.5313 35.8813 18.2938 35.6437 17.9375 35.2875C18.0562 35.2875 17.9375 35.1687 17.9375 35.1687C17.8188 35.05 17.7 34.8125 17.5812 34.6937C17.4625 34.4562 17.3438 34.3375 17.225 34.1C17.225 33.9812 17.1063 33.9812 17.1063 33.8625C16.9875 33.625 16.8687 33.2688 16.8687 33.0312V32.9125C16.75 32.5562 16.75 32.2 16.75 31.8438C16.75 28.9938 19.0063 26.6188 21.8563 26.5C22.2125 27.45 22.6875 28.1625 23.4 28.7562C23.6375 28.9937 23.875 28.9938 24.1125 28.9938C24.4688 28.9938 24.825 28.875 25.0625 28.5187C25.5375 28.0437 25.4187 27.2125 24.9437 26.8563C24.2312 26.3813 23.875 25.55 23.875 24.7188C23.875 23.0562 25.1812 21.75 26.8438 21.75C28.5063 21.75 29.8125 23.0562 29.8125 24.7188V47.2812C29.8125 48.9438 28.5063 50.25 26.8438 50.25ZM39.1938 46.6875C38.6 46.6875 38.2437 47.1625 38.125 47.7563C37.8875 49.1812 36.7 50.3687 35.1562 50.3687C33.4937 50.3687 32.1875 49.0625 32.1875 47.4V24.8375C32.1875 23.0562 33.4937 21.75 35.1562 21.75C36.8188 21.75 38.125 23.0562 38.125 24.7188V25.3125C38.125 25.6688 38.2437 25.9062 38.4812 26.1437C38.7188 26.3812 39.075 26.5 39.4312 26.5C39.55 26.5 39.7875 26.5 39.9062 26.5C42.875 26.5 45.25 28.875 45.25 31.8438C45.25 33.5063 44.5375 34.9312 43.2312 36C42.1625 35.2875 40.7375 34.8125 39.3125 34.8125C38.6 34.8125 38.125 35.2875 38.125 36C38.125 36.7125 38.6 37.1875 39.3125 37.1875C41.8062 37.1875 43.825 39.2062 44.0625 41.7C43.825 44.3125 41.8062 46.45 39.1938 46.6875Z" fill="#3F3E71"/>
<defs>
<linearGradient id="paint0_linear_2107_830" x1="29.6224" y1="-2.19326e-06" x2="29.6224" y2="72" gradientUnits="userSpaceOnUse">
<stop stop-color="#C5BAFF"/>
<stop offset="1" stop-color="#80DAFD"/>
</linearGradient>
</defs>
</svg>
