<svg width="65" height="72" viewBox="0 0 65 72" fill="none" xmlns="http://www.w3.org/2000/svg">
<path d="M0 16C0 7.16344 7.16344 0 16 0H35C51.5685 0 65 13.4315 65 30V42C65 58.5685 51.5685 72 35 72H16C7.16344 72 0 64.8366 0 56V16Z" fill="url(#paint0_linear_2107_965)"/>
<path d="M45.107 34.6071V27.6563C45.107 26.358 44.1254 24.8855 42.9062 24.3946L34.087 20.7846C32.1079 19.9771 29.8754 19.9771 27.8962 20.7846L19.0771 24.3946C17.8738 24.8855 16.8921 26.358 16.8921 27.6563V34.6071C16.8921 42.3496 22.5129 49.6013 30.192 51.723C30.7145 51.8655 31.2845 51.8655 31.807 51.723C39.4862 49.6013 45.107 42.3496 45.107 34.6071ZM32.187 37.378V41.5421C32.187 42.1913 31.6487 42.7296 30.9995 42.7296C30.3504 42.7296 29.812 42.1913 29.812 41.5421V37.378C28.2129 36.8713 27.0413 35.383 27.0413 33.6255C27.0413 31.4405 28.8145 29.6671 30.9995 29.6671C33.1845 29.6671 34.9579 31.4405 34.9579 33.6255C34.9579 35.3988 33.7862 36.8713 32.187 37.378Z" fill="#3F3E71"/>
<defs>
<linearGradient id="paint0_linear_2107_965" x1="29.6224" y1="-2.19326e-06" x2="29.6224" y2="72" gradientUnits="userSpaceOnUse">
<stop stop-color="#C5BAFF"/>
<stop offset="1" stop-color="#80DAFD"/>
</linearGradient>
</defs>
</svg>
