<svg width="65" height="72" viewBox="0 0 65 72" fill="none" xmlns="http://www.w3.org/2000/svg">
<path d="M0 16C0 7.16344 7.16344 0 16 0H35C51.5685 0 65 13.4315 65 30V42C65 58.5685 51.5685 72 35 72H16C7.16344 72 0 64.8366 0 56V16Z" fill="url(#paint0_linear_811_430)"/>
<path d="M42.2742 33.8211C42.8368 33.5398 43.4246 33.2004 44 32.8008V36.0008C44 39.3145 38.6274 42.0008 32 42.0008C25.3726 42.0008 20 39.3145 20 36.0008V32.8008C20.5754 33.2004 21.1632 33.5398 21.7259 33.8211C24.5619 35.2391 28.2 36.0008 32 36.0008C35.8 36.0008 39.438 35.2391 42.2742 33.8211Z" fill="#3F3E71"/>
<path d="M20 42.8008V46.0008C20 49.3146 25.3726 52.0008 32 52.0008C38.6274 52.0008 44 49.3146 44 46.0008V42.8008C43.4246 43.2004 42.8368 43.5398 42.2742 43.8212C39.438 45.2392 35.8 46.0008 32 46.0008C28.2 46.0008 24.5619 45.2392 21.7259 43.8212C21.1632 43.5398 20.5754 43.2004 20 42.8008Z" fill="#3F3E71"/>
<path d="M32 20C38.6274 20 44 22.6863 44 26C44 29.3137 38.6274 32 32 32C25.3726 32 20 29.3137 20 26C20 22.6863 25.3726 20 32 20Z" fill="#3F3E71"/>
<defs>
<linearGradient id="paint0_linear_811_430" x1="29.6224" y1="-2.19326e-06" x2="29.6224" y2="72" gradientUnits="userSpaceOnUse">
<stop stop-color="#C5BAFF"/>
<stop offset="1" stop-color="#80DAFD"/>
</linearGradient>
</defs>
</svg>
