<svg width="65" height="72" viewBox="0 0 65 72" fill="none" xmlns="http://www.w3.org/2000/svg">
<path d="M0 16C0 7.16344 7.16344 0 16 0H35C51.5685 0 65 13.4315 65 30V42C65 58.5685 51.5685 72 35 72H16C7.16344 72 0 64.8366 0 56V16Z" fill="url(#paint0_linear_2107_952)"/>
<path d="M33.2216 32.6664C32.6107 34.1273 30.9373 34.8047 29.4763 34.1938C28.0154 33.5828 27.338 31.9094 27.949 30.4484C28.5599 28.9875 30.2334 28.3102 31.6943 28.9211C33.1552 29.532 33.8326 31.2055 33.2216 32.6664ZM46.0646 39.5328C46.0646 40.1039 45.5998 40.5687 45.0287 40.5687H43.3419V44.1281C43.3419 46.8906 41.0974 49.1352 38.3349 49.1352H36.3427V52.7344H22.7959V41.9633C17.2841 37.6203 16.3279 29.6383 20.6576 24.1133C23.0615 21.0586 26.7404 19.2656 30.6318 19.2656C36.3959 19.2656 41.7083 23.5953 42.8107 28.35C43.063 29.4125 43.3419 32.175 43.3419 32.175L45.9849 39.1344C46.038 39.2539 46.0646 39.3867 46.0646 39.5328ZM36.0107 30.6609L37.631 29.6516L36.9537 27.9914L35.081 28.4164C34.7224 27.9117 34.2841 27.4602 33.7794 27.1016L34.2177 25.2422L32.5576 24.5516L31.5349 26.1719C30.924 26.0656 30.2865 26.0656 29.6755 26.1586L28.6794 24.5117L27.006 25.1891L27.431 27.0484C26.9263 27.407 26.4748 27.8453 26.1162 28.35L24.2568 27.9117L23.5529 29.5719L25.1732 30.5945C25.0669 31.2055 25.0669 31.843 25.1599 32.4539L23.5396 33.4766L24.2169 35.1367L26.0763 34.7117C26.4349 35.2164 26.8732 35.668 27.3779 36.0266L26.9396 37.8859L28.5998 38.5766L29.6224 36.9562C30.2334 37.0625 30.8709 37.0625 31.4818 36.9695L32.4912 38.5898L34.1513 37.9125L33.7263 36.0398C34.231 35.6812 34.6826 35.243 35.0412 34.7383L36.9005 35.1766L37.5912 33.5164L35.9708 32.4937C36.1169 31.8961 36.1169 31.2719 36.0107 30.6609Z" fill="#3F3E71"/>
<defs>
<linearGradient id="paint0_linear_2107_952" x1="29.6224" y1="-2.19326e-06" x2="29.6224" y2="72" gradientUnits="userSpaceOnUse">
<stop stop-color="#C5BAFF"/>
<stop offset="1" stop-color="#80DAFD"/>
</linearGradient>
</defs>
</svg>
