<svg width="65" height="72" viewBox="0 0 65 72" fill="none" xmlns="http://www.w3.org/2000/svg">
<path d="M0 16C0 7.16344 7.16344 0 16 0H35C51.5685 0 65 13.4315 65 30V42C65 58.5685 51.5685 72 35 72H16C7.16344 72 0 64.8366 0 56V16Z" fill="url(#paint0_linear_2107_956)"/>
<path d="M37.3998 18.4922L38.3695 22.8553C39.1921 26.5562 42.0434 29.4462 45.6949 30.2799L49.9998 31.2628L45.6949 32.2456C42.0434 33.0793 39.1921 35.9693 38.3695 39.6702L37.3998 44.0333L36.4301 39.6702C35.6075 35.9693 32.7562 33.0793 29.1047 32.2456L24.7998 31.2628L29.1047 30.2799C32.756 29.4462 35.6075 26.5562 36.4301 22.8553L37.3998 18.4922Z" fill="#3F3E71"/>
<path d="M23 36.7358L23.6927 39.8524C24.2802 42.4957 26.3169 44.5602 28.9251 45.1557L32 45.8577L28.9251 46.5597C26.3169 47.1552 24.2802 49.2194 23.6927 51.8629L23 54.9795L22.3073 51.8629C21.7198 49.2194 19.683 47.1552 17.0749 46.5597L14 45.8577L17.0749 45.1557C19.683 44.5602 21.7198 42.4959 22.3073 39.8524L23 36.7358Z" fill="#3F3E71"/>
<defs>
<linearGradient id="paint0_linear_2107_956" x1="29.6224" y1="-2.19326e-06" x2="29.6224" y2="72" gradientUnits="userSpaceOnUse">
<stop stop-color="#C5BAFF"/>
<stop offset="1" stop-color="#80DAFD"/>
</linearGradient>
</defs>
</svg>
