<svg width="65" height="72" viewBox="0 0 65 72" fill="none" xmlns="http://www.w3.org/2000/svg">
<path d="M0 16C0 7.16344 7.16344 0 16 0H35C51.5685 0 65 13.4315 65 30V42C65 58.5685 51.5685 72 35 72H16C7.16344 72 0 64.8366 0 56V16Z" fill="url(#paint0_linear_2107_948)"/>
<g clip-path="url(#clip0_2107_948)">
<path fill-rule="evenodd" clip-rule="evenodd" d="M30.0614 32.0335C30.9444 32.0355 31.8069 32.2992 32.5401 32.7913C33.2732 33.2833 33.8441 33.9816 34.1806 34.798C34.517 35.6143 34.604 36.512 34.4305 37.3778C34.257 38.2435 33.8308 39.0384 33.2057 39.662C32.5806 40.2856 31.7847 40.71 30.9186 40.8815C30.0525 41.053 29.1549 40.9639 28.3394 40.6256C27.5238 40.2872 26.8269 39.7147 26.3365 38.9804C25.8462 38.2461 25.5845 37.383 25.5845 36.5C25.5845 35.9126 25.7004 35.3309 25.9255 34.7883C26.1506 34.2458 26.4805 33.7529 26.8964 33.338C27.3123 32.9231 27.8059 32.5943 28.349 32.3705C28.8921 32.1466 29.474 32.0321 30.0614 32.0335ZM40.753 46.4528V44.1845H34.5488C35.0877 43.6972 35.579 43.1598 36.016 42.5794H41.5517C41.7635 42.5801 41.9665 42.6644 42.1165 42.8139C42.2666 42.9635 42.3515 43.1662 42.3529 43.378V46.4528C42.8703 46.6409 43.3048 47.0053 43.5802 47.482C43.8556 47.9587 43.9542 48.5171 43.8587 49.0593C43.7632 49.6014 43.4797 50.0926 43.0581 50.4465C42.6364 50.8004 42.1035 50.9944 41.553 50.9944C41.0025 50.9944 40.4696 50.8004 40.0479 50.4465C39.6262 50.0926 39.3427 49.6014 39.2472 49.0593C39.1517 48.5171 39.2504 47.9587 39.5257 47.482C39.8011 47.0053 40.2357 46.6409 40.753 46.4528ZM40.1938 29.9888H36.6429C36.2982 29.4222 35.9057 28.8862 35.4697 28.3864H39.3951V26.5654C38.876 26.3824 38.4379 26.0222 38.1579 25.5483C37.8779 25.0743 37.7738 24.5168 37.864 23.9738C37.9542 23.4307 38.2329 22.9368 38.6511 22.5788C39.0693 22.2208 39.6003 22.0217 40.1508 22.0163C40.7012 22.0109 41.236 22.1997 41.6611 22.5495C42.0862 22.8992 42.3745 23.3876 42.4753 23.9288C42.576 24.47 42.4829 25.0294 42.2122 25.5087C41.9415 25.9881 41.5105 26.3567 40.995 26.5498V29.1902C40.995 29.2953 40.9742 29.3994 40.9339 29.4964C40.8936 29.5935 40.8346 29.6816 40.7601 29.7558C40.6857 29.83 40.5974 29.8888 40.5002 29.9288C40.403 29.9688 40.2989 29.9892 40.1938 29.9888ZM48.9656 25.9021C48.9645 25.4808 48.8497 25.0677 48.6335 24.7062C48.4172 24.3447 48.1074 24.0483 47.7368 23.8481C47.3661 23.648 46.9484 23.5515 46.5275 23.5689C46.1066 23.5864 45.6982 23.717 45.3454 23.9471C44.9926 24.1772 44.7083 24.4983 44.5227 24.8764C44.3371 25.2545 44.2569 25.6757 44.2906 26.0956C44.3244 26.5155 44.4707 26.9185 44.7144 27.2622C44.958 27.6058 45.2898 27.8774 45.6748 28.0482V32.7307H37.8421C37.9909 33.2561 38.1013 33.7917 38.1725 34.3331H46.4734C46.6853 34.3317 46.888 34.2468 47.0376 34.0967C47.1871 33.9467 47.2714 33.7437 47.2721 33.5319V28.1575C47.7611 28.0167 48.191 27.7203 48.4965 27.3134C48.8021 26.9064 48.9668 26.411 48.9656 25.9021ZM48.9265 38.8907C48.9324 38.336 48.7411 37.7972 48.3867 37.3704C48.0323 36.9436 47.5378 36.6565 46.9915 36.5603C46.4451 36.4641 45.8824 36.565 45.4035 36.845C44.9246 37.1251 44.5608 37.5661 44.3767 38.0895H38.0398C37.9297 38.6334 37.7784 39.1683 37.5872 39.6893H44.3767C44.5607 40.2124 44.9243 40.6533 45.4029 40.9333C45.8815 41.2134 46.444 41.3145 46.9902 41.2186C47.5363 41.1228 48.0308 40.8362 48.3854 40.4098C48.74 39.9835 48.9317 39.4452 48.9265 38.8907ZM29.8924 49.3924H28.9663C28.5447 49.3917 28.1406 49.2241 27.8422 48.9262C27.5439 48.6284 27.3756 48.2245 27.3742 47.8029V46.1745C26.4652 45.9706 25.5895 45.6396 24.7729 45.1912L23.6855 46.2786C23.3867 46.5761 22.9821 46.7431 22.5604 46.7431C22.1387 46.7431 21.7342 46.5761 21.4353 46.2786L20.1216 44.9545C19.8247 44.6553 19.6581 44.2509 19.6581 43.8294C19.6581 43.4079 19.8247 43.0035 20.1216 42.7043L21.1128 41.7132C20.5939 40.8801 20.202 39.9744 19.9499 39.0259H18.592C18.1705 39.0253 17.7663 38.8577 17.468 38.5598C17.1696 38.262 17.0014 37.8581 17 37.4365V35.5635C16.9997 35.3541 17.0406 35.1467 17.1204 34.9531C17.2002 34.7595 17.3174 34.5835 17.4652 34.4352C17.6131 34.2869 17.7887 34.1691 17.982 34.0887C18.1753 34.0082 18.3826 33.9666 18.592 33.9663H19.9239C20.1709 33.0083 20.5602 32.0929 21.0789 31.2505L20.1216 30.2932C19.8255 29.9941 19.6594 29.5902 19.6594 29.1694C19.6594 28.7485 19.8255 28.3447 20.1216 28.0456L21.4457 26.7215C21.7446 26.424 22.1491 26.2569 22.5708 26.2569C22.9925 26.2569 23.3971 26.424 23.6959 26.7215L24.7365 27.762C25.5622 27.3022 26.4496 26.9632 27.3716 26.7553V25.1945C27.3737 24.7729 27.5426 24.3693 27.8414 24.072C28.1403 23.7746 28.5447 23.6077 28.9663 23.6077H30.8367C31.2437 23.6105 31.6343 23.7688 31.9284 24.0503C32.2224 24.3318 32.3977 24.7151 32.4183 25.1217V30.4493C31.7155 30.1935 30.9732 30.0631 30.2253 30.0643C30.1135 30.0643 30.0016 30.0643 29.8924 30.0643C29.7831 30.0643 29.6712 30.0643 29.562 30.0643C28.7106 30.0471 27.8643 30.2 27.0727 30.5139C26.2811 30.8279 25.5601 31.2966 24.9519 31.8926C24.3437 32.4887 23.8606 33.2001 23.5307 33.9852C23.2009 34.7703 23.031 35.6133 23.031 36.4649C23.031 37.3165 23.2009 38.1595 23.5307 38.9446C23.8606 39.7297 24.3437 40.4411 24.9519 41.0372C25.5601 41.6332 26.2811 42.102 27.0727 42.4159C27.8643 42.7299 28.7106 42.8827 29.562 42.8656C29.6712 42.8656 29.7831 42.8656 29.8924 42.8656C30.0016 42.8656 30.1135 42.8656 30.2253 42.8656C30.9732 42.8667 31.7155 42.7364 32.4183 42.4806V47.8784C32.3976 48.2863 32.2213 48.6707 31.9255 48.9524C31.6298 49.2341 31.2373 49.3916 30.8288 49.3924H29.8924Z" fill="#3F3E71"/>
</g>
<defs>
<linearGradient id="paint0_linear_2107_948" x1="29.6224" y1="-2.19326e-06" x2="29.6224" y2="72" gradientUnits="userSpaceOnUse">
<stop stop-color="#C5BAFF"/>
<stop offset="1" stop-color="#80DAFD"/>
</linearGradient>
<clipPath id="clip0_2107_948">
<rect width="31.9656" height="29" fill="white" transform="translate(17 22)"/>
</clipPath>
</defs>
</svg>
