<svg width="65" height="72" viewBox="0 0 65 72" fill="none" xmlns="http://www.w3.org/2000/svg">
<path d="M0 16C0 7.16344 7.16344 0 16 0H35C51.5685 0 65 13.4315 65 30V42C65 58.5685 51.5685 72 35 72H16C7.16344 72 0 64.8366 0 56V16Z" fill="url(#paint0_linear_811_445)"/>
<path fill-rule="evenodd" clip-rule="evenodd" d="M29.8335 26.9994C29.8335 25.8547 29.3607 24.7888 28.572 24.0923C27.7672 23.3814 26.6413 23.0709 25.4648 23.4725C24.2109 23.9004 22.7998 24.6311 21.6982 25.8866C20.874 26.826 20.2499 28.0293 19.98 29.5501C18.5685 29.7604 17.3475 30.6081 16.4646 31.7853C15.4416 33.1493 14.8335 34.9955 14.8335 36.9993C14.8335 39.0032 15.4416 40.8493 16.4646 42.2134C17.3214 43.3559 18.4965 44.1878 19.8553 44.4283C19.841 44.4893 19.8335 44.553 19.8335 44.6185C19.8335 46.5159 20.637 47.9033 21.7697 48.8772C22.8746 49.8268 24.2723 50.3695 25.4975 50.686C27.9435 51.318 29.8335 49.2357 29.8335 46.9993V26.9994ZM21.4783 44.4282C21.4926 44.4893 21.5002 44.553 21.5002 44.6185C21.5002 45.9797 22.0516 46.9217 22.8562 47.6132C23.6886 48.3288 24.8105 48.7872 25.9145 49.0723C27.0333 49.3615 28.1668 48.445 28.1668 46.9993V26.9994C28.1668 26.3032 27.8777 25.7026 27.4688 25.3416C27.0762 24.9949 26.569 24.8567 26.0032 25.0498C24.9217 25.4189 23.7993 26.019 22.951 26.9858C22.1171 27.9362 21.5002 29.2945 21.5002 31.2851C21.5002 31.7454 21.1271 32.1185 20.6668 32.1185C20.2066 32.1185 19.8335 31.7454 19.8335 31.2852C19.0802 31.5031 18.3754 32.0154 17.798 32.7853C17.0113 33.8342 16.5002 35.3213 16.5002 36.9993C16.5002 38.6774 17.0113 40.1645 17.798 41.2134C18.5844 42.262 19.6072 42.8327 20.6668 42.8327C21.651 42.8327 22.6001 42.3419 23.3614 41.4332C23.657 41.0805 24.1826 41.0342 24.5354 41.3297C24.8881 41.6253 24.9345 42.151 24.6389 42.5037C23.8079 43.4953 22.7189 44.2085 21.4783 44.4282Z" fill="#3F3E71"/>
<path fill-rule="evenodd" clip-rule="evenodd" d="M36.5835 36.1673H33.1668C32.7067 36.1673 32.3335 36.5405 32.3335 37.0007C32.3335 37.4608 32.7067 37.834 33.1668 37.834H36.5835C36.9695 39.7358 38.651 41.1673 40.6668 41.1673C42.968 41.1673 44.8335 39.3018 44.8335 37.0007C44.8335 34.6995 42.968 32.834 40.6668 32.834C38.651 32.834 36.9695 34.2655 36.5835 36.1673ZM38.1668 36.9945C38.1702 35.6165 39.2882 34.5007 40.6668 34.5007C42.0475 34.5007 43.1668 35.62 43.1668 37.0007C43.1668 38.3813 42.0475 39.5007 40.6668 39.5007C39.2882 39.5007 38.1702 38.3848 38.1668 37.0068V37.0007V36.9945Z" fill="#3F3E71"/>
<path fill-rule="evenodd" clip-rule="evenodd" d="M37.8977 43.8873C38.6338 43.232 39.6038 42.834 40.6668 42.834C42.968 42.834 44.8335 44.6995 44.8335 47.0006C44.8335 49.3018 42.968 51.1673 40.6668 51.1673C38.3657 51.1673 36.5002 49.3018 36.5002 47.0006C36.5002 46.361 36.6443 45.7551 36.9018 45.2135C36.8713 45.195 36.8417 45.1743 36.813 45.1513L32.6463 41.818C32.2868 41.5305 32.2287 41.0061 32.5162 40.6468C32.8037 40.2873 33.328 40.2291 33.6875 40.5166L37.8542 43.85C37.8692 43.862 37.8837 43.8745 37.8977 43.8873ZM40.6668 44.5006C39.2862 44.5006 38.1668 45.62 38.1668 47.0006C38.1668 48.3813 39.2862 49.5006 40.6668 49.5006C42.0475 49.5006 43.1668 48.3813 43.1668 47.0006C43.1668 45.62 42.0475 44.5006 40.6668 44.5006Z" fill="#3F3E71"/>
<path fill-rule="evenodd" clip-rule="evenodd" d="M40.6668 22.834C38.3657 22.834 36.5002 24.6995 36.5002 27.0007C36.5002 27.6403 36.6443 28.2462 36.9018 28.7878C36.8713 28.8063 36.8417 28.8271 36.813 28.85L32.6463 32.1833C32.2868 32.4708 32.2287 32.9952 32.5162 33.3546C32.8037 33.714 33.328 33.7723 33.6875 33.4847L37.8542 30.1514C37.8692 30.1394 37.8837 30.1269 37.8977 30.1141C38.6338 30.7693 39.6038 31.1673 40.6668 31.1673C42.968 31.1673 44.8335 29.3018 44.8335 27.0007C44.8335 24.6995 42.968 22.834 40.6668 22.834ZM38.1668 27.0007C38.1668 25.6199 39.2862 24.5007 40.6668 24.5007C42.0475 24.5007 43.1668 25.6199 43.1668 27.0007C43.1668 28.3814 42.0475 29.5007 40.6668 29.5007C39.2862 29.5007 38.1668 28.3814 38.1668 27.0007Z" fill="#3F3E71"/>
<path d="M43.7821 26.9997C43.7821 28.7437 42.3683 30.1576 40.6242 30.1576C38.8801 30.1576 37.4663 28.7437 37.4663 26.9997C37.4663 25.2556 38.8801 23.8418 40.6242 23.8418C42.3683 23.8418 43.7821 25.2556 43.7821 26.9997Z" fill="#3F3E71"/>
<path d="M43.7367 36.9997C43.7367 38.7437 42.3229 40.1576 40.5788 40.1576C38.8347 40.1576 37.4209 38.7437 37.4209 36.9997C37.4209 35.2556 38.8347 33.8418 40.5788 33.8418C42.3229 33.8418 43.7367 35.2556 43.7367 36.9997Z" fill="#3F3E71"/>
<path d="M43.7367 47.527C43.7367 49.2711 42.3229 50.6849 40.5788 50.6849C38.8347 50.6849 37.4209 49.2711 37.4209 47.527C37.4209 45.783 38.8347 44.3691 40.5788 44.3691C42.3229 44.3691 43.7367 45.783 43.7367 47.527Z" fill="#3F3E71"/>
<defs>
<linearGradient id="paint0_linear_811_445" x1="29.6224" y1="-2.19326e-06" x2="29.6224" y2="72" gradientUnits="userSpaceOnUse">
<stop stop-color="#C5BAFF"/>
<stop offset="1" stop-color="#80DAFD"/>
</linearGradient>
</defs>
</svg>
