<svg width="65" height="72" viewBox="0 0 65 72" fill="none" xmlns="http://www.w3.org/2000/svg">
<path d="M0 16C0 7.16344 7.16344 0 16 0H35C51.5685 0 65 13.4315 65 30V42C65 58.5685 51.5685 72 35 72H16C7.16344 72 0 64.8366 0 56V16Z" fill="url(#paint0_linear_2107_961)"/>
<path d="M19.476 43.1409C17.3618 40.7241 16.1872 37.6276 16.1668 34.4167C16.1668 26.5 23.276 20.1667 32.0002 20.1667C40.7243 20.1667 47.8335 26.5 47.8335 34.4167C47.8335 42.3334 40.7243 48.6667 32.0002 48.6667C30.3943 48.6723 28.7956 48.4538 27.2502 48.0175L19.9827 51.6592C19.783 51.7676 19.5606 51.8273 19.3335 51.8334C18.9764 51.8313 18.6304 51.7085 18.3518 51.485C18.1204 51.2995 17.9458 51.0527 17.8478 50.7728C17.7499 50.4928 17.7325 50.191 17.7977 49.9017L19.476 43.1409ZM38.3335 36C38.6467 36 38.9528 35.9072 39.2131 35.7332C39.4735 35.5592 39.6765 35.3119 39.7963 35.0226C39.9161 34.7333 39.9475 34.4149 39.8864 34.1078C39.8253 33.8007 39.6745 33.5185 39.4531 33.2971C39.2316 33.0757 38.9495 32.9249 38.6424 32.8638C38.3353 32.8027 38.0169 32.834 37.7276 32.9539C37.4383 33.0737 37.191 33.2767 37.017 33.537C36.843 33.7974 36.7502 34.1035 36.7502 34.4167C36.7502 34.8366 36.917 35.2393 37.2139 35.5363C37.5108 35.8332 37.9136 36 38.3335 36ZM32.0002 36C32.3133 36 32.6194 35.9072 32.8798 35.7332C33.1402 35.5592 33.3431 35.3119 33.463 35.0226C33.5828 34.7333 33.6142 34.4149 33.5531 34.1078C33.492 33.8007 33.3412 33.5185 33.1197 33.2971C32.8983 33.0757 32.6162 32.9249 32.3091 32.8638C32.0019 32.8027 31.6836 32.834 31.3942 32.9539C31.1049 33.0737 30.8576 33.2767 30.6837 33.537C30.5097 33.7974 30.4168 34.1035 30.4168 34.4167C30.4168 34.8366 30.5836 35.2393 30.8806 35.5363C31.1775 35.8332 31.5802 36 32.0002 36ZM25.6668 36C25.98 36 26.2861 35.9072 26.5465 35.7332C26.8069 35.5592 27.0098 35.3119 27.1296 35.0226C27.2495 34.7333 27.2808 34.4149 27.2197 34.1078C27.1586 33.8007 27.0078 33.5185 26.7864 33.2971C26.565 33.0757 26.2829 32.9249 25.9757 32.8638C25.6686 32.8027 25.3502 32.834 25.0609 32.9539C24.7716 33.0737 24.5243 33.2767 24.3503 33.537C24.1764 33.7974 24.0835 34.1035 24.0835 34.4167C24.0835 34.8366 24.2503 35.2393 24.5472 35.5363C24.8442 35.8332 25.2469 36 25.6668 36Z" fill="#3F3E71"/>
<defs>
<linearGradient id="paint0_linear_2107_961" x1="29.6224" y1="-2.19326e-06" x2="29.6224" y2="72" gradientUnits="userSpaceOnUse">
<stop stop-color="#C5BAFF"/>
<stop offset="1" stop-color="#80DAFD"/>
</linearGradient>
</defs>
</svg>
