<svg width="558" height="280" viewBox="0 0 558 280" fill="none" xmlns="http://www.w3.org/2000/svg">
<path d="M557.25 40C557.25 17.9086 539.341 0 517.25 0H42.7364C40.4878 0 38.5158 1.50104 37.917 3.66844L0.617897 138.668C0.377143 139.54 0.377142 140.46 0.617896 141.332L37.917 276.332C38.5158 278.499 40.4878 280 42.7364 280H517.25C539.341 280 557.25 262.091 557.25 240V40Z" fill="white"/>
<path d="M68 0H42.7654C40.5204 0 38.5506 1.49642 37.9486 3.65928L0.373169 138.659C0.129028 139.536 0.129028 140.464 0.373169 141.341L37.9486 276.341C38.5506 278.504 40.5204 280 42.7654 280H68L31.7333 140L68 0Z" fill="url(#paint0_linear_1426_1470)"/>
<defs>
<linearGradient id="paint0_linear_1426_1470" x1="37.0104" y1="-8.52936e-06" x2="37.0104" y2="280" gradientUnits="userSpaceOnUse">
<stop stop-color="#C5BAFF"/>
<stop offset="1" stop-color="#80DAFD"/>
</linearGradient>
</defs>
</svg>
