<svg width="558" height="280" viewBox="0 0 558 280" fill="none" xmlns="http://www.w3.org/2000/svg">
<path d="M0 40C0 17.9086 17.9086 0 40 0H514.514C516.762 0 518.734 1.50104 519.333 3.66844L556.632 138.668C556.873 139.54 556.873 140.46 556.632 141.332L519.333 276.332C518.734 278.499 516.762 280 514.514 280H40C17.9086 280 0 262.091 0 240V40Z" fill="white"/>
<path d="M489.25 0H514.485C516.73 0 518.699 1.49642 519.301 3.65928L556.877 138.659C557.121 139.536 557.121 140.464 556.877 141.341L519.301 276.341C518.699 278.504 516.73 280 514.485 280H489.25L525.517 140L489.25 0Z" fill="url(#paint0_linear_1426_1470)"/>
<defs>
<linearGradient id="paint0_linear_1426_1470" x1="520.24" y1="-8.52936e-06" x2="520.24" y2="280" gradientUnits="userSpaceOnUse">
<stop stop-color="#C5BAFF"/>
<stop offset="1" stop-color="#80DAFD"/>
</linearGradient>
</defs>
</svg>
