<svg width="231" height="231" viewBox="0 0 231 231" fill="none" xmlns="http://www.w3.org/2000/svg">
<circle cx="115.5" cy="115.5" r="115.5" fill="url(#paint0_linear_2747_1405)"/>
<path d="M160.443 160.443C152.151 168.735 141.616 174.423 130.134 176.807C118.652 179.19 106.724 178.166 95.8162 173.86C84.9086 169.554 75.4975 162.153 68.7404 152.569C61.9833 142.985 58.1749 131.634 57.7835 119.914C57.3921 108.194 60.4349 96.6145 66.5376 86.6007C72.6403 76.5869 81.5368 68.5752 92.1327 63.5509C102.729 58.5267 114.562 56.7089 126.178 58.3214C137.793 59.9338 148.684 64.906 157.511 72.6265L143.13 89.0679C137.508 84.1508 130.572 80.984 123.174 79.9571C115.776 78.9301 108.24 80.0878 101.491 83.2877C94.7428 86.4877 89.0767 91.5903 85.1899 97.968C81.3032 104.346 79.3652 111.72 79.6145 119.185C79.8638 126.649 82.2893 133.878 86.5929 139.983C90.8964 146.087 96.8903 150.8 103.837 153.543C110.784 156.285 118.381 156.938 125.694 155.419C133.007 153.901 139.717 150.279 144.998 144.998L160.443 160.443Z" fill="white"/>
<circle cx="118.309" cy="118.308" r="13.1592" fill="white"/>
<defs>
<linearGradient id="paint0_linear_2747_1405" x1="105.273" y1="-7.03672e-06" x2="105.273" y2="231" gradientUnits="userSpaceOnUse">
<stop stop-color="#9A87FF"/>
<stop offset="1" stop-color="#4ECCFD"/>
</linearGradient>
</defs>
</svg>
