<svg width="40" height="40" viewBox="0 0 40 40" fill="none" xmlns="http://www.w3.org/2000/svg">
<path d="M34.1421 34.1421C31.3853 36.899 27.8828 38.79 24.0654 39.5825C20.248 40.375 16.2822 40.0344 12.6558 38.6027C9.02936 37.1711 5.90048 34.7107 3.65396 31.5242C1.40744 28.3377 0.141257 24.5641 0.011141 20.6675C-0.118975 16.7709 0.892653 12.9212 2.9216 9.59192C4.95054 6.26267 7.90832 3.59903 11.4311 1.92862C14.954 0.258214 18.8882 -0.346117 22.75 0.18996C26.6117 0.726036 30.2326 2.37914 33.1672 4.94595L28.3861 10.4122C26.5171 8.7774 24.211 7.72455 21.7514 7.38313C19.2919 7.0417 16.7862 7.4266 14.5426 8.49047C12.2989 9.55434 10.4151 11.2508 9.12289 13.3712C7.83067 15.4915 7.18637 17.9434 7.26924 20.4251C7.35211 22.9068 8.15853 25.3102 9.58932 27.3397C11.0201 29.3691 13.0129 30.9361 15.3225 31.848C17.6321 32.7598 20.1579 32.9767 22.5892 32.4719C25.0205 31.9672 27.2512 30.7628 29.007 29.007L34.1421 34.1421Z" fill="#80DAFD"/>
<circle cx="20.1348" cy="20.1341" r="4.375" fill="#80DAFD"/>
</svg>
