<svg width="99" height="103" viewBox="0 0 99 103" fill="none" xmlns="http://www.w3.org/2000/svg">
<path d="M49.7188 59.5H47.7188C46.7523 59.5 45.9688 60.2835 45.9688 61.25V77.25C45.9688 78.2165 46.7523 79 47.7188 79H49.7188C50.6852 79 51.4688 78.2165 51.4688 77.25V61.25C51.4688 60.2835 50.6852 59.5 49.7188 59.5Z" stroke="#33D6EB" stroke-width="1.5"/>
<path d="M48.7188 56.25C51.4801 56.25 53.7188 54.0114 53.7188 51.25C53.7188 48.4886 51.4801 46.25 48.7188 46.25C45.9574 46.25 43.7188 48.4886 43.7188 51.25C43.7188 54.0114 45.9574 56.25 48.7188 56.25Z" stroke="#33D6EB" stroke-width="2"/>
<path d="M48.7188 53.25C49.8233 53.25 50.7188 52.3546 50.7188 51.25C50.7188 50.1454 49.8233 49.25 48.7188 49.25C47.6142 49.25 46.7188 50.1454 46.7188 51.25C46.7188 52.3546 47.6142 53.25 48.7188 53.25Z" fill="#33D6EB"/>
<path d="M89.9474 35C90.8714 19.6964 72.9474 8 63.9475 6C68.2092 10.1326 72.8311 16.6016 75.0103 24M89.9474 35C89.3336 45.1651 81.0479 53.9 75.4479 57.5M89.9474 35L75.0103 24M89.9474 35L72.4493 46M75.0103 24C77.0443 30.9052 76.9503 38.62 72.4493 46M75.4479 57.5C80.4479 54.5 92.9476 42.5 92.9476 42.5C92.9476 42.5 94.3648 62.7361 90.4473 66M75.4479 57.5L63.9475 77.5M75.4479 57.5L55.9474 60.5C64.0788 56.0829 69.3255 51.1221 72.4493 46M90.4473 66C87.4467 68.5 63.9475 77.5 63.9475 77.5M90.4473 66L76.1974 57.5M63.9475 77.5L55.9473 97.5L55.9474 61L63.9475 77.5Z" stroke="#33D6EB" stroke-width="2"/>
<path d="M55.9004 60.0547C55.8843 60.0556 55.8624 60.0698 55.8487 60.0781C55.8386 60.0843 55.8209 60.0842 55.8145 60.0955C55.8109 60.1017 55.7906 60.1098 55.7841 60.1124C55.7814 60.1135 55.7637 60.1233 55.7637 60.1233C55.7578 60.1336 55.7443 60.1297 55.7372 60.1376C55.7324 60.1429 55.7293 60.1509 55.7227 60.1562C55.7132 60.1638 55.7001 60.1972 55.6975 60.209C55.6859 60.2613 55.6301 60.2877 55.6105 60.3368C55.6063 60.3473 55.5948 60.3556 55.5896 60.3674C55.5842 60.3799 55.5797 60.3906 55.5753 60.4032C55.5673 60.4263 55.5501 60.4516 55.5488 60.4766C55.5478 60.4969 55.5351 60.5385 55.5237 60.5564C55.5137 60.5721 55.5237 60.603 55.5117 60.6174C55.5061 60.6242 55.5071 60.6516 55.505 60.6602C55.5017 60.6734 55.502 60.6853 55.502 60.699C55.502 60.7206 55.502 60.7423 55.502 60.7639C55.502 60.7873 55.4941 60.8089 55.4941 60.832C55.4941 60.8529 55.4941 60.8737 55.4941 60.8945C55.4941 60.9141 55.4941 60.9336 55.4941 60.9531C55.4941 60.9607 55.4956 60.9764 55.5002 60.9824C55.5043 60.9876 55.5055 60.9895 55.5059 60.9961C55.5065 61.007 55.5309 60.986 55.5332 60.9844" stroke="#33D6EB" stroke-width="0.1" stroke-linecap="round"/>
<path d="M55.7749 60.9688C55.7601 60.8822 55.7391 60.7941 55.7297 60.7067C55.7276 60.6869 55.7412 60.7106 55.7432 60.7136C55.754 60.7297 55.7857 60.7837 55.794 60.7983C55.811 60.8283 55.8252 60.8574 55.8374 60.8894C55.8542 60.9335 55.8173 60.7971 55.8066 60.7512C55.8066 60.7512 55.7882 60.631 55.7768 60.6242C55.774 60.6225 55.7757 60.6307 55.776 60.634C55.7776 60.6549 55.7812 60.6794 55.7844 60.6993C55.7962 60.7718 55.8141 60.8415 55.8415 60.9098C55.8475 60.9249 55.8483 60.9456 55.8623 60.9539C55.8643 60.955 55.8646 60.9498 55.8647 60.9476C55.8664 60.9246 55.8647 60.9016 55.8647 60.8785C55.8647 60.8045 55.8641 60.7304 55.8647 60.6563C55.8648 60.645 55.8601 60.6137 55.8673 60.6225C55.8798 60.6375 55.8775 60.6602 55.8816 60.6793C55.8836 60.6885 55.9024 60.7805 55.9055 60.7917C55.9153 60.8266 55.9167 60.8022 55.9185 60.7805C55.9208 60.7544 55.9221 60.6852 55.925 60.6585C55.9259 60.6511 55.9234 60.635 55.9307 60.6368C55.9393 60.6389 55.9374 60.6533 55.9394 60.662C55.9443 60.6833 55.9474 60.7049 55.9513 60.7264C55.958 60.764 55.968 60.8237 55.9756 60.8627C55.976 60.8647 55.9854 60.9143 55.9815 60.8775C55.976 60.8264 55.9683 60.7749 55.9595 60.7243C55.9539 60.6916 55.9549 60.7903 55.952 60.8232C55.9514 60.8295 55.9438 60.9627 55.9272 60.9623C55.9078 60.9619 55.8842 60.811 55.8829 60.8048C55.8637 60.7121 55.8484 60.6185 55.8348 60.5248C55.8334 60.5152 55.8322 60.5056 55.8309 60.496C55.8304 60.4927 55.8327 60.4871 55.8296 60.4862C55.8266 60.4853 55.8294 60.4924 55.8293 60.4955C55.8291 60.5034 55.829 60.5113 55.8287 60.5192C55.8257 60.6083 55.8196 60.6972 55.8163 60.7863C55.8152 60.8167 55.8157 60.9076 55.8118 60.8775C55.8079 60.8479 55.8106 60.8256 55.8148 60.793C55.8273 60.6968 55.8443 60.62 55.8667 60.5235C55.887 60.436 55.9083 60.3544 55.9324 60.2685C55.9372 60.2514 55.9419 60.2343 55.9476 60.2175C55.9485 60.2148 55.9508 60.208 55.9524 60.2104C55.9632 60.2266 55.9505 60.2494 55.9478 60.2687C55.935 60.3613 55.9156 60.4529 55.8942 60.5439C55.8742 60.6293 55.8551 60.7184 55.8243 60.8009C55.823 60.8044 55.8182 60.8131 55.817 60.8095C55.81 60.7895 55.8123 60.7674 55.8118 60.7462C55.8092 60.6426 55.812 60.5386 55.8209 60.4354C55.8222 60.4194 55.826 60.3851 55.8287 60.3668C55.8293 60.3625 55.8301 60.3581 55.8311 60.3538C55.8331 60.3448 55.833 60.3501 55.8326 60.3562C55.8284 60.4228 55.813 60.4891 55.8003 60.5543C55.7871 60.6217 55.7798 60.6924 55.7632 60.759C55.7617 60.7647 55.7578 60.7812 55.754 60.764C55.7489 60.7406 55.7509 60.7072 55.7525 60.6858C55.7618 60.5607 55.7942 60.4385 55.8213 60.3165C55.8222 60.3125 55.8341 60.2577 55.8365 60.2479C55.8382 60.2409 55.84 60.2212 55.8434 60.2275C55.85 60.2396 55.8418 60.2551 55.84 60.2687C55.8352 60.304 55.8256 60.3644 55.82 60.3972C55.808 60.4673 55.7983 60.5416 55.7744 60.609C55.7625 60.6428 55.7624 60.5696 55.7625 60.5676C55.7684 60.4867 55.7905 60.4099 55.7905 60.3282C55.7905 60.3068 55.7905 60.2854 55.7905 60.264C55.7905 60.2482 55.7905 60.2324 55.7905 60.2167C55.7905 60.1879 55.7847 60.2328 55.7822 60.2405C55.7727 60.2708 55.7616 60.3074 55.7428 60.3338C55.7055 60.386 55.6682 60.4526 55.6616 60.5166C55.6607 60.5255 55.658 60.5316 55.6648 60.5194C55.6757 60.5 55.6868 60.4808 55.6965 60.4608C55.7196 60.4134 55.7337 60.3616 55.7584 60.3152C55.7632 60.306 55.7758 60.2778 55.7731 60.2878C55.7629 60.326 55.7264 60.3601 55.7067 60.3942C55.693 60.4179 55.681 60.4418 55.6703 60.4671C55.6667 60.4756 55.6553 60.501 55.6594 60.4927C55.6694 60.4728 55.6785 60.452 55.6865 60.4313C55.7059 60.3817 55.7184 60.3275 55.7295 60.2755C55.7355 60.2476 55.7096 60.3112 55.7067 60.3174C55.6897 60.354 55.6652 60.3902 55.6559 60.43C55.6449 60.4775 55.6275 60.5238 55.6178 60.5717C55.6015 60.6514 55.5959 60.732 55.5815 60.8119C55.5713 60.8688 55.5717 60.9311 55.5717 60.9888C55.5717 60.9997 55.5688 61.0404 55.5783 61.0075C55.6013 60.9269 55.6166 60.8442 55.6358 60.7627C55.6471 60.7142 55.6603 60.6688 55.6811 60.6236C55.6855 60.614 55.6941 60.5855 55.6963 60.5958C55.6991 60.6089 55.6968 60.6225 55.697 60.6359C55.6977 60.7206 55.6988 60.8052 55.6998 60.8898C55.7002 60.9241 55.6978 61.0269 55.7007 60.9927C55.7059 60.9301 55.7114 60.8674 55.7163 60.8048C55.7261 60.6794 55.7387 60.3023 55.7315 60.4278C55.7284 60.4806 55.7199 60.5331 55.7141 60.5856C55.7053 60.6653 55.7001 60.7455 55.6896 60.8249C55.6888 60.8306 55.6862 60.8473 55.6855 60.8417C55.6837 60.8281 55.685 60.8143 55.685 60.8006C55.685 60.7325 55.6868 60.6641 55.6842 60.596C55.6832 60.5716 55.681 60.5473 55.6724 60.5244C55.6706 60.5195 55.6681 60.534 55.6677 60.5391C55.6599 60.6247 55.6581 60.7109 55.6581 60.7967C55.6581 60.8608 55.6599 60.9253 55.6672 60.989C55.6735 61.0439 55.6667 60.9543 55.6664 60.945C55.6638 60.862 55.6596 60.7736 55.6772 60.6919C55.6894 60.6355 55.7056 60.5799 55.7182 60.5235C55.7449 60.4043 55.7913 60.2941 55.8313 60.18C55.841 60.1523 55.853 60.1136 55.853 60.0838C55.853 60.0802 55.8236 60.1065 55.8178 60.1095" stroke="#33D6EB" stroke-width="0.1" stroke-linecap="round"/>
<path d="M55.8124 59.6084C55.7829 59.6276 55.7698 59.6593 55.7385 59.6762C55.7214 59.6856 55.7102 59.6895 55.693 59.6973C55.6503 59.7167 55.6208 59.7621 55.5805 59.7845C55.5187 59.8188 55.4779 59.9108 55.4474 59.9717C55.4144 60.0376 55.3822 60.1046 55.356 60.1735C55.3379 60.2209 55.3192 60.2664 55.3061 60.3156C55.2848 60.3962 55.2749 60.4716 55.2636 60.5539C55.2493 60.6584 55.2559 60.7659 55.2559 60.8713C55.2559 60.9073 55.2612 60.9431 55.2641 60.979C55.2688 61.0386 55.2917 60.9266 55.2945 60.9146" stroke="#33D6EB" stroke-width="0.1" stroke-linecap="round"/>
<path d="M55.7111 59.6162C55.6751 59.6242 55.6573 59.6764 55.6338 59.7012C55.6084 59.7281 55.5744 59.7499 55.5527 59.779C55.5036 59.8444 55.4308 59.9029 55.4097 59.9872" stroke="#33D6EB" stroke-width="0.1" stroke-linecap="round"/>
<path d="M55.5645 59.6626C55.5613 59.694 55.5133 59.7329 55.4872 59.7459C55.461 59.759 55.4336 59.8012 55.4176 59.8266C55.3919 59.8675 55.3769 59.9168 55.3618 59.9623C55.3456 60.0107 55.3357 60.077 55.3094 60.1203C55.2782 60.1717 55.2564 60.2495 55.2415 60.3076C55.2111 60.4264 55.1943 60.5469 55.172 60.6674C55.1572 60.7473 55.1625 60.8294 55.1625 60.9104C55.1625 60.9451 55.1625 60.9797 55.1625 61.0143C55.1625 61.0745 55.1625 61.0215 55.1625 60.9843" stroke="#33D6EB" stroke-width="0.1" stroke-linecap="round"/>
<path d="M55.5877 59.6626C55.5612 59.6748 55.5309 59.7124 55.5087 59.7339C55.4867 59.7551 55.4701 59.7822 55.4468 59.8017C55.3895 59.8499 55.3523 59.912 55.3266 59.9812C55.2843 60.0953 55.2581 60.2154 55.2244 60.3333C55.2047 60.4023 55.1983 60.4756 55.178 60.5454C55.1551 60.6245 55.1317 60.7003 55.1317 60.7833C55.1317 60.8477 55.1317 60.9121 55.1317 60.9766C55.1317 61.0069 55.1317 61.0372 55.1317 61.0676C55.1317 61.0729 55.1289 61.0966 55.1394 61.0856C55.1752 61.0482 55.1983 60.9975 55.2244 60.9534" stroke="#33D6EB" stroke-width="0.1" stroke-linecap="round"/>
<path d="M55.8594 59.7166C55.682 59.9341 55.5254 60.1818 55.3905 60.4276C55.313 60.5688 55.257 60.7131 55.2196 60.8695C55.2196 60.8695 55.1895 60.9644 55.2174 60.9348C55.2509 60.8991 55.2725 60.846 55.2926 60.8029C55.3514 60.6764 55.4033 60.546 55.4506 60.4148C55.4997 60.2784 55.5421 60.1387 55.5811 59.9991C55.5917 59.9613 55.6157 59.8029 55.5816 59.951C55.5342 60.1561 55.4989 60.3644 55.4643 60.5719C55.4475 60.6732 55.4306 60.7832 55.4162 60.8862C55.4131 60.9085 55.3987 60.9734 55.4085 60.9532C55.4638 60.8393 55.4959 60.6789 55.5317 60.5625C55.5799 60.406 55.6023 60.3323 55.6464 60.185C55.6559 60.1532 55.6617 60.1199 55.6756 60.0897C55.6864 60.0661 55.6694 60.1413 55.6636 60.1666C55.6362 60.2845 55.6041 60.4014 55.5725 60.5182C55.5395 60.6408 55.5052 60.763 55.4712 60.8854C55.464 60.9114 55.4573 60.9376 55.4497 60.9635C55.4482 60.9688 55.4492 60.979 55.4437 60.979C55.421 60.979 55.4517 60.9343 55.4562 60.912C55.4884 60.7508 55.5068 60.5887 55.5167 60.4246C55.5238 60.3081 55.5262 60.1914 55.527 60.0747C55.5272 60.05 55.5278 59.9768 55.5219 60.0008C55.4719 60.2039 55.4289 60.4101 55.3905 60.6157C55.3766 60.6903 55.3644 60.7651 55.3544 60.8403C55.3541 60.8423 55.3421 60.9042 55.3626 60.8703C55.4726 60.6885 55.4343 60.4448 55.4343 60.2439C55.4343 60.2277 55.43 60.2203 55.4184 60.24C55.3482 60.3585 55.3089 60.4922 55.2651 60.6217C55.2442 60.6834 55.2774 60.5486 55.2797 60.5401C55.3001 60.4649 55.3231 60.3914 55.3372 60.3147C55.3455 60.2697 55.3415 60.3262 55.3415 60.3387C55.3415 60.4124 55.3471 60.3464 55.3639 60.3108C55.408 60.2171 55.4871 60.1193 55.515 60.024C55.5241 59.9929 55.5425 59.9649 55.5425 59.9325C55.5425 59.9209 55.5425 59.8862 55.5425 59.8978C55.5425 59.9536 55.5561 60.0092 55.5695 60.0631C55.5891 60.1413 55.6069 60.2198 55.6266 60.298C55.6279 60.3028 55.637 60.3695 55.6447 60.3752C55.655 60.383 55.6485 60.3496 55.649 60.3366C55.6504 60.2957 55.6499 60.2364 55.649 60.1975C55.6473 60.1221 55.6444 60.0466 55.6357 59.9716C55.6337 59.9549 55.6305 59.9086 55.6219 59.9231C55.5564 60.034 55.5358 60.181 55.5038 60.304" stroke="#33D6EB" stroke-width="0.1" stroke-linecap="round"/>
<path d="M55.5955 59.6316C55.5226 59.6316 55.4704 59.7056 55.422 59.7471C55.4052 59.7615 55.4092 59.7974 55.3907 59.8098C55.3652 59.8268 55.3514 59.9065 55.3404 59.9347C55.3264 59.9712 55.3225 60.024 55.2958 60.0507C55.2704 60.076 55.2519 60.1248 55.2361 60.1563C55.1964 60.2357 55.1853 60.3354 55.1567 60.4182C55.147 60.446 55.1378 60.4781 55.1335 60.5067C55.1304 60.5269 55.1299 60.5906 55.1121 60.6059C55.0937 60.6217 55.0839 60.6604 55.0743 60.6823C55.0634 60.7074 55.0622 60.7237 55.0622 60.7523C55.0622 60.7956 55.039 60.8321 55.039 60.8721C55.039 60.8928 55.0442 60.9214 55.0386 60.9413C55.0336 60.9586 55.0166 61.0072 55.0468 60.9997" stroke="#33D6EB" stroke-width="0.1" stroke-linecap="round"/>
<path d="M55.5959 59.6316C55.5443 59.6603 55.4827 59.7181 55.4551 59.7707C55.4359 59.8071 55.4093 59.8382 55.3907 59.8755C55.3796 59.8975 55.3625 59.9346 55.3447 59.9524C55.274 60.023 55.2724 60.1356 55.2215 60.2156C55.1863 60.2708 55.1797 60.3495 55.1571 60.4105C55.1152 60.5237 55.0549 60.6404 55.0549 60.7639C55.0549 60.8033 55.0478 60.8749 55.0278 60.9108C55.0152 60.9334 55.0162 60.9627 55.0162 60.9881C55.0162 61.0098 55.0059 61.0525 55.0317 61.046" stroke="#33D6EB" stroke-width="0.1" stroke-linecap="round"/>
<path d="M55.5646 59.6562C55.557 59.6571 55.54 59.6732 55.5316 59.6775C55.5179 59.6845 55.5058 59.6971 55.4923 59.7031C55.474 59.7112 55.4602 59.7316 55.4465 59.7452C55.4311 59.7606 55.413 59.7798 55.4024 59.7988C55.3959 59.8106 55.391 59.8225 55.3846 59.8342C55.3812 59.8404 55.3769 59.8464 55.3731 59.8524C55.3639 59.8674 55.3692 59.8454 55.3692 59.8359" stroke="#33D6EB" stroke-width="0.1" stroke-linecap="round"/>
<path d="M55.5252 59.6406C55.4976 59.6709 55.4796 59.7088 55.449 59.7361C55.4251 59.7575 55.4068 59.783 55.3904 59.8103C55.369 59.8461 55.3356 59.8767 55.3182 59.916C55.3112 59.9317 55.2908 59.9618 55.2908 59.9785C55.2908 60.0005 55.2725 60.0193 55.2713 60.0412C55.2703 60.0597 55.2596 60.0766 55.2596 60.0957C55.2596 60.1036 55.2497 60.1162 55.247 60.125C55.2428 60.1386 55.234 60.1578 55.2261 60.1701C55.2117 60.1928 55.2044 60.2216 55.1932 60.2461C55.1852 60.2635 55.1831 60.2925 55.1678 60.3047C55.1626 60.3089 55.1633 60.3188 55.16 60.3242C55.1532 60.335 55.1485 60.3494 55.1439 60.3611C55.1316 60.392 55.1121 60.4279 55.1072 60.4609C55.1021 60.4958 55.0931 60.5302 55.0823 60.564C55.0786 60.5754 55.0682 60.5911 55.0682 60.6035C55.0682 60.6078 55.0691 60.6132 55.0673 60.6172C55.057 60.6403 55.0486 60.6629 55.0486 60.6884C55.0486 60.7093 55.046 60.7388 55.0399 60.7591C55.0352 60.7751 55.037 60.7935 55.0321 60.8095C55.025 60.8326 55.0213 60.8662 55.0213 60.8898C55.0213 60.9085 55.0057 60.9233 55.0057 60.9414C55.0057 60.9586 54.9863 60.9882 55.0135 60.9727" stroke="#33D6EB" stroke-width="0.1" stroke-linecap="round"/>
<path d="M55.3536 59.9207C55.3363 59.9437 55.3293 59.979 55.3089 59.9994C55.2925 60.0158 55.2769 60.0401 55.2664 60.061C55.2583 60.0772 55.2519 60.0961 55.243 60.1111C55.2329 60.1281 55.23 60.1467 55.2217 60.1631" stroke="#33D6EB" stroke-width="0.1" stroke-linecap="round"/>
<path d="M55.3301 59.9883C55.3014 59.9915 55.2771 60.043 55.2598 60.0625C55.2458 60.0782 55.2246 60.1121 55.2246 60.1328" stroke="#33D6EB" stroke-width="0.1" stroke-linecap="round"/>
<path d="M55.3223 59.9805C55.3204 59.9878 55.3002 59.9937 55.2947 60.002C55.2889 60.0107 55.2738 60.0183 55.2656 60.0256C55.2449 60.0442 55.2275 60.0706 55.2207 60.0977" stroke="#33D6EB" stroke-width="0.1" stroke-linecap="round"/>
<path d="M55.3262 59.918C55.2989 59.9358 55.2838 59.9641 55.2697 59.9922C55.2595 60.0127 55.248 60.0355 55.248 60.0586" stroke="#33D6EB" stroke-width="0.1" stroke-linecap="round"/>
<path d="M8.25 35C7.32597 19.6964 25.25 8 34.2498 6C29.9881 10.1326 25.3662 16.6016 23.187 24M8.25 35C8.86377 45.1651 17.1495 53.9 22.7495 57.5M8.25 35L23.187 24M8.25 35L25.748 46M23.187 24C21.1531 30.9052 21.2471 38.62 25.748 46M22.7495 57.5C17.7495 54.5 5.24975 42.5 5.24975 42.5C5.24975 42.5 3.83254 62.7361 7.75005 66M22.7495 57.5L34.2498 77.5M22.7495 57.5L42.25 60.5C34.1186 56.0829 28.8719 51.1221 25.748 46M7.75005 66C10.7507 68.5 34.2498 77.5 34.2498 77.5M7.75005 66L22 57.5M34.2498 77.5L42.2501 97.5L42.25 61L34.2498 77.5Z" stroke="#33D6EB" stroke-width="2"/>
<path d="M42.2969 60.0547C42.313 60.0556 42.3349 60.0698 42.3485 60.0781C42.3587 60.0843 42.3764 60.0842 42.3828 60.0955C42.3864 60.1017 42.4067 60.1098 42.4132 60.1124C42.4159 60.1135 42.4336 60.1233 42.4336 60.1233C42.4395 60.1336 42.4529 60.1297 42.4601 60.1376C42.4649 60.1429 42.468 60.1509 42.4746 60.1562C42.484 60.1638 42.4972 60.1972 42.4998 60.209C42.5114 60.2613 42.5672 60.2877 42.5868 60.3368C42.591 60.3473 42.6025 60.3556 42.6076 60.3674C42.6131 60.3799 42.6176 60.3906 42.622 60.4032C42.63 60.4263 42.6471 60.4516 42.6484 60.4766C42.6495 60.4969 42.6622 60.5385 42.6736 60.5564C42.6836 60.5721 42.6735 60.603 42.6855 60.6174C42.6912 60.6242 42.6901 60.6516 42.6923 60.6602C42.6956 60.6734 42.6953 60.6853 42.6953 60.699C42.6953 60.7206 42.6953 60.7423 42.6953 60.7639C42.6953 60.7873 42.7031 60.8089 42.7031 60.832C42.7031 60.8529 42.7031 60.8737 42.7031 60.8945C42.7031 60.9141 42.7031 60.9336 42.7031 60.9531C42.7031 60.9607 42.7017 60.9764 42.697 60.9824C42.693 60.9876 42.6918 60.9895 42.6914 60.9961C42.6908 61.007 42.6664 60.986 42.6641 60.9844" stroke="#33D6EB" stroke-width="0.1" stroke-linecap="round"/>
<path d="M42.4224 60.9688C42.4371 60.8822 42.4581 60.7941 42.4675 60.7067C42.4697 60.6869 42.4561 60.7106 42.4541 60.7136C42.4433 60.7297 42.4116 60.7837 42.4033 60.7983C42.3862 60.8283 42.3721 60.8574 42.3599 60.8894C42.3431 60.9335 42.38 60.7971 42.3907 60.7512C42.3907 60.7512 42.4091 60.631 42.4204 60.6242C42.4232 60.6225 42.4216 60.6307 42.4213 60.634C42.4196 60.6549 42.4161 60.6794 42.4128 60.6993C42.401 60.7718 42.3831 60.8415 42.3558 60.9098C42.3497 60.9249 42.3489 60.9456 42.3349 60.9539C42.333 60.955 42.3327 60.9498 42.3326 60.9476C42.3309 60.9246 42.3326 60.9016 42.3326 60.8785C42.3326 60.8045 42.3332 60.7304 42.3326 60.6563C42.3325 60.645 42.3372 60.6137 42.3299 60.6225C42.3175 60.6375 42.3197 60.6602 42.3156 60.6793C42.3137 60.6885 42.2949 60.7805 42.2918 60.7917C42.282 60.8266 42.2806 60.8022 42.2787 60.7805C42.2765 60.7544 42.2752 60.6852 42.2722 60.6585C42.2714 60.6511 42.2738 60.635 42.2666 60.6368C42.258 60.6389 42.2599 60.6533 42.2579 60.662C42.253 60.6833 42.2498 60.7049 42.246 60.7264C42.2392 60.764 42.2293 60.8237 42.2217 60.8627C42.2213 60.8647 42.2119 60.9143 42.2158 60.8775C42.2212 60.8264 42.229 60.7749 42.2377 60.7243C42.2433 60.6916 42.2423 60.7903 42.2453 60.8232C42.2459 60.8295 42.2535 60.9627 42.2701 60.9623C42.2895 60.9619 42.313 60.811 42.3143 60.8048C42.3336 60.7121 42.3489 60.6185 42.3625 60.5248C42.3639 60.5152 42.3651 60.5056 42.3664 60.496C42.3668 60.4927 42.3646 60.4871 42.3677 60.4862C42.3707 60.4853 42.3678 60.4924 42.3679 60.4955C42.3681 60.5034 42.3683 60.5113 42.3686 60.5192C42.3716 60.6083 42.3776 60.6972 42.3809 60.7863C42.3821 60.8167 42.3816 60.9076 42.3855 60.8775C42.3893 60.8479 42.3867 60.8256 42.3825 60.793C42.37 60.6968 42.353 60.62 42.3306 60.5235C42.3103 60.436 42.289 60.3544 42.2648 60.2685C42.26 60.2514 42.2554 60.2343 42.2497 60.2175C42.2487 60.2148 42.2465 60.208 42.2449 60.2104C42.2341 60.2266 42.2467 60.2494 42.2494 60.2687C42.2623 60.3613 42.2817 60.4529 42.303 60.5439C42.3231 60.6293 42.3422 60.7184 42.3729 60.8009C42.3742 60.8044 42.3791 60.8131 42.3803 60.8095C42.3872 60.7895 42.385 60.7674 42.3855 60.7462C42.3881 60.6426 42.3852 60.5386 42.3764 60.4354C42.375 60.4194 42.3712 60.3851 42.3686 60.3668C42.3679 60.3625 42.3671 60.3581 42.3662 60.3538C42.3642 60.3448 42.3643 60.3501 42.3647 60.3562C42.3689 60.4228 42.3843 60.4891 42.397 60.5543C42.4101 60.6217 42.4175 60.6924 42.4341 60.759C42.4355 60.7647 42.4395 60.7812 42.4432 60.764C42.4483 60.7406 42.4463 60.7072 42.4447 60.6858C42.4354 60.5607 42.4031 60.4385 42.376 60.3165C42.3751 60.3125 42.3631 60.2577 42.3608 60.2479C42.3591 60.2409 42.3572 60.2212 42.3538 60.2275C42.3473 60.2396 42.3554 60.2551 42.3573 60.2687C42.3621 60.304 42.3716 60.3644 42.3773 60.3972C42.3892 60.4673 42.399 60.5416 42.4228 60.609C42.4348 60.6428 42.4349 60.5696 42.4348 60.5676C42.4289 60.4867 42.4068 60.4099 42.4068 60.3282C42.4068 60.3068 42.4068 60.2854 42.4068 60.264C42.4068 60.2482 42.4068 60.2324 42.4068 60.2167C42.4068 60.1879 42.4126 60.2328 42.415 60.2405C42.4246 60.2708 42.4356 60.3074 42.4545 60.3338C42.4918 60.386 42.5291 60.4526 42.5357 60.5166C42.5366 60.5255 42.5393 60.5316 42.5324 60.5194C42.5216 60.5 42.5105 60.4808 42.5007 60.4608C42.4777 60.4134 42.4636 60.3616 42.4389 60.3152C42.434 60.306 42.4215 60.2778 42.4241 60.2878C42.4343 60.326 42.4709 60.3601 42.4905 60.3942C42.5042 60.4179 42.5163 60.4418 42.527 60.4671C42.5306 60.4756 42.542 60.501 42.5378 60.4927C42.5279 60.4728 42.5188 60.452 42.5107 60.4313C42.4914 60.3817 42.4789 60.3275 42.4678 60.2755C42.4618 60.2476 42.4877 60.3112 42.4905 60.3174C42.5076 60.354 42.532 60.3902 42.5413 60.43C42.5524 60.4775 42.5697 60.5238 42.5795 60.5717C42.5958 60.6514 42.6014 60.732 42.6158 60.8119C42.626 60.8688 42.6255 60.9311 42.6255 60.9888C42.6255 60.9997 42.6284 61.0404 42.619 61.0075C42.596 60.9269 42.5806 60.8442 42.5615 60.7627C42.5501 60.7142 42.5369 60.6688 42.5161 60.6236C42.5117 60.614 42.5031 60.5855 42.501 60.5958C42.4982 60.6089 42.5004 60.6225 42.5003 60.6359C42.4996 60.7206 42.4984 60.8052 42.4975 60.8898C42.4971 60.9241 42.4995 61.0269 42.4966 60.9927C42.4914 60.9301 42.4859 60.8674 42.481 60.8048C42.4711 60.6794 42.4585 60.3023 42.4658 60.4278C42.4689 60.4806 42.4773 60.5331 42.4832 60.5856C42.492 60.6653 42.4972 60.7455 42.5077 60.8249C42.5084 60.8306 42.511 60.8473 42.5118 60.8417C42.5136 60.8281 42.5122 60.8143 42.5122 60.8006C42.5122 60.7325 42.5105 60.6641 42.5131 60.596C42.514 60.5716 42.5162 60.5473 42.5248 60.5244C42.5266 60.5195 42.5291 60.534 42.5296 60.5391C42.5374 60.6247 42.5391 60.7109 42.5391 60.7967C42.5391 60.8608 42.5373 60.9253 42.53 60.989C42.5237 61.0439 42.5306 60.9543 42.5309 60.945C42.5335 60.862 42.5377 60.7736 42.5201 60.6919C42.5079 60.6355 42.4917 60.5799 42.479 60.5235C42.4523 60.4043 42.4059 60.2941 42.366 60.18C42.3563 60.1523 42.3443 60.1136 42.3443 60.0838C42.3443 60.0802 42.3736 60.1065 42.3794 60.1095" stroke="#33D6EB" stroke-width="0.1" stroke-linecap="round"/>
<path d="M42.3848 59.6084C42.4143 59.6276 42.4274 59.6593 42.4586 59.6762C42.4758 59.6856 42.487 59.6895 42.5041 59.6973C42.5469 59.7167 42.5764 59.7621 42.6166 59.7845C42.6785 59.8188 42.7193 59.9108 42.7498 59.9717C42.7827 60.0376 42.815 60.1046 42.8412 60.1735C42.8593 60.2209 42.878 60.2664 42.891 60.3156C42.9124 60.3962 42.9223 60.4716 42.9335 60.5539C42.9478 60.6584 42.9413 60.7659 42.9413 60.8713C42.9413 60.9073 42.936 60.9431 42.9331 60.979C42.9283 61.0386 42.9054 60.9266 42.9026 60.9146" stroke="#33D6EB" stroke-width="0.1" stroke-linecap="round"/>
<path d="M42.4863 59.6162C42.5223 59.6242 42.5401 59.6764 42.5636 59.7012C42.589 59.7281 42.623 59.7499 42.6448 59.779C42.6938 59.8444 42.7667 59.9029 42.7878 59.9872" stroke="#33D6EB" stroke-width="0.1" stroke-linecap="round"/>
<path d="M42.6328 59.6626C42.636 59.694 42.684 59.7329 42.7101 59.7459C42.7363 59.759 42.7637 59.8012 42.7797 59.8266C42.8054 59.8675 42.8203 59.9168 42.8355 59.9623C42.8516 60.0107 42.8616 60.077 42.8879 60.1203C42.9191 60.1717 42.9408 60.2495 42.9557 60.3076C42.9862 60.4264 43.003 60.5469 43.0253 60.6674C43.0401 60.7473 43.0347 60.8294 43.0347 60.9104C43.0347 60.9451 43.0347 60.9797 43.0347 61.0143C43.0347 61.0745 43.0347 61.0215 43.0347 60.9843" stroke="#33D6EB" stroke-width="0.1" stroke-linecap="round"/>
<path d="M42.6094 59.6626C42.6358 59.6748 42.6661 59.7124 42.6884 59.7339C42.7104 59.7551 42.727 59.7822 42.7502 59.8017C42.8075 59.8499 42.8448 59.912 42.8704 59.9812C42.9127 60.0953 42.9389 60.2154 42.9726 60.3333C42.9924 60.4023 42.9987 60.4756 43.019 60.5454C43.042 60.6245 43.0654 60.7003 43.0654 60.7833C43.0654 60.8477 43.0654 60.9121 43.0654 60.9766C43.0654 61.0069 43.0654 61.0372 43.0654 61.0676C43.0654 61.0729 43.0682 61.0966 43.0577 61.0856C43.0218 61.0482 42.9987 60.9975 42.9726 60.9534" stroke="#33D6EB" stroke-width="0.1" stroke-linecap="round"/>
<path d="M42.3379 59.7166C42.5153 59.9341 42.6719 60.1818 42.8068 60.4276C42.8843 60.5688 42.9403 60.7131 42.9777 60.8695C42.9777 60.8695 43.0077 60.9644 42.9798 60.9348C42.9464 60.8991 42.9247 60.846 42.9047 60.8029C42.8459 60.6764 42.7939 60.546 42.7467 60.4148C42.6976 60.2784 42.6552 60.1387 42.6161 59.9991C42.6056 59.9613 42.5815 59.8029 42.6157 59.951C42.663 60.1561 42.6983 60.3644 42.7329 60.5719C42.7498 60.6732 42.7666 60.7832 42.781 60.8862C42.7841 60.9085 42.7986 60.9734 42.7888 60.9532C42.7335 60.8393 42.7014 60.6789 42.6655 60.5625C42.6174 60.406 42.595 60.3323 42.5509 60.185C42.5413 60.1532 42.5355 60.1199 42.5217 60.0897C42.5109 60.0661 42.5278 60.1413 42.5337 60.1666C42.5611 60.2845 42.5932 60.4014 42.6247 60.5182C42.6578 60.6408 42.6921 60.763 42.7261 60.8854C42.7333 60.9114 42.74 60.9376 42.7475 60.9635C42.7491 60.9688 42.748 60.979 42.7535 60.979C42.7763 60.979 42.7455 60.9343 42.7411 60.912C42.7089 60.7508 42.6905 60.5887 42.6805 60.4246C42.6735 60.3081 42.671 60.1914 42.6702 60.0747C42.6701 60.05 42.6695 59.9768 42.6754 60.0008C42.7254 60.2039 42.7684 60.4101 42.8068 60.6157C42.8207 60.6903 42.8329 60.7651 42.8429 60.8403C42.8431 60.8423 42.8552 60.9042 42.8347 60.8703C42.7246 60.6885 42.763 60.4448 42.763 60.2439C42.763 60.2277 42.7672 60.2203 42.7789 60.24C42.849 60.3585 42.8883 60.4922 42.9322 60.6217C42.953 60.6834 42.9199 60.5486 42.9176 60.5401C42.8972 60.4649 42.8742 60.3914 42.86 60.3147C42.8517 60.2697 42.8557 60.3262 42.8557 60.3387C42.8557 60.4124 42.8502 60.3464 42.8334 60.3108C42.7892 60.2171 42.7102 60.1193 42.6823 60.024C42.6732 59.9929 42.6548 59.9649 42.6548 59.9325C42.6548 59.9209 42.6548 59.8862 42.6548 59.8978C42.6548 59.9536 42.6412 60.0092 42.6277 60.0631C42.6082 60.1413 42.5904 60.2198 42.5706 60.298C42.5694 60.3028 42.5603 60.3695 42.5526 60.3752C42.5422 60.383 42.5487 60.3496 42.5483 60.3366C42.5469 60.2957 42.5474 60.2364 42.5483 60.1975C42.55 60.1221 42.5529 60.0466 42.5616 59.9716C42.5636 59.9549 42.5668 59.9086 42.5753 59.9231C42.6409 60.034 42.6615 60.181 42.6934 60.304" stroke="#33D6EB" stroke-width="0.1" stroke-linecap="round"/>
<path d="M42.6016 59.6316C42.6744 59.6316 42.7267 59.7056 42.775 59.7471C42.7919 59.7615 42.7879 59.7974 42.8064 59.8098C42.8319 59.8268 42.8457 59.9065 42.8566 59.9347C42.8707 59.9712 42.8746 60.024 42.9013 60.0507C42.9266 60.076 42.9452 60.1248 42.961 60.1563C43.0007 60.2357 43.0117 60.3354 43.0404 60.4182C43.05 60.446 43.0592 60.4781 43.0636 60.5067C43.0667 60.5269 43.0672 60.5906 43.0851 60.6059C43.1035 60.6217 43.1133 60.6604 43.1229 60.6823C43.1338 60.7074 43.1349 60.7237 43.1349 60.7523C43.1349 60.7956 43.1581 60.8321 43.1581 60.8721C43.1581 60.8928 43.1528 60.9214 43.1585 60.9413C43.1634 60.9586 43.1805 61.0072 43.1503 60.9997" stroke="#33D6EB" stroke-width="0.1" stroke-linecap="round"/>
<path d="M42.6016 59.6316C42.6532 59.6603 42.7147 59.7181 42.7424 59.7707C42.7615 59.8071 42.7882 59.8382 42.8068 59.8755C42.8178 59.8975 42.835 59.9346 42.8528 59.9524C42.9234 60.023 42.9251 60.1356 42.976 60.2156C43.0111 60.2708 43.0178 60.3495 43.0404 60.4105C43.0823 60.5237 43.1426 60.6404 43.1426 60.7639C43.1426 60.8033 43.1497 60.8749 43.1697 60.9108C43.1822 60.9334 43.1812 60.9627 43.1812 60.9881C43.1812 61.0098 43.1916 61.0525 43.1658 61.046" stroke="#33D6EB" stroke-width="0.1" stroke-linecap="round"/>
<path d="M42.6328 59.6562C42.6403 59.6571 42.6574 59.6732 42.6658 59.6775C42.6795 59.6845 42.6915 59.6971 42.7051 59.7031C42.7233 59.7112 42.7372 59.7316 42.7509 59.7452C42.7663 59.7606 42.7844 59.7798 42.7949 59.7988C42.8014 59.8106 42.8063 59.8225 42.8127 59.8342C42.8161 59.8404 42.8205 59.8464 42.8242 59.8524C42.8334 59.8674 42.8281 59.8454 42.8281 59.8359" stroke="#33D6EB" stroke-width="0.1" stroke-linecap="round"/>
<path d="M42.6719 59.6406C42.6994 59.6709 42.7175 59.7088 42.748 59.7361C42.772 59.7575 42.7903 59.783 42.8066 59.8103C42.8281 59.8461 42.8614 59.8767 42.8789 59.916C42.8859 59.9317 42.9062 59.9618 42.9062 59.9785C42.9062 60.0005 42.9246 60.0193 42.9258 60.0412C42.9268 60.0597 42.9375 60.0766 42.9375 60.0957C42.9375 60.1036 42.9474 60.1162 42.9501 60.125C42.9542 60.1386 42.9631 60.1578 42.9709 60.1701C42.9853 60.1928 42.9926 60.2216 43.0039 60.2461C43.0119 60.2635 43.014 60.2925 43.0293 60.3047C43.0345 60.3089 43.0337 60.3188 43.0371 60.3242C43.0439 60.335 43.0485 60.3494 43.0532 60.3611C43.0654 60.392 43.0849 60.4279 43.0898 60.4609C43.095 60.4958 43.1039 60.5302 43.1148 60.564C43.1185 60.5754 43.1289 60.5911 43.1289 60.6035C43.1289 60.6078 43.128 60.6132 43.1298 60.6172C43.1401 60.6403 43.1484 60.6629 43.1484 60.6884C43.1484 60.7093 43.1511 60.7388 43.1571 60.7591C43.1619 60.7751 43.16 60.7935 43.1649 60.8095C43.172 60.8326 43.1758 60.8662 43.1758 60.8898C43.1758 60.9085 43.1914 60.9233 43.1914 60.9414C43.1914 60.9586 43.2108 60.9882 43.1836 60.9727" stroke="#33D6EB" stroke-width="0.1" stroke-linecap="round"/>
<path d="M42.8438 59.9207C42.861 59.9437 42.8681 59.979 42.8884 59.9994C42.9048 60.0158 42.9205 60.0401 42.931 60.061C42.9391 60.0772 42.9453 60.0961 42.9543 60.1111C42.9643 60.1281 42.9674 60.1467 42.9756 60.1631" stroke="#33D6EB" stroke-width="0.1" stroke-linecap="round"/>
<path d="M42.8672 59.9883C42.8958 59.9915 42.9202 60.043 42.9375 60.0625C42.9515 60.0782 42.9727 60.1121 42.9727 60.1328" stroke="#33D6EB" stroke-width="0.1" stroke-linecap="round"/>
<path d="M42.875 59.9805C42.8768 59.9878 42.8971 59.9937 42.9026 60.002C42.9084 60.0107 42.9234 60.0183 42.9316 60.0256C42.9524 60.0442 42.9698 60.0706 42.9766 60.0977" stroke="#33D6EB" stroke-width="0.1" stroke-linecap="round"/>
<path d="M42.8711 59.918C42.8984 59.9358 42.9135 59.9641 42.9275 59.9922C42.9378 60.0127 42.9492 60.0355 42.9492 60.0586" stroke="#33D6EB" stroke-width="0.1" stroke-linecap="round"/>
</svg>
