<svg width="779" height="131" viewBox="0 0 779 131" fill="none" xmlns="http://www.w3.org/2000/svg">
<g clip-path="url(#clip0_3544_622)">
<path d="M25.3868 34.0868H4.67578V115.628H25.3868V34.0868Z" fill="#2DE1D5"/>
<path d="M29.3945 15.3724V14.7041C29.3945 12.4893 27.5998 10.6938 25.386 10.6938L4.00688 10.6938C1.793 10.6938 -0.00169563 12.4893 -0.00169563 14.7041V15.3724C-0.00169563 17.5872 1.793 19.3826 4.00688 19.3826H25.386C27.5998 19.3826 29.3945 17.5872 29.3945 15.3724Z" fill="#4B8BEF"/>
<path d="M25.3867 62.1582L38.7486 78.199H25.3867V62.1582Z" fill="#2DE1D5"/>
<path d="M30.0625 60.1531H55.3537L102.217 115.628H75.4382L30.0625 60.1531Z" fill="#4B8BEF"/>
<path d="M32.7383 5.99183C97.7267 -4.33918 114.712 48.813 74.833 76.8623L62.2786 60.6211C91.0804 31.096 65.2326 25.1859 32.7383 25.1859V5.99183Z" fill="#4B8BEF"/>
<path d="M15.3681 0H14.7C12.4861 0 10.6914 1.79543 10.6914 4.0102V25.398C10.6914 27.6127 12.4861 29.4082 14.7 29.4082H15.3681C17.582 29.4082 19.3767 27.6127 19.3767 25.398V4.0102C19.3767 1.79543 17.582 0 15.3681 0Z" fill="#2DE1D5"/>
<path d="M153.896 114.291H141.496C141.154 113.179 140.812 111.724 140.641 110.013C136.964 113.778 132.175 115.574 126.36 115.574C121.486 115.574 117.637 114.462 114.815 112.067C112.079 109.671 110.625 106.42 110.625 102.228C110.625 100.346 110.882 98.7206 111.395 97.2662C111.908 95.8974 112.677 94.6997 113.789 93.6731C114.901 92.732 115.927 91.962 116.953 91.2776C117.979 90.6788 119.348 90.1655 121.058 89.7377C122.854 89.3955 124.308 89.0533 125.334 88.8822C126.446 88.7111 127.985 88.4545 129.952 88.1978C134.227 87.6845 137.05 87.0856 138.503 86.4012C139.957 85.8024 140.727 84.6047 140.727 82.8936C140.727 78.9583 138.076 76.9906 132.774 76.9906C129.952 76.9906 127.899 77.5039 126.617 78.5305C125.248 79.5572 124.393 81.2682 124.051 83.7492H112.677C113.362 73.8252 120.117 68.8633 133.116 68.8633C145.943 68.8633 152.357 73.6541 152.357 83.2358V102.314C152.357 107.96 152.87 111.895 153.896 114.291ZM140.556 92.8176C139.187 93.6731 136.28 94.5286 132.004 95.213C128.412 95.7263 126.103 96.4963 124.992 97.3518C123.795 98.3784 123.11 99.9183 123.11 101.8C123.11 103.597 123.709 105.051 124.906 106.078C126.103 107.105 127.728 107.618 129.781 107.618C133.03 107.618 135.681 106.762 137.648 105.051C139.615 103.34 140.556 100.859 140.556 97.7795V92.8176ZM204.968 114.291H193.423V108.645C190.516 113.264 186.069 115.489 180.083 115.489C174.011 115.489 169.137 113.435 165.545 109.158C161.953 104.88 160.158 99.2339 160.158 92.0476C160.158 85.118 161.868 79.5572 165.374 75.3652C168.88 71.0876 173.584 69.0344 179.484 69.0344C182.221 69.0344 184.786 69.5477 187.181 70.7454C189.575 71.8576 191.542 73.483 192.91 75.6218V53.3785H204.968V114.291ZM193.252 92.1332C193.252 87.8556 192.397 84.6047 190.516 82.2092C188.635 79.8138 186.069 78.6161 182.819 78.6161C179.484 78.6161 176.919 79.8138 175.123 82.2092C173.242 84.6047 172.386 87.8556 172.386 92.1332C172.386 96.4107 173.242 99.7472 175.123 102.143C177.004 104.538 179.57 105.821 182.819 105.821C186.155 105.821 188.72 104.624 190.516 102.228C192.397 99.8327 193.252 96.4963 193.252 92.1332ZM226.717 70.1465V114.291H214.574V70.1465H226.717Z" fill="#4B8BEF"/>
<path d="M274.789 53.3785V114.291H261.363V53.3785H274.789ZM326.862 114.291H314.548V88.5399C314.548 85.4601 314.035 83.0647 313.008 81.4392C311.982 79.8137 309.93 78.9582 307.022 78.9582C300.609 78.9582 297.444 82.8936 297.444 90.5932V114.291H285.387V70.1465H296.931V76.3062C300.523 71.4297 305.397 68.9488 311.555 68.9488C316.258 68.9488 320.021 70.3176 322.757 73.0552C325.494 75.7928 326.862 79.7282 326.862 84.7757V114.291ZM373.278 82.9791L361.904 83.0647C361.562 80.8404 360.793 79.2149 359.424 78.3594C358.056 77.4183 356.089 76.9906 353.524 76.9906C351.386 76.9906 349.676 77.3328 348.478 78.1027C347.281 78.8727 346.682 79.9848 346.682 81.3537C346.682 82.8936 347.367 84.0057 348.735 84.6902C350.103 85.289 352.583 85.9734 356.089 86.7434C356.773 86.8289 357.201 86.9145 357.458 87C359.51 87.3422 361.22 87.6844 362.417 88.0266C363.615 88.3688 365.154 88.8821 366.864 89.5666C368.66 90.251 370.028 91.1065 370.969 91.962C371.995 92.8175 372.85 94.0152 373.535 95.4696C374.304 97.0095 374.646 98.7205 374.646 100.603C374.646 105.222 372.85 108.901 369.259 111.553C365.667 114.291 360.793 115.574 354.464 115.574C348.478 115.574 343.604 114.291 339.67 111.724C335.822 109.158 333.855 105.222 333.77 99.9182H345.314C345.742 104.88 348.906 107.276 354.721 107.276C357.201 107.276 359.168 106.848 360.622 105.821C362.075 104.795 362.76 103.511 362.76 101.8C362.76 100.175 362.161 98.9772 360.793 98.2928C359.51 97.6084 357.115 96.9239 353.524 96.0684C353.267 96.0684 353.011 95.9829 352.84 95.8973C352.498 95.8118 351.557 95.6407 350.189 95.2985C348.82 95.0418 347.88 94.8707 347.367 94.6996C346.854 94.5285 345.913 94.2719 344.716 93.9297C343.518 93.5875 342.578 93.3308 341.979 92.9886C341.466 92.6464 340.696 92.3042 339.756 91.7909C338.815 91.2776 338.131 90.7643 337.618 90.1654C337.19 89.6521 336.677 88.9677 336.164 88.1978C335.651 87.4278 335.223 86.5723 335.052 85.5457C334.881 84.6046 334.796 83.578 334.796 82.3803C334.796 78.1027 336.421 74.7662 339.841 72.3708C343.176 70.0609 347.965 68.8632 354.122 68.8632C359.595 68.8632 364.128 70.0609 367.72 72.2853C371.226 74.5951 373.107 78.1883 373.278 82.9791ZM394.41 53.3785V63.6446H382.267V53.3785H394.41ZM394.41 70.1465V114.291H382.267V70.1465H394.41ZM446.302 70.1465V109.757C446.302 116.943 444.506 122.247 440.915 125.669C437.323 129.091 431.85 130.802 424.581 130.802C411.925 130.802 405.083 126.182 403.886 117.028H415.944C416.372 118.996 417.312 120.45 418.766 121.306C420.134 122.161 422.187 122.675 424.838 122.675C428.6 122.675 431.166 121.734 432.534 119.852C433.817 117.97 434.501 115.146 434.587 111.211L434.672 106.249C431.337 110.783 426.805 113.093 421.161 113.093C415.345 113.093 410.813 111.125 407.392 107.19C403.972 103.255 402.347 97.9506 402.347 91.3631C402.347 84.6046 404.057 79.2149 407.649 75.1084C411.155 71.002 415.859 68.9488 421.674 68.9488C424.752 68.9488 427.232 69.5476 429.285 70.6598C431.337 71.7719 433.133 73.5685 434.843 76.0495V70.1465H446.302ZM424.496 78.4449C421.246 78.4449 418.766 79.5571 416.97 81.7814C415.174 84.0057 414.234 87.1711 414.234 91.2776C414.234 95.1274 415.174 98.2072 417.056 100.517C418.937 102.827 421.417 104.025 424.496 104.025C427.66 104.025 430.14 102.827 431.936 100.517C433.817 98.1217 434.672 94.9563 434.672 91.0209C434.672 87.0856 433.817 84.0057 431.936 81.7814C430.14 79.5571 427.66 78.4449 424.496 78.4449ZM468.308 53.3785V76.1351C471.729 71.4297 476.432 69.1199 482.247 69.1199C492.509 69.1199 497.726 74.5096 497.726 85.4601V114.376H485.582V88.3688C485.582 85.289 484.984 82.9791 483.958 81.4392C482.846 79.8137 480.793 79.0438 477.8 79.0438C474.123 79.0438 471.643 80.1559 470.275 82.5514C468.907 84.8613 468.308 87.9411 468.308 91.7909V114.291H456.336V53.3785H468.308ZM531.229 70.1465V78.4449H522.249V99.2338C522.249 100.517 522.249 101.458 522.335 102.057C522.335 102.656 522.592 103.255 522.934 103.939C523.276 104.538 523.789 104.966 524.473 105.137C525.157 105.308 526.183 105.394 527.551 105.394C529.005 105.394 530.202 105.394 531.229 105.222V114.462C528.236 114.719 525.756 114.804 523.874 114.804C518.572 114.804 514.895 113.949 513.014 112.066C511.132 110.184 510.192 106.591 510.192 101.287V78.3594H502.837V70.1465H510.192V56.8005H522.249V70.1465H531.229ZM607.157 71.5153L594.415 71.6008C593.902 65.5267 590.054 62.5324 582.87 62.5324C579.792 62.5324 577.397 63.1313 575.687 64.329C573.977 65.5267 573.036 67.2377 573.036 69.4621C573.036 70.1465 573.207 70.8309 573.378 71.4297C573.635 71.9431 574.062 72.4564 574.661 72.9697C575.345 73.483 575.944 73.8252 576.542 74.1674C577.226 74.5096 578.167 74.8518 579.364 75.194C580.562 75.5362 581.673 75.8784 582.699 76.2206C583.726 76.4773 585.094 76.8195 586.89 77.3328C588.771 77.7605 590.31 78.1883 591.679 78.616C597.665 80.3271 602.197 82.4658 605.105 85.0324C608.012 87.5989 609.466 91.2776 609.466 96.0684C609.466 99.4905 608.782 102.57 607.328 105.137C605.96 107.703 603.993 109.757 601.599 111.297C599.204 112.836 596.553 113.949 593.646 114.633C590.738 115.317 587.659 115.745 584.41 115.745C576.2 115.745 569.701 113.778 565.083 110.013C560.465 106.249 558.071 100.859 557.985 94.0152H571.24C571.497 101.629 576.115 105.479 585.008 105.479C588.515 105.479 591.251 104.709 593.303 103.255C595.356 101.8 596.297 99.8327 596.297 97.3517C596.297 95.2129 595.441 93.673 593.56 92.7319C591.679 91.7053 587.83 90.4221 581.844 88.711C581.502 88.6255 581.246 88.5399 581.075 88.5399C580.904 88.4544 580.733 88.3688 580.391 88.2833C580.134 88.1977 579.877 88.1122 579.621 88.1122C577.568 87.5133 576.2 87.0856 575.345 86.8289C574.575 86.5723 573.293 86.1445 571.582 85.5457C569.872 84.8613 568.589 84.3479 567.82 83.8346C566.964 83.3213 566.024 82.5514 564.827 81.6959C563.629 80.7548 562.86 79.8137 562.347 78.7871C561.833 77.7605 561.32 76.5628 560.893 75.1084C560.465 73.6541 560.294 72.1142 560.294 70.4031C560.294 64.8423 562.432 60.3937 566.708 57.0572C570.984 53.8062 576.628 52.0952 583.726 52.0952C590.567 52.0952 596.126 53.7207 600.487 56.9716C604.763 60.2226 606.986 65.0134 607.157 71.5153ZM658.417 97.2662C657.647 102.998 655.424 107.447 651.661 110.698C647.898 113.863 643.109 115.489 637.294 115.489C630.453 115.489 625.065 113.35 620.961 109.243C616.856 105.051 614.803 99.4905 614.803 92.5609C614.803 85.4601 616.856 79.7282 620.961 75.3651C625.065 71.0875 630.624 68.8632 637.465 68.8632C643.28 68.8632 648.069 70.4031 651.832 73.3974C655.509 76.3917 657.647 80.4126 658.16 85.5457H646.273C645.333 80.4981 642.425 77.9316 637.551 77.9316C634.216 77.9316 631.65 79.2149 629.769 81.7814C627.887 84.3479 627.032 87.8555 627.032 92.3897C627.032 96.7528 627.887 100.175 629.683 102.57C631.479 104.966 634.045 106.163 637.294 106.163C642.596 106.163 645.675 103.255 646.701 97.2662H658.417ZM706.498 114.291H694.098C693.757 113.179 693.41 111.724 693.243 110.013C689.561 113.778 684.778 115.574 678.959 115.574C674.088 115.574 670.24 114.462 667.415 112.066C664.678 109.671 663.224 106.42 663.224 102.228C663.224 100.346 663.481 98.7205 663.994 97.2662C664.507 95.8973 665.277 94.6996 666.389 93.673C667.5 92.7319 668.53 91.962 669.552 91.2776C670.581 90.6787 671.95 90.1654 673.661 89.7377C675.451 89.3955 676.908 89.0532 677.937 88.8821C679.046 88.711 680.582 88.4544 682.553 88.1978C686.829 87.6844 689.648 87.0856 691.105 86.4012C692.554 85.8023 693.329 84.6046 693.329 82.8936C693.329 78.9582 690.677 76.9906 685.372 76.9906C682.553 76.9906 680.502 77.5039 679.219 78.5305C677.85 79.5571 676.995 81.2681 676.654 83.7491H665.277C665.961 73.8252 672.719 68.8632 685.713 68.8632C698.541 68.8632 704.954 73.6541 704.954 83.2358V102.314C704.954 107.96 705.469 111.895 706.498 114.291ZM693.156 92.8175C691.786 93.673 688.88 94.5285 684.604 95.2129C681.01 95.7262 678.705 96.4962 677.589 97.3517C676.393 98.3783 675.712 99.9182 675.712 101.8C675.712 103.597 676.306 105.051 677.509 106.078C678.705 107.105 680.328 107.618 682.379 107.618C685.633 107.618 688.279 106.762 690.25 105.051C692.214 103.34 693.156 100.859 693.156 97.7795V92.8175ZM756.117 114.291H743.797V88.5399C743.797 85.4601 743.29 83.0647 742.261 81.4392C741.232 79.8137 739.181 78.9582 736.275 78.9582C729.861 78.9582 726.694 82.8936 726.694 90.5932V114.291H714.642V70.1465H726.186V76.3062C729.774 71.4297 734.651 68.9488 740.804 68.9488C745.508 68.9488 749.276 70.3176 752.008 73.0552C754.747 75.7928 756.117 79.7282 756.117 84.7757V114.291Z" fill="#2DE1D5"/>
<mask id="mask0_3544_622" style="mask-type:luminance" maskUnits="userSpaceOnUse" x="750" y="35" width="29" height="29">
<path d="M779.001 35.4235H750.941V63.4949H779.001V35.4235Z" fill="white"/>
</mask>
<g mask="url(#mask0_3544_622)">
<path d="M762.401 45.2952H758.973V54.1377H756.635V45.2952H753.281V43.611H762.401V45.2952ZM766.723 43.611L769.65 51.2136L772.469 43.611H775.495V54.1377H773.157V51.2136L773.411 46.231L770.384 54.1377H768.808L765.788 46.2427L766.022 51.2136V54.1377H763.683V43.611H766.723Z" fill="black"/>
</g>
<path d="M225.95 61.9497C224.985 62.9146 223.759 63.5765 222.423 63.8539C221.087 64.1312 219.699 64.012 218.43 63.511C217.16 63.0099 216.065 62.1487 215.279 61.0335C214.493 59.9182 214.049 58.5974 214.004 57.2336C213.958 55.8698 214.312 54.5224 215.023 53.3572C215.733 52.1919 216.768 51.2597 218.001 50.675C219.234 50.0904 220.611 49.8789 221.962 50.0665C223.314 50.2541 224.581 50.8327 225.609 51.7311L223.935 53.6443C223.281 53.0721 222.474 52.7036 221.613 52.5841C220.752 52.4646 219.875 52.5993 219.09 52.9717C218.305 53.344 217.645 53.9378 217.193 54.6799C216.741 55.422 216.515 56.2802 216.544 57.1488C216.573 58.0174 216.855 58.8586 217.356 59.5689C217.857 60.2792 218.555 60.8276 219.363 61.1468C220.171 61.4659 221.055 61.5418 221.906 61.3652C222.757 61.1885 223.538 60.767 224.152 60.1525L225.95 61.9497Z" fill="#4B8BEF"/>
<circle cx="221.043" cy="57.0469" r="1.53125" fill="#4B8BEF"/>
</g>
<defs>
<clipPath id="clip0_3544_622">
<rect width="779" height="131" fill="white"/>
</clipPath>
</defs>
</svg>
