<svg width="287" height="179" viewBox="0 0 287 179" fill="none" xmlns="http://www.w3.org/2000/svg">
<g filter="url(#filter0_dd_2870_1622)">
<mask id="path-1-outside-1_2870_1622" maskUnits="userSpaceOnUse" x="30" y="30" width="227" height="119" fill="black">
<rect fill="white" x="30" y="30" width="227" height="119"/>
<path d="M30 62C30 44.3269 44.3269 30 62 30H222.4C240.074 30 254.4 44.3269 254.4 62V115C254.4 132.673 240.074 147 222.4 147H62C44.3269 147 30 132.673 30 115V62Z"/>
</mask>
<path d="M30 62C30 44.3269 44.3269 30 62 30H222.4C240.074 30 254.4 44.3269 254.4 62V115C254.4 132.673 240.074 147 222.4 147H62C44.3269 147 30 132.673 30 115V62Z" fill="white"/>
<path d="M30 30H254.4H30ZM256.4 115C256.4 133.778 241.178 149 222.4 149H64C45.2223 149 30 133.778 30 115C30 131.569 44.3269 145 62 145H222.4C238.969 145 252.4 131.569 252.4 115H256.4ZM30 147V30V147ZM222.4 30C241.178 30 256.4 45.2223 256.4 64V115C256.4 133.778 241.178 149 222.4 149V145C238.969 145 252.4 131.569 252.4 115V62C252.4 44.3269 238.969 30 222.4 30Z" fill="url(#paint0_linear_2870_1622)" mask="url(#path-1-outside-1_2870_1622)"/>
</g>
<path d="M96.8275 64C97.9129 66.5619 99.1214 67.7813 102.581 69.7432C99.8004 70.7299 98.4944 71.9264 96.8275 75.4865C95.2365 72.0859 94.0636 71.1143 91.0742 69.7432C94.2522 68.5004 95.4602 67.1357 96.8275 64Z" fill="#7D89F6"/>
<path d="M101.565 72.1074C102.012 73.1624 102.51 73.6644 103.934 74.4723C102.789 74.8786 102.252 75.3713 101.565 76.8372C100.91 75.4369 100.427 75.0368 99.1963 74.4723C100.505 73.9605 101.002 73.3986 101.565 72.1074Z" fill="#BA4AE6"/>
<path d="M116.188 99.135V84.0215H118.744V90.5729H126.26V84.0215H128.816V99.135H126.26V92.9513H118.744V99.135H116.188ZM134.13 103.719C133.076 103.719 132.123 103.337 131.271 102.573L132.375 100.605C132.881 101.081 133.401 101.319 133.935 101.319C134.484 101.319 134.924 101.124 135.256 100.735C135.603 100.346 135.776 99.9206 135.776 99.4594C135.776 99.2575 134.224 95.3152 131.119 87.6323H133.718L137.162 96.108L140.606 87.6323H143.205L137.617 101.297C137.285 102.047 136.808 102.638 136.188 103.07C135.567 103.503 134.881 103.719 134.13 103.719ZM151.289 87.4594C152.834 87.4594 154.155 87.9927 155.253 89.0594C156.35 90.1261 156.899 91.5458 156.899 93.3188C156.899 95.0918 156.35 96.5332 155.253 97.6431C154.17 98.7531 152.899 99.308 151.44 99.308C149.997 99.308 148.697 98.6738 147.542 97.4053V103.33H145.116V87.6323H147.542V89.6431C148.495 88.1873 149.744 87.4594 151.289 87.4594ZM147.498 93.4053C147.498 94.5008 147.831 95.4017 148.495 96.108C149.159 96.7999 149.968 97.1459 150.921 97.1459C151.874 97.1459 152.704 96.7999 153.411 96.108C154.119 95.4161 154.473 94.5224 154.473 93.4269C154.473 92.317 154.126 91.4017 153.433 90.681C152.74 89.9458 151.91 89.5783 150.942 89.5783C149.975 89.5783 149.159 89.9458 148.495 90.681C147.831 91.4017 147.498 92.3098 147.498 93.4053ZM170.39 94.4431H161.358C161.415 95.2792 161.798 95.9567 162.506 96.4756C163.213 96.9801 164.022 97.2323 164.932 97.2323C166.375 97.2323 167.473 96.7783 168.224 95.8702L169.61 97.3837C168.368 98.6666 166.751 99.308 164.758 99.308C163.141 99.308 161.762 98.7747 160.621 97.708C159.495 96.6269 158.932 95.1855 158.932 93.3837C158.932 91.5675 159.509 90.1261 160.665 89.0594C161.82 87.9927 163.177 87.4594 164.737 87.4594C166.31 87.4594 167.646 87.935 168.744 88.8864C169.841 89.8234 170.39 91.1206 170.39 92.7783V94.4431ZM161.358 92.5404H167.964C167.964 91.5747 167.661 90.8323 167.054 90.3134C166.448 89.7945 165.697 89.535 164.802 89.535C163.921 89.535 163.126 89.8089 162.419 90.3567C161.712 90.89 161.358 91.6179 161.358 92.5404ZM179.1 89.9026C177.902 89.9026 176.999 90.2918 176.393 91.0702C175.786 91.8486 175.483 92.8936 175.483 94.2053V99.135H173.057V87.6323H175.483V89.9459C175.873 89.2251 176.4 88.6342 177.064 88.1729C177.743 87.7116 178.458 87.4738 179.209 87.4594L179.23 89.9026C179.187 89.9026 179.144 89.9026 179.1 89.9026ZM184.569 86.3999V90.5513H191.283V92.908H184.569V99.135H182.013V84.0215H192.106L192.084 86.3999H184.569ZM197.164 99.135H194.738V83.0918H197.164V99.135Z" fill="#342F39"/>
<path fill-rule="evenodd" clip-rule="evenodd" d="M90.8156 82.0332C93.7042 81.3971 96.3014 81.5335 97.8921 81.7402C97.9429 81.7468 97.9969 81.7693 98.0553 81.8432C98.1197 81.9247 98.1812 82.0655 98.1812 82.253V104.484C98.1812 104.968 97.7646 105.344 97.3314 105.33C95.2693 105.262 92.2394 105.324 89.3807 106.013C87.4164 106.487 85.8456 107.278 84.644 108.092V85.7328C84.644 85.327 84.7368 85.1212 84.8039 85.0346C85.0134 84.7649 85.6547 84.189 86.7589 83.5671C87.8249 82.9667 89.2128 82.3862 90.8156 82.0332ZM98.3289 78.3901C96.485 78.1505 93.4717 77.9887 90.0866 78.7341C88.1321 79.1646 86.4311 79.8727 85.0961 80.6247C83.7989 81.3553 82.7266 82.1955 82.1295 82.9645C81.4422 83.8494 81.2598 84.8882 81.2598 85.7328V111.973C81.2598 112.718 81.7488 113.375 82.4632 113.59C83.1743 113.804 83.9417 113.531 84.3559 112.916L84.359 112.912L84.3571 112.914L84.3559 112.916C84.3559 112.916 84.3581 112.913 84.3601 112.91C84.3673 112.9 84.3826 112.879 84.4057 112.848C84.4518 112.786 84.5297 112.687 84.6396 112.559C84.8602 112.303 85.2073 111.936 85.6869 111.534C86.6448 110.73 88.1212 109.793 90.1757 109.297C92.6052 108.711 95.2875 108.643 97.2199 108.706C99.5546 108.783 101.565 106.888 101.565 104.484V82.253C101.565 80.4687 100.372 78.6555 98.3289 78.3901Z" fill="#7D89F6"/>
<path fill-rule="evenodd" clip-rule="evenodd" d="M75.0881 82.0332C72.1996 81.3971 69.6024 81.5335 68.0116 81.7402C67.961 81.7468 67.9068 81.7693 67.8485 81.8432C67.7842 81.9247 67.7227 82.0655 67.7227 82.253V104.484C67.7227 104.968 68.1392 105.344 68.5725 105.33C70.6344 105.262 73.6645 105.324 76.5231 106.013C78.4874 106.487 80.0582 107.278 81.2598 108.092V85.7328C81.2598 85.327 81.167 85.1212 81.0999 85.0346C80.8904 84.7649 80.2491 84.189 79.1449 83.5671C78.0789 82.9667 76.6909 82.3862 75.0881 82.0332ZM67.5749 78.3901C69.4189 78.1505 72.4321 77.9887 75.8172 78.7341C77.7718 79.1646 79.4727 79.8727 80.8078 80.6247C82.105 81.3553 83.1772 82.1955 83.7743 82.9645C84.4616 83.8494 84.6441 84.8882 84.6441 85.7328V111.973C84.6441 112.718 84.155 113.375 83.4406 113.59C82.7296 113.804 81.9621 113.531 81.5479 112.916L81.5449 112.912L81.5468 112.914L81.5479 112.916C81.5479 112.916 81.5457 112.913 81.5437 112.91C81.5365 112.9 81.5212 112.879 81.4982 112.848C81.452 112.786 81.3742 112.687 81.2642 112.559C81.0437 112.303 80.6965 111.936 80.2169 111.534C79.259 110.73 77.7826 109.793 75.7282 109.297C73.2986 108.711 70.6164 108.643 68.6839 108.706C66.3492 108.783 64.3384 106.888 64.3384 104.484V82.253C64.3384 80.4687 65.5321 78.6555 67.5749 78.3901Z" fill="#7D89F6"/>
<path d="M75.9294 90.3516H72.1221" stroke="#BA4AE6" stroke-width="3.75" stroke-linecap="round" stroke-linejoin="round"/>
<path d="M77.1985 95.418H72.1221" stroke="#BA4AE6" stroke-width="3.75" stroke-linecap="round" stroke-linejoin="round"/>
<path d="M199.899 89.1447C200.729 88.391 201.76 87.8957 202.868 87.7198C203.975 87.5439 205.11 87.6949 206.133 88.1544C207.156 88.6139 208.022 89.3618 208.624 90.306C209.227 91.2503 209.54 92.3498 209.525 93.4693C209.509 94.5887 209.167 95.6794 208.539 96.6071C207.911 97.5347 207.025 98.259 205.99 98.6907C204.955 99.1224 203.817 99.2428 202.714 99.0371C201.612 98.8314 200.594 98.3085 199.786 97.5326L201.233 96.0291C201.748 96.5231 202.396 96.8562 203.099 96.9872C203.801 97.1182 204.526 97.0416 205.185 96.7666C205.844 96.4916 206.408 96.0303 206.808 95.4395C207.208 94.8487 207.426 94.1541 207.436 93.4411C207.446 92.7281 207.246 92.0278 206.862 91.4264C206.478 90.8251 205.927 90.3487 205.276 90.0561C204.624 89.7635 203.902 89.6672 203.196 89.7793C202.491 89.8914 201.834 90.2068 201.305 90.6868L199.899 89.1447Z" fill="#342F39"/>
<path d="M217.315 97.4528C216.522 98.2445 215.514 98.7874 214.416 99.015C213.318 99.2426 212.177 99.1448 211.134 98.7337C210.091 98.3226 209.191 97.616 208.545 96.701C207.898 95.786 207.534 94.7023 207.497 93.5834C207.459 92.4644 207.75 91.3589 208.334 90.4029C208.918 89.4468 209.768 88.682 210.782 88.2023C211.795 87.7226 212.927 87.5491 214.038 87.703C215.149 87.857 216.19 88.3316 217.035 89.0687L215.659 90.6385C215.122 90.169 214.458 89.8666 213.75 89.7686C213.043 89.6705 212.322 89.7811 211.677 90.0866C211.031 90.3921 210.489 90.8793 210.118 91.4881C209.746 92.097 209.561 92.8011 209.584 93.5138C209.609 94.2264 209.84 94.9166 210.252 95.4994C210.664 96.0822 211.237 96.5322 211.901 96.794C212.566 97.0558 213.292 97.1181 213.991 96.9732C214.691 96.8283 215.333 96.4824 215.838 95.9782L217.315 97.4528Z" fill="#7D89F6"/>
<path d="M213.284 94.6865C213.979 94.6865 214.542 94.124 214.542 93.4302C214.542 92.7363 213.979 92.1738 213.284 92.1738C212.589 92.1738 212.025 92.7363 212.025 93.4302C212.025 94.124 212.589 94.6865 213.284 94.6865Z" fill="#7D89F6"/>
<defs>
<filter id="filter0_dd_2870_1622" x="0" y="0" width="286.4" height="179" filterUnits="userSpaceOnUse" color-interpolation-filters="sRGB">
<feFlood flood-opacity="0" result="BackgroundImageFix"/>
<feColorMatrix in="SourceAlpha" type="matrix" values="0 0 0 0 0 0 0 0 0 0 0 0 0 0 0 0 0 0 127 0" result="hardAlpha"/>
<feOffset dx="20" dy="20"/>
<feGaussianBlur stdDeviation="5"/>
<feComposite in2="hardAlpha" operator="out"/>
<feColorMatrix type="matrix" values="0 0 0 0 0.919444 0 0 0 0 0.919444 0 0 0 0 0.919444 0 0 0 0.15 0"/>
<feBlend mode="normal" in2="BackgroundImageFix" result="effect1_dropShadow_2870_1622"/>
<feColorMatrix in="SourceAlpha" type="matrix" values="0 0 0 0 0 0 0 0 0 0 0 0 0 0 0 0 0 0 127 0" result="hardAlpha"/>
<feOffset dx="-20" dy="-20"/>
<feGaussianBlur stdDeviation="5"/>
<feComposite in2="hardAlpha" operator="out"/>
<feColorMatrix type="matrix" values="0 0 0 0 0.849957 0 0 0 0 0.849957 0 0 0 0 0.849957 0 0 0 0.1 0"/>
<feBlend mode="normal" in2="effect1_dropShadow_2870_1622" result="effect2_dropShadow_2870_1622"/>
<feBlend mode="normal" in="SourceGraphic" in2="effect2_dropShadow_2870_1622" result="shape"/>
</filter>
<linearGradient id="paint0_linear_2870_1622" x1="132.266" y1="30" x2="132.266" y2="147" gradientUnits="userSpaceOnUse">
<stop stop-color="#C5BAFF"/>
<stop offset="1" stop-color="#80DAFD"/>
</linearGradient>
</defs>
</svg>
