<svg width="287" height="179" viewBox="0 0 287 179" fill="none" xmlns="http://www.w3.org/2000/svg">
<g filter="url(#filter0_dd_2870_1622)">
<mask id="path-1-outside-1_2870_1622" maskUnits="userSpaceOnUse" x="30" y="30" width="227" height="119" fill="black">
<rect fill="white" x="30" y="30" width="227" height="119"/>
<path d="M30 62C30 44.3269 44.3269 30 62 30H222.4C240.074 30 254.4 44.3269 254.4 62V115C254.4 132.673 240.074 147 222.4 147H62C44.3269 147 30 132.673 30 115V62Z"/>
</mask>
<path d="M30 62C30 44.3269 44.3269 30 62 30H222.4C240.074 30 254.4 44.3269 254.4 62V115C254.4 132.673 240.074 147 222.4 147H62C44.3269 147 30 132.673 30 115V62Z" fill="white"/>
<path d="M30 30H254.4H30ZM256.4 115C256.4 133.778 241.178 149 222.4 149H64C45.2223 149 30 133.778 30 115C30 131.569 44.3269 145 62 145H222.4C238.969 145 252.4 131.569 252.4 115H256.4ZM30 147V30V147ZM222.4 30C241.178 30 256.4 45.2223 256.4 64V115C256.4 133.778 241.178 149 222.4 149V145C238.969 145 252.4 131.569 252.4 115V62C252.4 44.3269 238.969 30 222.4 30Z" fill="url(#paint0_linear_2870_1622)" mask="url(#path-1-outside-1_2870_1622)"/>
</g>
<g clip-path="url(#clip0_2870_1622)">
<path d="M67.5908 79.1484H61.3984V103.424H67.5908V79.1484Z" fill="#2DE1D5"/>
<path d="M68.7891 73.5765V73.3775C68.7891 72.7181 68.2525 72.1836 67.5905 72.1836H61.1984C60.5364 72.1836 59.9998 72.7181 59.9998 73.3775V73.5765C59.9998 74.2358 60.5364 74.7703 61.1984 74.7703H67.5905C68.2525 74.7703 68.7891 74.2358 68.7891 73.5765Z" fill="#4B8BEF"/>
<path d="M67.5908 87.5059L71.5859 92.2814H67.5908V87.5059Z" fill="#2DE1D5"/>
<path d="M68.9888 86.9082H76.5506L90.5623 103.424H82.5557L68.9888 86.9082Z" fill="#4B8BEF"/>
<path d="M69.7881 70.7835C89.219 67.7079 94.2976 83.5318 82.374 91.8824L78.6204 87.0472C87.2319 78.2573 79.5036 76.4978 69.7881 76.4978V70.7835Z" fill="#4B8BEF"/>
<path d="M64.5946 69H64.3948C63.7329 69 63.1963 69.5345 63.1963 70.1939V76.5612C63.1963 77.2206 63.7329 77.7551 64.3948 77.7551H64.5946C65.2565 77.7551 65.7931 77.2206 65.7931 76.5612V70.1939C65.7931 69.5345 65.2565 69 64.5946 69Z" fill="#2DE1D5"/>
<path d="M106.014 103.025H102.307C102.205 102.694 102.102 102.261 102.051 101.751C100.952 102.872 99.52 103.407 97.7813 103.407C96.3239 103.407 95.1733 103.076 94.3295 102.363C93.5113 101.649 93.0767 100.682 93.0767 99.4336C93.0767 98.8733 93.1534 98.3894 93.3068 97.9564C93.4602 97.5489 93.6903 97.1923 94.0227 96.8867C94.3551 96.6065 94.6619 96.3773 94.9687 96.1736C95.2756 95.9953 95.6847 95.8425 96.196 95.7151C96.733 95.6132 97.1676 95.5114 97.4745 95.4604C97.8069 95.4095 98.2671 95.3331 98.8552 95.2567C100.134 95.1039 100.977 94.9256 101.412 94.7218C101.847 94.5435 102.077 94.187 102.077 93.6776C102.077 92.506 101.284 91.9202 99.6989 91.9202C98.8552 91.9202 98.2415 92.073 97.858 92.3786C97.4489 92.6843 97.1932 93.1936 97.0909 93.9323H93.6903C93.8949 90.9778 95.9148 89.5006 99.8012 89.5006C103.637 89.5006 105.554 90.9269 105.554 93.7794V99.4591C105.554 101.14 105.708 102.312 106.014 103.025ZM102.026 96.632C101.617 96.8867 100.747 97.1414 99.4688 97.3452C98.3949 97.498 97.7046 97.7272 97.3722 97.9819C97.0142 98.2875 96.8097 98.746 96.8097 99.3063C96.8097 99.8412 96.9887 100.274 97.3466 100.58C97.7046 100.885 98.1904 101.038 98.804 101.038C99.7756 101.038 100.568 100.784 101.156 100.274C101.744 99.7647 102.026 99.0261 102.026 98.1092V96.632ZM121.284 103.025H117.833V101.344C116.963 102.719 115.634 103.381 113.844 103.381C112.029 103.381 110.571 102.77 109.497 101.497C108.423 100.223 107.886 98.5422 107.886 96.4028C107.886 94.3398 108.398 92.6843 109.446 91.4363C110.494 90.1628 111.901 89.5515 113.665 89.5515C114.483 89.5515 115.25 89.7043 115.966 90.0609C116.682 90.392 117.27 90.8759 117.679 91.5127V84.8906H121.284V103.025ZM117.782 96.4283C117.782 95.1548 117.526 94.187 116.963 93.4738C116.401 92.7607 115.634 92.4041 114.662 92.4041C113.665 92.4041 112.898 92.7607 112.361 93.4738C111.798 94.187 111.543 95.1548 111.543 96.4283C111.543 97.7017 111.798 98.695 112.361 99.4082C112.924 100.121 113.691 100.503 114.662 100.503C115.659 100.503 116.426 100.147 116.963 99.4336C117.526 98.7205 117.782 97.7272 117.782 96.4283ZM127.787 89.8826V103.025H124.157V89.8826H127.787Z" fill="#4B8BEF"/>
<path d="M142.16 84.8906V103.025H138.146V84.8906H142.16ZM157.729 103.025H154.047V95.3585C154.047 94.4416 153.894 93.7285 153.587 93.2446C153.28 92.7607 152.666 92.506 151.797 92.506C149.88 92.506 148.933 93.6776 148.933 95.9698V103.025H145.328V89.8826H148.78V91.7164C149.854 90.2647 151.311 89.5261 153.152 89.5261C154.559 89.5261 155.684 89.9336 156.502 90.7486C157.32 91.5636 157.729 92.7352 157.729 94.2379V103.025ZM171.607 93.703L168.206 93.7285C168.104 93.0663 167.874 92.5824 167.465 92.3277C167.056 92.0475 166.468 91.9202 165.701 91.9202C165.061 91.9202 164.55 92.0221 164.192 92.2513C163.834 92.4805 163.655 92.8116 163.655 93.2191C163.655 93.6776 163.86 94.0087 164.269 94.2124C164.678 94.3907 165.419 94.5945 166.468 94.8237C166.672 94.8492 166.8 94.8746 166.877 94.9001C167.49 95.002 168.002 95.1038 168.36 95.2057C168.718 95.3076 169.178 95.4604 169.689 95.6642C170.226 95.8679 170.635 96.1226 170.917 96.3773C171.224 96.632 171.479 96.9886 171.684 97.4216C171.914 97.88 172.016 98.3894 172.016 98.9497C172.016 100.325 171.479 101.42 170.405 102.21C169.331 103.025 167.874 103.407 165.982 103.407C164.192 103.407 162.735 103.025 161.559 102.261C160.408 101.497 159.82 100.325 159.794 98.746H163.246C163.374 100.223 164.32 100.936 166.059 100.936C166.8 100.936 167.388 100.809 167.823 100.503C168.258 100.198 168.462 99.8157 168.462 99.3063C168.462 98.8224 168.283 98.4658 167.874 98.2621C167.49 98.0583 166.775 97.8545 165.701 97.5998C165.624 97.5998 165.547 97.5744 165.496 97.5489C165.394 97.5234 165.113 97.4725 164.704 97.3706C164.294 97.2942 164.013 97.2433 163.86 97.1923C163.706 97.1414 163.425 97.065 163.067 96.9631C162.709 96.8612 162.428 96.7848 162.249 96.683C162.096 96.5811 161.865 96.4792 161.584 96.3264C161.303 96.1736 161.098 96.0207 160.945 95.8425C160.817 95.6896 160.664 95.4859 160.51 95.2567C160.357 95.0274 160.229 94.7727 160.178 94.4671C160.127 94.187 160.101 93.8813 160.101 93.5247C160.101 92.2513 160.587 91.258 161.61 90.5448C162.607 89.8572 164.039 89.5006 165.88 89.5006C167.516 89.5006 168.871 89.8572 169.945 90.5194C170.993 91.207 171.556 92.2767 171.607 93.703ZM177.925 84.8906V87.947H174.295V84.8906H177.925ZM177.925 89.8826V103.025H174.295V89.8826H177.925ZM193.441 89.8826V101.675C193.441 103.814 192.904 105.393 191.83 106.412C190.756 107.431 189.12 107.94 186.946 107.94C183.162 107.94 181.117 106.565 180.759 103.84H184.364C184.492 104.426 184.773 104.859 185.208 105.113C185.617 105.368 186.23 105.521 187.023 105.521C188.148 105.521 188.915 105.241 189.324 104.68C189.708 104.12 189.912 103.28 189.938 102.108L189.963 100.631C188.966 101.981 187.611 102.668 185.923 102.668C184.185 102.668 182.83 102.082 181.807 100.911C180.784 99.7393 180.298 98.1602 180.298 96.199C180.298 94.187 180.81 92.5824 181.884 91.3599C182.932 90.1373 184.338 89.5261 186.077 89.5261C186.997 89.5261 187.739 89.7043 188.353 90.0354C188.966 90.3665 189.503 90.9014 190.014 91.64V89.8826H193.441ZM186.921 92.3532C185.949 92.3532 185.208 92.6843 184.671 93.3465C184.134 94.0087 183.852 94.951 183.852 96.1736C183.852 97.3197 184.134 98.2366 184.696 98.9243C185.259 99.6119 186 99.9685 186.921 99.9685C187.867 99.9685 188.608 99.6119 189.145 98.9243C189.708 98.2111 189.963 97.2687 189.963 96.0972C189.963 94.9256 189.708 94.0087 189.145 93.3465C188.608 92.6843 187.867 92.3532 186.921 92.3532ZM200.02 84.8906V91.6655C201.043 90.2647 202.449 89.577 204.188 89.577C207.256 89.577 208.816 91.1816 208.816 94.4416V103.05H205.185V95.3076C205.185 94.3907 205.006 93.703 204.699 93.2446C204.367 92.7607 203.753 92.5314 202.858 92.5314C201.759 92.5314 201.017 92.8625 200.608 93.5757C200.199 94.2634 200.02 95.1803 200.02 96.3264V103.025H196.441V84.8906H200.02ZM218.833 89.8826V92.3532H216.148V98.5422C216.148 98.9243 216.148 99.2044 216.174 99.3827C216.174 99.561 216.25 99.7393 216.353 99.943C216.455 100.121 216.608 100.249 216.813 100.3C217.018 100.351 217.324 100.376 217.733 100.376C218.168 100.376 218.526 100.376 218.833 100.325V103.076C217.938 103.152 217.197 103.178 216.634 103.178C215.049 103.178 213.949 102.923 213.387 102.363C212.824 101.802 212.543 100.733 212.543 99.1535V92.3277H210.344V89.8826H212.543V85.9094H216.148V89.8826H218.833Z" fill="#2DE1D5"/>
<path d="M127.502 88.0862C127.213 88.3742 126.845 88.5717 126.445 88.6545C126.045 88.7373 125.629 88.7017 125.249 88.5521C124.868 88.4026 124.54 88.1456 124.304 87.8127C124.069 87.4798 123.936 87.0856 123.923 86.6785C123.909 86.2715 124.015 85.8693 124.228 85.5216C124.441 85.1738 124.751 84.8955 125.12 84.721C125.49 84.5465 125.902 84.4834 126.307 84.5394C126.712 84.5954 127.092 84.7681 127.4 85.0362L126.898 85.6072C126.702 85.4365 126.46 85.3265 126.203 85.2908C125.944 85.2551 125.682 85.2954 125.446 85.4065C125.211 85.5176 125.014 85.6948 124.878 85.9163C124.743 86.1379 124.675 86.394 124.684 86.6532C124.692 86.9125 124.777 87.1636 124.927 87.3755C125.077 87.5876 125.286 87.7513 125.528 87.8465C125.77 87.9418 126.035 87.9644 126.29 87.9117C126.545 87.859 126.779 87.7332 126.963 87.5497L127.502 88.0862Z" fill="#4B8BEF"/>
<path d="M126.033 87.0801C126.286 87.0801 126.492 86.8755 126.492 86.623C126.492 86.3706 126.286 86.166 126.033 86.166C125.78 86.166 125.574 86.3706 125.574 86.623C125.574 86.8755 125.78 87.0801 126.033 87.0801Z" fill="#4B8BEF"/>
<mask id="mask0_2870_1622" style="mask-type:luminance" maskUnits="userSpaceOnUse" x="214" y="76" width="9" height="9">
<path d="M223 76.1641H214.61V84.5212H223V76.1641Z" fill="white"/>
</mask>
<g mask="url(#mask0_2870_1622)">
<path d="M218.036 79.103H217.012V81.7355H216.313V79.103H215.31V78.6016H218.036V79.103ZM219.33 78.6016L220.204 80.865L221.046 78.6016H221.951V81.7355H221.252V80.865L221.329 79.3816L220.424 81.7355H219.952L219.05 79.385L219.12 80.865V81.7355H218.421V78.6016H219.33Z" fill="black"/>
</g>
</g>
<defs>
<filter id="filter0_dd_2870_1622" x="0" y="0" width="286.4" height="179" filterUnits="userSpaceOnUse" color-interpolation-filters="sRGB">
<feFlood flood-opacity="0" result="BackgroundImageFix"/>
<feColorMatrix in="SourceAlpha" type="matrix" values="0 0 0 0 0 0 0 0 0 0 0 0 0 0 0 0 0 0 127 0" result="hardAlpha"/>
<feOffset dx="20" dy="20"/>
<feGaussianBlur stdDeviation="5"/>
<feComposite in2="hardAlpha" operator="out"/>
<feColorMatrix type="matrix" values="0 0 0 0 0.919444 0 0 0 0 0.919444 0 0 0 0 0.919444 0 0 0 0.15 0"/>
<feBlend mode="normal" in2="BackgroundImageFix" result="effect1_dropShadow_2870_1622"/>
<feColorMatrix in="SourceAlpha" type="matrix" values="0 0 0 0 0 0 0 0 0 0 0 0 0 0 0 0 0 0 127 0" result="hardAlpha"/>
<feOffset dx="-20" dy="-20"/>
<feGaussianBlur stdDeviation="5"/>
<feComposite in2="hardAlpha" operator="out"/>
<feColorMatrix type="matrix" values="0 0 0 0 0.849957 0 0 0 0 0.849957 0 0 0 0 0.849957 0 0 0 0.1 0"/>
<feBlend mode="normal" in2="effect1_dropShadow_2870_1622" result="effect2_dropShadow_2870_1622"/>
<feBlend mode="normal" in="SourceGraphic" in2="effect2_dropShadow_2870_1622" result="shape"/>
</filter>
<linearGradient id="paint0_linear_2870_1622" x1="132.266" y1="30" x2="132.266" y2="147" gradientUnits="userSpaceOnUse">
<stop stop-color="#C5BAFF"/>
<stop offset="1" stop-color="#80DAFD"/>
</linearGradient>
<clipPath id="clip0_2870_1622">
<rect width="163" height="39" fill="white" transform="translate(60 69)"/>
</clipPath>
</defs>
</svg>
