<svg width="300" height="174" viewBox="0 0 300 174" fill="none" xmlns="http://www.w3.org/2000/svg">
<g filter="url(#filter0_dd_805_463)">
<mask id="path-1-outside-1_805_463" maskUnits="userSpaceOnUse" x="30" y="30" width="240" height="114" fill="black">
<rect fill="white" x="30" y="30" width="240" height="114"/>
<path d="M30 62C30 44.3269 44.3269 30 62 30H236C253.673 30 268 44.3269 268 62V110C268 127.673 253.673 142 236 142H62C44.3269 142 30 127.673 30 110V62Z"/>
</mask>
<path d="M30 62C30 44.3269 44.3269 30 62 30H236C253.673 30 268 44.3269 268 62V110C268 127.673 253.673 142 236 142H62C44.3269 142 30 127.673 30 110V62Z" fill="white"/>
<path d="M30 30H268H30ZM270 110C270 128.778 254.778 144 236 144H64C45.2223 144 30 128.778 30 110C30 126.569 44.3269 140 62 140H236C252.569 140 266 126.569 266 110H270ZM30 142V30V142ZM236 30C254.778 30 270 45.2223 270 64V110C270 128.778 254.778 144 236 144V140C252.569 140 266 126.569 266 110V62C266 44.3269 252.569 30 236 30Z" fill="url(#paint0_linear_805_463)" mask="url(#path-1-outside-1_805_463)"/>
</g>
<g clip-path="url(#clip0_805_463)">
<mask id="mask0_805_463" style="mask-type:luminance" maskUnits="userSpaceOnUse" x="82" y="60" width="134" height="51">
<path d="M216 60H82V111H216V60Z" fill="white"/>
</mask>
<g mask="url(#mask0_805_463)">
<path d="M120.621 76.6566C120.493 76.4902 120.327 76.3557 120.138 76.2637C119.949 76.1717 119.741 76.1246 119.53 76.1262H117.594V68.9386C117.595 68.5754 117.452 68.2265 117.197 67.9675C116.941 67.7084 116.594 67.5602 116.23 67.5548H111.695V64.9776C111.695 64.6112 111.549 64.2597 111.29 64.0003C111.03 63.7409 110.678 63.5947 110.311 63.5938H105.793V61.3838C105.793 61.0174 105.647 60.6659 105.388 60.4065C105.128 60.1471 104.776 60.0009 104.408 60H98.5063C98.1389 60.0009 97.7868 60.1471 97.5272 60.4065C97.2677 60.6659 97.122 61.0174 97.122 61.3838V63.5938H92.6042C92.24 63.5992 91.8926 63.7474 91.6373 64.0065C91.382 64.2655 91.2394 64.6144 91.2403 64.9776V67.548H86.7021C86.5203 67.5484 86.3403 67.5846 86.1726 67.6544C86.0048 67.7242 85.8524 67.8262 85.7242 67.9547C85.596 68.0832 85.4944 68.2357 85.4252 68.4033C85.356 68.5709 85.3207 68.7505 85.3211 68.9318V76.1262H83.3844C83.1757 76.1267 82.9697 76.1743 82.782 76.2654C82.5943 76.3564 82.4296 76.4887 82.3004 76.6522C82.1712 76.8158 82.0808 77.0063 82.0358 77.2096C81.9909 77.4129 81.9927 77.6237 82.041 77.8262C82.9446 81.4812 86.6134 98.1582 87.5477 101.919C87.9061 103.422 88.7639 104.76 89.9815 105.715C91.1991 106.671 92.705 107.188 94.2545 107.182H108.643C110.192 107.19 111.699 106.675 112.918 105.722C114.137 104.768 114.996 103.431 115.357 101.929C116.281 98.1888 119.953 81.5288 120.867 77.8398C120.918 77.6364 120.921 77.4242 120.878 77.2192C120.834 77.0142 120.744 76.8218 120.615 76.6566H120.621ZM114.825 70.3224V76.1262H114.031C113.766 76.1241 113.506 76.1989 113.284 76.3414C113.061 76.4838 112.884 76.6879 112.776 76.9286C112.502 77.5173 112.142 78.0626 111.709 78.547V70.3224H114.825ZM108.916 66.358V80.7026C107.924 81.2352 106.872 81.6483 105.783 81.9334V66.358H108.916ZM103.024 62.7642V82.423C102.508 82.4706 101.986 82.4944 101.459 82.4944C100.927 82.4944 100.406 82.4706 99.8907 82.423V62.7642H103.024ZM97.122 66.358V81.9334C96.0323 81.6483 94.9804 81.2352 93.9885 80.7026V66.358H97.122ZM88.0864 70.3224H91.2233V78.547C90.7923 78.0622 90.4351 77.5169 90.1629 76.9286C90.0543 76.6879 89.878 76.4838 89.6551 76.3414C89.4323 76.1989 89.1728 76.1241 88.9081 76.1262H88.0864V70.3224ZM112.68 101.262C112.469 102.167 111.954 102.972 111.221 103.545C110.488 104.118 109.581 104.425 108.65 104.414H94.2545C93.3233 104.425 92.4164 104.118 91.6836 103.545C90.9508 102.972 90.4361 102.167 90.2242 101.262C89.3036 97.5394 85.911 82.1374 85.1336 78.887H88.0591C90.3265 82.729 95.5604 85.2552 101.452 85.2552C107.344 85.2552 112.575 82.729 114.842 78.887H117.781C116.997 82.168 113.604 97.587 112.691 101.262H112.68Z" fill="#83C76F"/>
<path d="M101.459 90.2266C100.462 90.2239 99.4873 90.5161 98.6573 91.0663C97.8274 91.6164 97.1797 92.3998 96.7965 93.3172C96.4132 94.2345 96.3115 95.2446 96.5043 96.2198C96.6971 97.1949 97.1756 98.0908 97.8794 98.7946C98.5832 99.498 99.4805 99.9778 100.458 100.173C101.435 100.367 102.448 100.269 103.369 99.889C104.29 99.5096 105.078 98.866 105.632 98.0398C106.186 97.2136 106.481 96.2422 106.481 95.2484C106.481 93.9188 105.953 92.6436 105.011 91.7022C104.07 90.7608 102.792 90.2302 101.459 90.2266ZM101.459 97.506C101.011 97.5073 100.572 97.3761 100.199 97.1289C99.826 96.8814 99.5348 96.5295 99.3624 96.1171C99.19 95.7047 99.1442 95.2504 99.2307 94.8122C99.3173 94.3739 99.5324 93.9708 99.8488 93.6544C100.165 93.338 100.569 93.1223 101.008 93.0346C101.447 92.947 101.903 92.9913 102.317 93.162C102.731 93.3327 103.085 93.622 103.334 93.9934C103.583 94.3647 103.716 94.8016 103.716 95.2484C103.716 95.8461 103.479 96.419 103.055 96.8423C102.632 97.2656 102.058 97.5043 101.459 97.506Z" fill="#83C76F"/>
<path d="M132.697 86.6267C132.697 87.3827 132.556 88.0459 132.274 88.6166C131.991 89.1872 131.609 89.6652 131.125 90.0506C130.643 90.4285 130.078 90.7139 129.431 90.9066C128.784 91.0992 128.093 91.1956 127.357 91.1956C126.86 91.1956 126.395 91.1548 125.964 91.0733C125.54 90.9918 125.165 90.8954 124.838 90.7843C124.511 90.6657 124.236 90.5434 124.013 90.4174C123.798 90.2915 123.641 90.1803 123.545 90.084C123.448 89.9876 123.378 89.8505 123.333 89.6726C123.296 89.4874 123.277 89.2243 123.277 88.8834C123.277 88.6536 123.285 88.4609 123.3 88.3053C123.315 88.1497 123.337 88.0237 123.366 87.9274C123.404 87.831 123.448 87.7643 123.5 87.7273C123.56 87.6828 123.626 87.6606 123.701 87.6606C123.805 87.6606 123.95 87.7236 124.136 87.8495C124.329 87.9681 124.574 88.1015 124.871 88.2497C125.169 88.398 125.522 88.5351 125.93 88.6611C126.347 88.7796 126.826 88.8389 127.369 88.8389C127.725 88.8389 128.045 88.7981 128.327 88.7166C128.61 88.6277 128.848 88.5054 129.041 88.3498C129.242 88.1942 129.394 88.0015 129.498 87.7717C129.602 87.542 129.654 87.2863 129.654 87.0047C129.654 86.6786 129.565 86.4007 129.386 86.171C129.208 85.9338 128.974 85.7263 128.684 85.5485C128.402 85.3632 128.078 85.1927 127.714 85.0371C127.35 84.8741 126.975 84.7036 126.588 84.5257C126.202 84.3479 125.826 84.1478 125.462 83.9255C125.098 83.6957 124.771 83.4252 124.481 83.114C124.199 82.7953 123.968 82.421 123.79 81.9912C123.612 81.5614 123.522 81.0463 123.522 80.446C123.522 79.7568 123.649 79.1528 123.902 78.6341C124.162 78.1079 124.507 77.6743 124.938 77.3334C125.377 76.9851 125.889 76.7257 126.477 76.5553C127.071 76.3848 127.699 76.2996 128.361 76.2996C128.703 76.2996 129.044 76.3256 129.386 76.3774C129.728 76.4293 130.048 76.4997 130.345 76.5886C130.643 76.6776 130.906 76.7776 131.137 76.8888C131.367 76.9999 131.52 77.0926 131.594 77.1667C131.668 77.2408 131.716 77.3038 131.739 77.3557C131.768 77.4075 131.791 77.4779 131.806 77.5669C131.828 77.6484 131.843 77.7559 131.85 77.8892C131.857 78.0153 131.861 78.1746 131.861 78.3673C131.861 78.5822 131.854 78.7637 131.839 78.912C131.832 79.0602 131.813 79.1825 131.783 79.2788C131.761 79.3751 131.724 79.4455 131.672 79.49C131.627 79.5345 131.564 79.5567 131.482 79.5567C131.401 79.5567 131.27 79.5048 131.092 79.4011C130.914 79.2973 130.694 79.1862 130.434 79.0676C130.174 78.9416 129.873 78.8304 129.531 78.7341C129.189 78.6303 128.814 78.5785 128.405 78.5785C128.086 78.5785 127.807 78.6192 127.569 78.7008C127.331 78.7748 127.131 78.8823 126.967 79.0231C126.811 79.1565 126.692 79.3196 126.611 79.5122C126.536 79.7049 126.499 79.9087 126.499 80.1237C126.499 80.4423 126.584 80.7202 126.756 80.9574C126.934 81.1871 127.168 81.3946 127.458 81.5799C127.755 81.7578 128.089 81.9282 128.461 82.0912C128.833 82.2469 129.212 82.4136 129.598 82.5915C129.985 82.7693 130.364 82.9732 130.735 83.2029C131.107 83.4252 131.438 83.6957 131.728 84.0144C132.017 84.3257 132.252 84.6962 132.43 85.126C132.608 85.5485 132.697 86.0487 132.697 86.6267ZM140.657 89.5837C140.657 89.9098 140.635 90.1617 140.59 90.3396C140.553 90.5101 140.501 90.6323 140.434 90.7065C140.367 90.7732 140.267 90.8361 140.133 90.8954C140.007 90.9473 139.854 90.9918 139.676 91.0289C139.505 91.0733 139.315 91.1066 139.107 91.1289C138.907 91.1511 138.702 91.1622 138.494 91.1622C137.937 91.1622 137.454 91.0918 137.045 90.951C136.636 90.8102 136.298 90.5953 136.031 90.3063C135.763 90.0098 135.566 89.6393 135.44 89.1946C135.313 88.75 135.25 88.2238 135.25 87.6161V82.5359H134.057C133.916 82.5359 133.808 82.4507 133.734 82.2802C133.66 82.1024 133.623 81.8097 133.623 81.402C133.623 81.1871 133.63 81.0056 133.645 80.8573C133.667 80.7091 133.697 80.5943 133.734 80.5127C133.771 80.4238 133.816 80.3608 133.868 80.3237C133.927 80.2867 133.994 80.2682 134.069 80.2682H135.25V78.056C135.25 77.9819 135.269 77.9152 135.306 77.8559C135.351 77.7966 135.425 77.7485 135.529 77.7114C135.64 77.6669 135.785 77.6373 135.964 77.6224C136.15 77.6002 136.376 77.5891 136.644 77.5891C136.919 77.5891 137.145 77.6002 137.324 77.6224C137.51 77.6373 137.655 77.6669 137.759 77.7114C137.863 77.7485 137.937 77.7966 137.982 77.8559C138.026 77.9152 138.048 77.9819 138.048 78.056V80.2682H140.211C140.285 80.2682 140.349 80.2867 140.401 80.3237C140.46 80.3608 140.508 80.4238 140.546 80.5127C140.583 80.5943 140.609 80.7091 140.624 80.8573C140.646 81.0056 140.657 81.1871 140.657 81.402C140.657 81.8097 140.62 82.1024 140.546 82.2802C140.471 82.4507 140.364 82.5359 140.222 82.5359H138.048V87.1937C138.048 87.7347 138.134 88.1423 138.305 88.4165C138.476 88.6833 138.78 88.8167 139.219 88.8167C139.368 88.8167 139.501 88.8056 139.62 88.7833C139.739 88.7537 139.843 88.724 139.933 88.6944C140.029 88.6574 140.107 88.6277 140.166 88.6055C140.233 88.5758 140.293 88.561 140.345 88.561C140.389 88.561 140.43 88.5758 140.468 88.6055C140.512 88.6277 140.546 88.6796 140.568 88.7611C140.59 88.8352 140.609 88.9389 140.624 89.0724C140.646 89.2057 140.657 89.3762 140.657 89.5837ZM152.519 85.504C152.519 86.3488 152.407 87.1196 152.184 87.8162C151.961 88.5128 151.623 89.1131 151.169 89.6171C150.716 90.121 150.148 90.5101 149.464 90.7843C148.78 91.0585 147.981 91.1956 147.067 91.1956C146.183 91.1956 145.414 91.0733 144.76 90.8287C144.106 90.5842 143.563 90.2285 143.132 89.7616C142.701 89.2947 142.381 88.7203 142.173 88.0385C141.965 87.3567 141.861 86.5786 141.861 85.7041C141.861 84.8592 141.973 84.0885 142.196 83.3919C142.426 82.6878 142.768 82.0875 143.221 81.591C143.674 81.0871 144.239 80.698 144.915 80.4238C145.599 80.1496 146.398 80.0125 147.312 80.0125C148.204 80.0125 148.977 80.1348 149.631 80.3793C150.285 80.6165 150.824 80.9685 151.248 81.4354C151.679 81.9023 151.998 82.4766 152.206 83.1584C152.414 83.8402 152.519 84.6221 152.519 85.504ZM149.631 85.6151C149.631 85.126 149.59 84.6777 149.509 84.2701C149.434 83.8551 149.304 83.4956 149.119 83.1918C148.933 82.8879 148.683 82.6508 148.371 82.4803C148.067 82.3099 147.68 82.2247 147.212 82.2247C146.796 82.2247 146.432 82.3024 146.119 82.4581C145.807 82.6063 145.551 82.8286 145.351 83.1251C145.15 83.4141 144.997 83.7661 144.893 84.1812C144.797 84.5887 144.748 85.0556 144.748 85.5818C144.748 86.0709 144.789 86.523 144.871 86.938C144.953 87.3456 145.083 87.7013 145.261 88.0052C145.447 88.309 145.696 88.5462 146.008 88.7166C146.32 88.8797 146.707 88.9612 147.168 88.9612C147.591 88.9612 147.959 88.8871 148.271 88.7389C148.583 88.5832 148.84 88.3609 149.04 88.0719C149.241 87.7828 149.39 87.4345 149.486 87.027C149.583 86.6119 149.631 86.1413 149.631 85.6151ZM161.136 81.5688C161.136 81.8356 161.128 82.0542 161.114 82.2247C161.099 82.3951 161.077 82.5285 161.047 82.6248C161.017 82.7212 160.976 82.7879 160.924 82.8249C160.88 82.862 160.82 82.8805 160.746 82.8805C160.686 82.8805 160.619 82.8694 160.545 82.8472C160.471 82.8175 160.385 82.7879 160.289 82.7583C160.2 82.7286 160.099 82.7027 159.988 82.6804C159.876 82.6508 159.754 82.636 159.62 82.636C159.464 82.636 159.308 82.6693 159.151 82.736C158.996 82.7953 158.832 82.8916 158.661 83.025C158.498 83.1584 158.323 83.3363 158.137 83.5586C157.959 83.7809 157.765 84.0551 157.557 84.3812V90.562C157.557 90.6361 157.535 90.7028 157.491 90.7621C157.446 90.8139 157.368 90.8584 157.256 90.8954C157.152 90.9325 157.011 90.9584 156.833 90.9733C156.655 90.9955 156.428 91.0066 156.153 91.0066C155.878 91.0066 155.651 90.9955 155.473 90.9733C155.294 90.9584 155.15 90.9325 155.038 90.8954C154.934 90.8584 154.86 90.8139 154.815 90.7621C154.77 90.7028 154.748 90.6361 154.748 90.562V80.6461C154.748 80.572 154.767 80.509 154.804 80.4571C154.841 80.3978 154.908 80.3497 155.005 80.3126C155.101 80.2756 155.224 80.2496 155.373 80.2348C155.528 80.2126 155.722 80.2015 155.952 80.2015C156.19 80.2015 156.387 80.2126 156.543 80.2348C156.699 80.2496 156.818 80.2756 156.9 80.3126C156.989 80.3497 157.052 80.3978 157.089 80.4571C157.126 80.509 157.145 80.572 157.145 80.6461V81.88C157.405 81.5095 157.65 81.2056 157.881 80.9685C158.111 80.7239 158.33 80.5313 158.538 80.3904C158.746 80.2496 158.955 80.1533 159.163 80.1014C159.371 80.0421 159.579 80.0125 159.787 80.0125C159.884 80.0125 159.988 80.0199 160.099 80.0347C160.211 80.0421 160.326 80.0607 160.445 80.0903C160.564 80.1125 160.668 80.1422 160.757 80.1792C160.846 80.2089 160.909 80.2422 160.946 80.2793C160.991 80.3163 161.021 80.3571 161.036 80.4015C161.058 80.446 161.077 80.509 161.091 80.5905C161.106 80.6646 161.118 80.7795 161.125 80.9351C161.132 81.0908 161.136 81.302 161.136 81.5688ZM171.782 85.315C171.782 85.6559 171.704 85.9079 171.548 86.0709C171.4 86.234 171.191 86.3155 170.924 86.3155H164.871C164.871 86.7379 164.919 87.1233 165.015 87.4716C165.119 87.8125 165.279 88.1052 165.495 88.3498C165.718 88.5869 166 88.7685 166.342 88.8945C166.691 89.0205 167.108 89.0835 167.591 89.0835C168.081 89.0835 168.512 89.0501 168.884 88.9834C169.255 88.9093 169.575 88.8315 169.843 88.75C170.118 88.6611 170.344 88.5832 170.523 88.5165C170.701 88.4424 170.846 88.4054 170.957 88.4054C171.024 88.4054 171.08 88.4202 171.125 88.4499C171.169 88.4721 171.206 88.5165 171.236 88.5832C171.266 88.6499 171.284 88.7463 171.292 88.8723C171.307 88.9908 171.314 89.1428 171.314 89.328C171.314 89.4911 171.31 89.6319 171.303 89.7505C171.295 89.8616 171.284 89.958 171.269 90.0395C171.255 90.121 171.232 90.1914 171.203 90.2507C171.173 90.3026 171.132 90.3544 171.08 90.4063C171.036 90.4582 170.905 90.5286 170.69 90.6175C170.474 90.7065 170.199 90.7954 169.865 90.8843C169.531 90.9659 169.148 91.0363 168.717 91.0955C168.286 91.1622 167.825 91.1956 167.334 91.1956C166.45 91.1956 165.673 91.0844 165.004 90.8621C164.343 90.6398 163.789 90.3026 163.343 89.8505C162.897 89.3985 162.563 88.8278 162.34 88.1386C162.124 87.4494 162.017 86.6416 162.017 85.7152C162.017 84.8333 162.132 84.0403 162.362 83.3363C162.593 82.6248 162.927 82.0246 163.366 81.5354C163.804 81.0389 164.336 80.6609 164.96 80.4015C165.591 80.1422 166.301 80.0125 167.089 80.0125C167.922 80.0125 168.631 80.1348 169.218 80.3793C169.813 80.6239 170.3 80.9648 170.679 81.402C171.058 81.8319 171.336 82.3432 171.515 82.9361C171.693 83.529 171.782 84.1737 171.782 84.8704V85.315ZM169.062 84.5146C169.085 83.7291 168.925 83.114 168.583 82.6693C168.248 82.2172 167.728 81.9912 167.022 81.9912C166.665 81.9912 166.353 82.0579 166.086 82.1913C165.826 82.3247 165.606 82.5063 165.428 82.736C165.257 82.9583 165.123 83.2251 165.027 83.5364C164.937 83.8402 164.886 84.1663 164.871 84.5146H169.062ZM179.92 76.8665C179.92 77.0814 179.913 77.2556 179.898 77.389C179.883 77.515 179.861 77.615 179.831 77.6892C179.801 77.7559 179.768 77.804 179.731 77.8337C179.694 77.8559 179.653 77.867 179.608 77.867C179.556 77.867 179.497 77.8559 179.43 77.8337C179.37 77.804 179.292 77.7744 179.196 77.7447C179.107 77.7151 178.999 77.6892 178.872 77.6669C178.746 77.6373 178.598 77.6224 178.427 77.6224C178.226 77.6224 178.051 77.6558 177.903 77.7225C177.761 77.7818 177.642 77.8818 177.546 78.0226C177.449 78.156 177.379 78.3339 177.334 78.5562C177.29 78.7711 177.267 79.0379 177.267 79.3566V80.2682H179.084C179.151 80.2682 179.211 80.2867 179.263 80.3237C179.322 80.3608 179.37 80.4238 179.408 80.5127C179.445 80.5943 179.471 80.7091 179.486 80.8573C179.508 81.0056 179.519 81.1871 179.519 81.402C179.519 81.8097 179.482 82.1024 179.408 82.2802C179.333 82.4507 179.226 82.5359 179.084 82.5359H177.267V90.562C177.267 90.6361 177.245 90.7028 177.2 90.7621C177.156 90.8139 177.081 90.8584 176.977 90.8954C176.873 90.9325 176.728 90.9584 176.543 90.9733C176.357 90.9955 176.13 91.0066 175.863 91.0066C175.595 91.0066 175.368 90.9955 175.182 90.9733C175.004 90.9584 174.859 90.9325 174.748 90.8954C174.644 90.8584 174.569 90.8139 174.525 90.7621C174.487 90.7028 174.469 90.6361 174.469 90.562V82.5359H173.22C173.079 82.5359 172.972 82.4507 172.897 82.2802C172.83 82.1024 172.797 81.8097 172.797 81.402C172.797 81.1871 172.804 81.0056 172.819 80.8573C172.841 80.7091 172.867 80.5943 172.897 80.5127C172.934 80.4238 172.979 80.3608 173.031 80.3237C173.09 80.2867 173.157 80.2682 173.232 80.2682H174.469V79.4344C174.469 78.76 174.536 78.1709 174.67 77.6669C174.804 77.1556 175.012 76.7331 175.294 76.3996C175.584 76.0588 175.948 75.8031 176.386 75.6326C176.832 75.4622 177.356 75.377 177.958 75.377C178.248 75.377 178.523 75.4029 178.783 75.4547C179.044 75.4992 179.248 75.5511 179.396 75.6104C179.545 75.6622 179.645 75.7141 179.697 75.766C179.749 75.8105 179.79 75.8809 179.82 75.9772C179.857 76.0662 179.883 76.1847 179.898 76.333C179.913 76.4738 179.92 76.6516 179.92 76.8665ZM187.535 81.5688C187.535 81.8356 187.527 82.0542 187.512 82.2247C187.497 82.3951 187.475 82.5285 187.445 82.6248C187.416 82.7212 187.375 82.7879 187.323 82.8249C187.278 82.862 187.219 82.8805 187.144 82.8805C187.085 82.8805 187.018 82.8694 186.944 82.8472C186.869 82.8175 186.784 82.7879 186.687 82.7583C186.598 82.7286 186.498 82.7027 186.386 82.6804C186.275 82.6508 186.152 82.636 186.018 82.636C185.862 82.636 185.706 82.6693 185.55 82.736C185.394 82.7953 185.231 82.8916 185.06 83.025C184.896 83.1584 184.721 83.3363 184.536 83.5586C184.357 83.7809 184.164 84.0551 183.956 84.3812V90.562C183.956 90.6361 183.934 90.7028 183.889 90.7621C183.844 90.8139 183.767 90.8584 183.655 90.8954C183.551 90.9325 183.41 90.9584 183.231 90.9733C183.053 90.9955 182.826 91.0066 182.551 91.0066C182.276 91.0066 182.049 90.9955 181.871 90.9733C181.693 90.9584 181.548 90.9325 181.436 90.8954C181.332 90.8584 181.258 90.8139 181.213 90.7621C181.169 90.7028 181.147 90.6361 181.147 90.562V80.6461C181.147 80.572 181.165 80.509 181.203 80.4571C181.24 80.3978 181.306 80.3497 181.403 80.3126C181.5 80.2756 181.622 80.2496 181.771 80.2348C181.927 80.2126 182.12 80.2015 182.351 80.2015C182.589 80.2015 182.785 80.2126 182.941 80.2348C183.098 80.2496 183.217 80.2756 183.298 80.3126C183.387 80.3497 183.451 80.3978 183.488 80.4571C183.525 80.509 183.544 80.572 183.544 80.6461V81.88C183.804 81.5095 184.049 81.2056 184.279 80.9685C184.51 80.7239 184.729 80.5313 184.937 80.3904C185.145 80.2496 185.353 80.1533 185.561 80.1014C185.769 80.0421 185.977 80.0125 186.185 80.0125C186.282 80.0125 186.386 80.0199 186.498 80.0347C186.609 80.0421 186.724 80.0607 186.843 80.0903C186.962 80.1125 187.066 80.1422 187.155 80.1792C187.245 80.2089 187.308 80.2422 187.345 80.2793C187.39 80.3163 187.419 80.3571 187.434 80.4015C187.457 80.446 187.475 80.509 187.49 80.5905C187.505 80.6646 187.516 80.7795 187.523 80.9351C187.531 81.0908 187.535 81.302 187.535 81.5688ZM192.072 90.562C192.072 90.6361 192.049 90.7028 192.005 90.7621C191.96 90.8139 191.882 90.8584 191.771 90.8954C191.667 90.9325 191.526 90.9584 191.347 90.9733C191.169 90.9955 190.942 91.0066 190.667 91.0066C190.392 91.0066 190.166 90.9955 189.987 90.9733C189.809 90.9584 189.664 90.9325 189.552 90.8954C189.448 90.8584 189.374 90.8139 189.329 90.7621C189.285 90.7028 189.262 90.6361 189.262 90.562V80.6683C189.262 80.5943 189.285 80.5313 189.329 80.4794C189.374 80.4201 189.448 80.3719 189.552 80.3349C189.664 80.2904 189.809 80.257 189.987 80.2348C190.166 80.2126 190.392 80.2015 190.667 80.2015C190.942 80.2015 191.169 80.2126 191.347 80.2348C191.526 80.257 191.667 80.2904 191.771 80.3349C191.882 80.3719 191.96 80.4201 192.005 80.4794C192.049 80.5313 192.072 80.5943 192.072 80.6683V90.562ZM192.284 77.289C192.284 77.8522 192.168 78.2413 191.938 78.4562C191.708 78.6711 191.28 78.7786 190.656 78.7786C190.024 78.7786 189.597 78.6748 189.374 78.4673C189.158 78.2598 189.051 77.8855 189.051 77.3445C189.051 76.7813 189.162 76.3922 189.385 76.1773C189.616 75.955 190.047 75.8438 190.678 75.8438C191.303 75.8438 191.726 75.9513 191.949 76.1662C192.172 76.3737 192.284 76.748 192.284 77.289ZM204.067 85.315C204.067 85.6559 203.989 85.9079 203.833 86.0709C203.684 86.234 203.476 86.3155 203.209 86.3155H197.155C197.155 86.7379 197.203 87.1233 197.3 87.4716C197.404 87.8125 197.564 88.1052 197.78 88.3498C198.002 88.5869 198.285 88.7685 198.627 88.8945C198.976 89.0205 199.392 89.0835 199.875 89.0835C200.366 89.0835 200.797 89.0501 201.169 88.9834C201.54 88.9093 201.86 88.8315 202.127 88.75C202.402 88.6611 202.629 88.5832 202.807 88.5165C202.986 88.4424 203.13 88.4054 203.242 88.4054C203.309 88.4054 203.365 88.4202 203.409 88.4499C203.454 88.4721 203.491 88.5165 203.521 88.5832C203.55 88.6499 203.569 88.7463 203.576 88.8723C203.591 88.9908 203.599 89.1428 203.599 89.328C203.599 89.4911 203.595 89.6319 203.588 89.7505C203.58 89.8616 203.569 89.958 203.554 90.0395C203.539 90.121 203.517 90.1914 203.487 90.2507C203.457 90.3026 203.417 90.3544 203.365 90.4063C203.32 90.4582 203.19 90.5286 202.975 90.6175C202.759 90.7065 202.484 90.7954 202.149 90.8843C201.815 90.9659 201.432 91.0363 201.001 91.0955C200.57 91.1622 200.109 91.1956 199.619 91.1956C198.734 91.1956 197.958 91.0844 197.289 90.8621C196.628 90.6398 196.074 90.3026 195.628 89.8505C195.182 89.3985 194.848 88.8278 194.625 88.1386C194.409 87.4494 194.301 86.6416 194.301 85.7152C194.301 84.8333 194.416 84.0403 194.647 83.3363C194.877 82.6248 195.212 82.0246 195.65 81.5354C196.089 81.0389 196.62 80.6609 197.244 80.4015C197.876 80.1422 198.586 80.0125 199.374 80.0125C200.206 80.0125 200.916 80.1348 201.503 80.3793C202.098 80.6239 202.584 80.9648 202.963 81.402C203.343 81.8319 203.621 82.3432 203.799 82.9361C203.978 83.529 204.067 84.1737 204.067 84.8704V85.315ZM201.347 84.5146C201.369 83.7291 201.209 83.114 200.867 82.6693C200.533 82.2172 200.013 81.9912 199.307 81.9912C198.95 81.9912 198.638 82.0579 198.37 82.1913C198.11 82.3247 197.891 82.5063 197.712 82.736C197.542 82.9583 197.408 83.2251 197.311 83.5364C197.222 83.8402 197.17 84.1663 197.155 84.5146H201.347ZM213.387 87.7606C213.387 88.3238 213.279 88.8204 213.063 89.2502C212.855 89.68 212.558 90.0395 212.172 90.3285C211.785 90.6175 211.328 90.8324 210.8 90.9733C210.273 91.1215 209.701 91.1956 209.084 91.1956C208.712 91.1956 208.355 91.1659 208.013 91.1066C207.679 91.0548 207.378 90.9881 207.111 90.9066C206.843 90.8176 206.62 90.7287 206.442 90.6398C206.263 90.5508 206.133 90.4693 206.051 90.3952C205.97 90.3137 205.906 90.1914 205.862 90.0284C205.817 89.8579 205.795 89.6097 205.795 89.2836C205.795 89.0687 205.802 88.8982 205.817 88.7722C205.832 88.6388 205.854 88.5351 205.884 88.4609C205.914 88.3794 205.951 88.3276 205.996 88.3053C206.04 88.2757 206.096 88.2608 206.163 88.2608C206.244 88.2608 206.363 88.309 206.52 88.4054C206.683 88.4943 206.884 88.5944 207.121 88.7055C207.359 88.8167 207.634 88.9204 207.947 89.0168C208.266 89.1131 208.626 89.1613 209.028 89.1613C209.28 89.1613 209.503 89.1354 209.697 89.0835C209.897 89.0316 210.068 88.9575 210.21 88.8611C210.358 88.7648 210.47 88.6425 210.544 88.4943C210.618 88.3461 210.656 88.1756 210.656 87.9829C210.656 87.7606 210.585 87.5716 210.443 87.416C210.31 87.253 210.128 87.1122 209.897 86.9936C209.674 86.875 209.418 86.7639 209.128 86.6601C208.846 86.5563 208.552 86.4415 208.247 86.3155C207.95 86.1895 207.657 86.045 207.367 85.8819C207.084 85.7189 206.828 85.5188 206.598 85.2817C206.375 85.0445 206.193 84.7592 206.051 84.4257C205.917 84.0922 205.851 83.692 205.851 83.2251C205.851 82.7508 205.943 82.3173 206.129 81.9245C206.315 81.5243 206.583 81.1834 206.932 80.9018C207.281 80.6202 207.705 80.4015 208.203 80.2459C208.708 80.0903 209.273 80.0125 209.897 80.0125C210.21 80.0125 210.511 80.0347 210.8 80.0792C211.098 80.1237 211.365 80.1792 211.603 80.2459C211.841 80.3126 212.042 80.3868 212.205 80.4682C212.369 80.5424 212.484 80.6091 212.551 80.6683C212.625 80.7202 212.677 80.7758 212.707 80.8351C212.736 80.887 212.759 80.9537 212.774 81.0352C212.788 81.1093 212.8 81.2056 212.807 81.3242C212.822 81.4354 212.829 81.5762 212.829 81.7466C212.829 81.9467 212.822 82.1098 212.807 82.2358C212.8 82.3617 212.781 82.4618 212.751 82.5359C212.729 82.61 212.696 82.6619 212.651 82.6915C212.606 82.7138 212.554 82.7249 212.495 82.7249C212.428 82.7249 212.324 82.6878 212.183 82.6137C212.042 82.5322 211.863 82.447 211.648 82.358C211.439 82.2691 211.194 82.1876 210.912 82.1135C210.637 82.032 210.321 81.9912 209.964 81.9912C209.711 81.9912 209.492 82.0172 209.307 82.069C209.121 82.1209 208.968 82.195 208.849 82.2913C208.73 82.3877 208.641 82.5026 208.582 82.636C208.522 82.7619 208.493 82.899 208.493 83.0473C208.493 83.277 208.563 83.4697 208.705 83.6253C208.846 83.7809 209.032 83.9181 209.262 84.0366C209.492 84.1552 209.752 84.2664 210.042 84.3701C210.34 84.4739 210.637 84.5887 210.934 84.7147C211.239 84.8333 211.536 84.9741 211.826 85.1371C212.123 85.3002 212.387 85.5003 212.617 85.7374C212.848 85.9746 213.034 86.2599 213.175 86.5934C213.316 86.9195 213.387 87.3085 213.387 87.7606Z" fill="#265983"/>
<path d="M127.678 103.805C127.095 104.133 126.447 104.297 125.734 104.297C124.905 104.297 124.234 104.031 123.722 103.498C123.211 102.965 122.956 102.259 122.956 101.382C122.956 100.485 123.239 99.7499 123.806 99.1763C124.376 98.6004 125.097 98.312 125.969 98.312C126.601 98.312 127.132 98.4144 127.561 98.6191V99.3705C127.091 99.0743 126.535 98.9261 125.892 98.9261C125.242 98.9261 124.708 99.1495 124.292 99.5966C123.877 100.043 123.669 100.622 123.669 101.333C123.669 102.065 123.862 102.642 124.248 103.062C124.634 103.479 125.158 103.687 125.819 103.687C126.273 103.687 126.666 103.597 126.998 103.417V101.794H125.726V101.18H127.678V103.805ZM132.275 102.298H129.347C129.358 102.759 129.482 103.114 129.719 103.364C129.957 103.615 130.284 103.74 130.7 103.74C131.167 103.74 131.596 103.587 131.988 103.28V103.902C131.623 104.165 131.141 104.297 130.542 104.297C129.956 104.297 129.495 104.11 129.161 103.736C128.826 103.359 128.658 102.83 128.658 102.149C128.658 101.505 128.841 100.982 129.205 100.578C129.573 100.171 130.027 99.9682 130.57 99.9682C131.113 99.9682 131.533 100.143 131.83 100.493C132.127 100.843 132.275 101.329 132.275 101.951V102.298ZM131.595 101.737C131.592 101.355 131.499 101.057 131.315 100.844C131.134 100.632 130.882 100.525 130.558 100.525C130.245 100.525 129.979 100.637 129.76 100.861C129.541 101.084 129.406 101.376 129.355 101.737H131.595ZM135.017 104.297C134.404 104.297 133.914 104.105 133.547 103.72C133.182 103.332 133 102.819 133 102.181C133 101.487 133.191 100.944 133.571 100.554C133.952 100.163 134.466 99.9682 135.114 99.9682C135.733 99.9682 136.215 100.158 136.56 100.537C136.908 100.917 137.083 101.443 137.083 102.117C137.083 102.776 136.895 103.305 136.52 103.704C136.147 104.1 135.646 104.297 135.017 104.297ZM135.066 100.525C134.639 100.525 134.302 100.671 134.053 100.962C133.805 101.25 133.68 101.648 133.68 102.157C133.68 102.647 133.806 103.033 134.057 103.316C134.308 103.599 134.644 103.74 135.066 103.74C135.495 103.74 135.824 103.601 136.054 103.324C136.286 103.047 136.402 102.652 136.402 102.141C136.402 101.624 136.286 101.226 136.054 100.945C135.824 100.666 135.495 100.525 135.066 100.525ZM137.893 104.051V103.34C138.255 103.607 138.653 103.74 139.088 103.74C139.671 103.74 139.962 103.546 139.962 103.158C139.962 103.048 139.937 102.955 139.885 102.88C139.837 102.802 139.769 102.733 139.683 102.674C139.599 102.615 139.499 102.562 139.383 102.516C139.27 102.468 139.147 102.418 139.015 102.367C138.831 102.294 138.669 102.222 138.528 102.149C138.391 102.073 138.275 101.99 138.18 101.898C138.089 101.804 138.018 101.698 137.97 101.579C137.924 101.461 137.901 101.322 137.901 101.164C137.901 100.969 137.945 100.799 138.034 100.651C138.124 100.5 138.242 100.374 138.391 100.275C138.539 100.173 138.708 100.096 138.897 100.045C139.089 99.9937 139.286 99.9682 139.489 99.9682C139.848 99.9682 140.169 100.03 140.452 100.154V100.824C140.147 100.625 139.796 100.525 139.399 100.525C139.275 100.525 139.163 100.54 139.063 100.57C138.963 100.597 138.877 100.636 138.804 100.687C138.734 100.738 138.678 100.8 138.638 100.873C138.6 100.943 138.581 101.021 138.581 101.107C138.581 101.215 138.6 101.305 138.638 101.377C138.678 101.45 138.736 101.515 138.812 101.571C138.888 101.628 138.979 101.679 139.088 101.725C139.195 101.771 139.318 101.821 139.456 101.874C139.64 101.944 139.804 102.017 139.95 102.093C140.096 102.165 140.22 102.249 140.323 102.343C140.425 102.434 140.504 102.541 140.557 102.662C140.614 102.783 140.643 102.927 140.643 103.094C140.643 103.298 140.597 103.476 140.505 103.627C140.416 103.778 140.296 103.903 140.145 104.003C139.993 104.102 139.819 104.176 139.622 104.225C139.425 104.273 139.218 104.297 139.002 104.297C138.576 104.297 138.206 104.215 137.893 104.051ZM143.401 104.297C142.788 104.297 142.298 104.105 141.931 103.72C141.566 103.332 141.384 102.819 141.384 102.181C141.384 101.487 141.574 100.944 141.955 100.554C142.336 100.163 142.85 99.9682 143.498 99.9682C144.116 99.9682 144.598 100.158 144.944 100.537C145.292 100.917 145.466 101.443 145.466 102.117C145.466 102.776 145.279 103.305 144.903 103.704C144.531 104.1 144.03 104.297 143.401 104.297ZM143.45 100.525C143.023 100.525 142.685 100.671 142.437 100.962C142.188 101.25 142.064 101.648 142.064 102.157C142.064 102.647 142.19 103.033 142.441 103.316C142.692 103.599 143.028 103.74 143.45 103.74C143.879 103.74 144.208 103.601 144.438 103.324C144.67 103.047 144.786 102.652 144.786 102.141C144.786 101.624 144.67 101.226 144.438 100.945C144.208 100.666 143.879 100.525 143.45 100.525ZM149.354 104.011C149.036 104.202 148.658 104.297 148.22 104.297C147.629 104.297 147.151 104.106 146.787 103.724C146.425 103.339 146.244 102.841 146.244 102.23C146.244 101.549 146.44 101.002 146.831 100.59C147.223 100.175 147.745 99.9682 148.399 99.9682C148.763 99.9682 149.084 100.036 149.363 100.17V100.848C149.055 100.633 148.725 100.525 148.374 100.525C147.95 100.525 147.602 100.677 147.329 100.982C147.059 101.283 146.924 101.68 146.924 102.173C146.924 102.658 147.051 103.04 147.305 103.32C147.562 103.6 147.905 103.74 148.334 103.74C148.696 103.74 149.036 103.62 149.354 103.381V104.011ZM150.699 99.0148C150.58 99.0148 150.479 98.9747 150.395 98.8938C150.311 98.8129 150.27 98.7105 150.27 98.5868C150.27 98.463 150.311 98.3607 150.395 98.2797C150.479 98.1964 150.58 98.1546 150.699 98.1546C150.821 98.1546 150.923 98.1964 151.007 98.2797C151.093 98.3607 151.137 98.463 151.137 98.5868C151.137 98.7054 151.093 98.8064 151.007 98.8897C150.923 98.9733 150.821 99.0148 150.699 99.0148ZM151.023 104.201H150.359V100.065H151.023V104.201ZM155.336 104.201H154.672V103.554H154.656C154.367 104.05 153.942 104.297 153.38 104.297C152.967 104.297 152.643 104.188 152.408 103.97C152.176 103.752 152.06 103.463 152.06 103.102C152.06 102.329 152.516 101.88 153.429 101.753L154.672 101.579C154.672 100.877 154.387 100.525 153.818 100.525C153.318 100.525 152.867 100.695 152.465 101.034V100.356C152.872 100.097 153.342 99.9682 153.874 99.9682C154.849 99.9682 155.336 100.482 155.336 101.511V104.201ZM154.672 102.108L153.672 102.246C153.364 102.289 153.132 102.366 152.975 102.476C152.819 102.584 152.74 102.776 152.74 103.054C152.74 103.255 152.812 103.421 152.955 103.55C153.101 103.677 153.294 103.74 153.534 103.74C153.864 103.74 154.135 103.626 154.348 103.397C154.564 103.165 154.672 102.873 154.672 102.521V102.108ZM157.252 104.201H156.588V98.0781H157.252V104.201ZM161.553 103.603H161.537V106.103H160.873V100.065H161.537V100.792H161.553C161.88 100.243 162.358 99.9682 162.987 99.9682C163.522 99.9682 163.939 100.154 164.239 100.525C164.538 100.894 164.688 101.39 164.688 102.012C164.688 102.703 164.519 103.258 164.182 103.676C163.844 104.09 163.382 104.297 162.797 104.297C162.259 104.297 161.845 104.066 161.553 103.603ZM161.537 101.935V102.512C161.537 102.854 161.648 103.145 161.869 103.385C162.093 103.621 162.377 103.74 162.72 103.74C163.122 103.74 163.437 103.587 163.663 103.28C163.893 102.973 164.008 102.546 164.008 101.999C164.008 101.539 163.901 101.178 163.688 100.917C163.475 100.656 163.185 100.525 162.821 100.525C162.435 100.525 162.124 100.66 161.889 100.929C161.654 101.196 161.537 101.531 161.537 101.935ZM167.912 100.735C167.796 100.646 167.629 100.602 167.41 100.602C167.126 100.602 166.889 100.735 166.697 101.002C166.508 101.268 166.413 101.632 166.413 102.093V104.201H165.749V100.065H166.413V100.917H166.43C166.524 100.626 166.669 100.4 166.863 100.238C167.057 100.074 167.275 99.9923 167.515 99.9923C167.688 99.9923 167.82 100.011 167.912 100.049V100.735ZM170.366 104.297C169.753 104.297 169.263 104.105 168.896 103.72C168.532 103.332 168.349 102.819 168.349 102.181C168.349 101.487 168.54 100.944 168.92 100.554C169.301 100.163 169.815 99.9682 170.464 99.9682C171.082 99.9682 171.564 100.158 171.909 100.537C172.258 100.917 172.432 101.443 172.432 102.117C172.432 102.776 172.244 103.305 171.869 103.704C171.496 104.1 170.996 104.297 170.366 104.297ZM170.415 100.525C169.988 100.525 169.651 100.671 169.402 100.962C169.154 101.25 169.03 101.648 169.03 102.157C169.03 102.647 169.155 103.033 169.406 103.316C169.658 103.599 169.994 103.74 170.415 103.74C170.844 103.74 171.174 103.601 171.403 103.324C171.635 103.047 171.751 102.652 171.751 102.141C171.751 101.624 171.635 101.226 171.403 100.945C171.174 100.666 170.844 100.525 170.415 100.525ZM179.382 104.201H178.717V101.826C178.717 101.368 178.646 101.037 178.503 100.832C178.362 100.628 178.125 100.525 177.79 100.525C177.507 100.525 177.265 100.655 177.065 100.913C176.868 101.171 176.769 101.481 176.769 101.842V104.201H176.105V101.745C176.105 100.932 175.791 100.525 175.161 100.525C174.87 100.525 174.63 100.648 174.441 100.893C174.252 101.135 174.157 101.452 174.157 101.842V104.201H173.493V100.065H174.157V100.719H174.173C174.468 100.218 174.897 99.9682 175.461 99.9682C175.745 99.9682 175.992 100.047 176.202 100.206C176.413 100.363 176.557 100.568 176.636 100.824C176.944 100.253 177.403 99.9682 178.013 99.9682C178.925 99.9682 179.382 100.53 179.382 101.652V104.201ZM182.371 104.297C181.758 104.297 181.268 104.105 180.901 103.72C180.536 103.332 180.354 102.819 180.354 102.181C180.354 101.487 180.544 100.944 180.925 100.554C181.306 100.163 181.82 99.9682 182.468 99.9682C183.086 99.9682 183.568 100.158 183.914 100.537C184.262 100.917 184.436 101.443 184.436 102.117C184.436 102.776 184.249 103.305 183.873 103.704C183.501 104.1 183 104.297 182.371 104.297ZM182.419 100.525C181.993 100.525 181.655 100.671 181.407 100.962C181.158 101.25 181.034 101.648 181.034 102.157C181.034 102.647 181.16 103.033 181.411 103.316C181.662 103.599 181.998 103.74 182.419 103.74C182.849 103.74 183.178 103.601 183.407 103.324C183.64 103.047 183.756 102.652 183.756 102.141C183.756 101.624 183.64 101.226 183.407 100.945C183.178 100.666 182.849 100.525 182.419 100.525ZM187.421 104.16C187.265 104.246 187.058 104.289 186.801 104.289C186.075 104.289 185.712 103.885 185.712 103.078V100.631H184.999V100.065H185.712V99.0553L186.376 98.8414V100.065H187.421V100.631H186.376V102.961C186.376 103.238 186.424 103.436 186.518 103.554C186.613 103.673 186.769 103.732 186.988 103.732C187.155 103.732 187.3 103.686 187.421 103.595V104.16ZM191.641 102.298H188.713C188.724 102.759 188.848 103.114 189.086 103.364C189.324 103.615 189.65 103.74 190.066 103.74C190.533 103.74 190.962 103.587 191.354 103.28V103.902C190.99 104.165 190.507 104.297 189.908 104.297C189.322 104.297 188.862 104.11 188.527 103.736C188.192 103.359 188.025 102.83 188.025 102.149C188.025 101.505 188.207 100.982 188.571 100.578C188.939 100.171 189.394 99.9682 189.936 99.9682C190.479 99.9682 190.899 100.143 191.196 100.493C191.493 100.843 191.641 101.329 191.641 101.951V102.298ZM190.961 101.737C190.958 101.355 190.865 101.057 190.682 100.844C190.501 100.632 190.248 100.525 189.924 100.525C189.611 100.525 189.345 100.637 189.126 100.861C188.908 101.084 188.773 101.376 188.721 101.737H190.961Z" fill="#265983"/>
</g>
</g>
<defs>
<filter id="filter0_dd_805_463" x="0" y="0" width="300" height="174" filterUnits="userSpaceOnUse" color-interpolation-filters="sRGB">
<feFlood flood-opacity="0" result="BackgroundImageFix"/>
<feColorMatrix in="SourceAlpha" type="matrix" values="0 0 0 0 0 0 0 0 0 0 0 0 0 0 0 0 0 0 127 0" result="hardAlpha"/>
<feOffset dx="20" dy="20"/>
<feGaussianBlur stdDeviation="5"/>
<feComposite in2="hardAlpha" operator="out"/>
<feColorMatrix type="matrix" values="0 0 0 0 0.919444 0 0 0 0 0.919444 0 0 0 0 0.919444 0 0 0 0.15 0"/>
<feBlend mode="normal" in2="BackgroundImageFix" result="effect1_dropShadow_805_463"/>
<feColorMatrix in="SourceAlpha" type="matrix" values="0 0 0 0 0 0 0 0 0 0 0 0 0 0 0 0 0 0 127 0" result="hardAlpha"/>
<feOffset dx="-20" dy="-20"/>
<feGaussianBlur stdDeviation="5"/>
<feComposite in2="hardAlpha" operator="out"/>
<feColorMatrix type="matrix" values="0 0 0 0 0.849957 0 0 0 0 0.849957 0 0 0 0 0.849957 0 0 0 0.1 0"/>
<feBlend mode="normal" in2="effect1_dropShadow_805_463" result="effect2_dropShadow_805_463"/>
<feBlend mode="normal" in="SourceGraphic" in2="effect2_dropShadow_805_463" result="shape"/>
</filter>
<linearGradient id="paint0_linear_805_463" x1="138.464" y1="30" x2="138.464" y2="142" gradientUnits="userSpaceOnUse">
<stop stop-color="#C5BAFF"/>
<stop offset="1" stop-color="#80DAFD"/>
</linearGradient>
<clipPath id="clip0_805_463">
<rect x="82" y="60" width="134" height="51" rx="25.5" fill="white"/>
</clipPath>
</defs>
</svg>
