<svg width="248" height="100" viewBox="0 0 248 100" fill="none" xmlns="http://www.w3.org/2000/svg">
<path d="M0 16C0 7.16345 7.16344 0 16 0H218C234.569 0 248 13.4315 248 30V70C248 86.5685 234.569 100 218 100H16C7.16344 100 0 92.8366 0 84V16Z" fill="white"/>
<path d="M0 16C0 7.16345 7.16344 0 16 0H59C75.5685 0 89 13.4315 89 30V70C89 86.5685 75.5685 100 59 100H16C7.16345 100 0 92.8366 0 84V16Z" fill="url(#paint0_linear_1079_1126)"/>
<path fill-rule="evenodd" clip-rule="evenodd" d="M67.9929 67.6054L55.2429 29.3554C55.021 28.6957 54.5895 28.1266 54.0138 27.7352C53.4381 27.3438 52.7503 27.1516 52.0554 27.1879H36.9465C36.2783 27.1862 35.6263 27.3945 35.0829 27.7834C34.5396 28.1724 34.1322 28.7223 33.9184 29.3554L21.009 67.6054C20.8416 68.0986 20.7976 68.6251 20.8808 69.1393C20.9641 69.6537 21.1721 70.1395 21.4867 70.5548C21.8012 70.9698 22.2127 71.3017 22.6851 71.521C23.1575 71.7403 23.6764 71.8407 24.1965 71.8129H33.5359C34.1987 71.8082 34.8434 71.5965 35.3804 71.208C35.9174 70.8197 36.3201 70.2734 36.5321 69.6454L38.4765 63.9717L48.039 71.2073C48.5947 71.6099 49.2655 71.8222 49.9516 71.8129H64.8691C65.3839 71.8298 65.8952 71.7215 66.359 71.4977C66.8231 71.2736 67.2257 70.9408 67.5329 70.5271C67.8399 70.1137 68.042 69.6317 68.122 69.123C68.2023 68.614 68.158 68.0935 67.9929 67.6054ZM50.079 69.7092C49.8473 69.7092 49.6225 69.6308 49.4415 69.4861L31.4322 56.1304L31.1453 55.9073H40.7078L40.9628 55.2379L44.1503 47.1735L51.2904 68.3067C51.3478 68.4839 51.3583 68.6729 51.3213 68.8553C51.2843 69.0379 51.2011 69.2078 51.0794 69.349C50.9576 69.4899 50.8017 69.597 50.6265 69.6601C50.4513 69.7232 50.2627 69.7401 50.079 69.7092ZM64.9644 69.7092H53.1073C53.3454 69.028 53.3454 68.2863 53.1073 67.6054L40.1978 29.3554H52.0554C52.2804 29.3565 52.4994 29.4277 52.6824 29.5591C52.865 29.6905 53.0024 29.8756 53.0754 30.0886L65.9848 68.3386C66.0281 68.4973 66.0351 68.664 66.0045 68.8259C65.9742 68.9879 65.9073 69.1405 65.8091 69.2728C65.7106 69.4048 65.5838 69.5128 65.4375 69.5884C65.2912 69.6639 65.1292 69.7054 64.9644 69.7092Z" fill="#3F3E71"/>
<path d="M115.792 56L114.538 52.546H107.608L106.354 56H104.176L109.918 40.6H112.228L117.97 56H115.792ZM108.312 50.632H113.834L111.062 43.042L108.312 50.632ZM121.811 54.174H127.663V56H119.193V54.724L124.803 46.826H119.413V45H127.443V46.276L121.811 54.174ZM137.534 45H139.448V56H137.534V54.416C136.757 55.6627 135.569 56.286 133.97 56.286C132.68 56.286 131.646 55.8827 130.868 55.076C130.091 54.2547 129.702 53.1473 129.702 51.754V45H131.616V51.644C131.616 52.5387 131.858 53.2353 132.342 53.734C132.826 54.218 133.494 54.46 134.344 54.46C135.298 54.46 136.068 54.1667 136.654 53.58C137.241 52.9787 137.534 52.062 137.534 50.83V45ZM144.276 46.848C144.907 45.484 146.051 44.802 147.708 44.802V46.804C146.769 46.76 145.963 47.0093 145.288 47.552C144.613 48.0947 144.276 48.9673 144.276 50.17V56H142.362V45H144.276V46.848ZM150.321 51.38C150.512 52.3627 150.959 53.1253 151.663 53.668C152.382 54.2107 153.262 54.482 154.303 54.482C155.755 54.482 156.811 53.9467 157.471 52.876L159.099 53.8C158.029 55.4573 156.415 56.286 154.259 56.286C152.514 56.286 151.091 55.7433 149.991 54.658C148.906 53.558 148.363 52.172 148.363 50.5C148.363 48.8427 148.899 47.464 149.969 46.364C151.04 45.264 152.426 44.714 154.127 44.714C155.741 44.714 157.053 45.286 158.065 46.43C159.092 47.5593 159.605 48.9233 159.605 50.522C159.605 50.8007 159.583 51.0867 159.539 51.38H150.321ZM154.127 46.518C153.101 46.518 152.25 46.8113 151.575 47.398C150.901 47.97 150.483 48.74 150.321 49.708H157.669C157.508 48.6667 157.097 47.8747 156.437 47.332C155.777 46.7893 155.007 46.518 154.127 46.518Z" fill="#1E3D59"/>
<defs>
<linearGradient id="paint0_linear_1079_1126" x1="40.5599" y1="-3.0462e-06" x2="40.5599" y2="100" gradientUnits="userSpaceOnUse">
<stop stop-color="#C5BAFF"/>
<stop offset="1" stop-color="#80DAFD"/>
</linearGradient>
</defs>
</svg>
