<svg width="248" height="100" viewBox="0 0 248 100" fill="none" xmlns="http://www.w3.org/2000/svg">
<path d="M0 16C0 7.16345 7.16344 0 16 0H218C234.569 0 248 13.4315 248 30V70C248 86.5685 234.569 100 218 100H16C7.16344 100 0 92.8366 0 84V16Z" fill="white"/>
<path d="M0 16C0 7.16345 7.16344 0 16 0H59C75.5685 0 89 13.4315 89 30V70C89 86.5685 75.5685 100 59 100H16C7.16345 100 0 92.8366 0 84V16Z" fill="url(#paint0_linear_1079_1127)"/>
<path d="M67.8949 45.3031C66.9179 44.6593 65.7178 44.2752 64.4284 44.2752C64.2802 44.2752 64.1336 44.28 63.9886 44.2895L64.0077 44.2879C63.2969 44.2895 62.602 44.3533 61.9263 44.4712L61.9996 44.46C61.625 42.2973 60.366 40.4836 58.6176 39.3744L58.5874 39.3569L57.9036 38.9616L57.4542 39.6119C56.9187 40.4279 56.4995 41.3777 56.2493 42.393L56.2366 42.4551C56.0947 42.9715 56.0135 43.5644 56.0135 44.1764C56.0135 45.5008 56.396 46.7343 57.0558 47.775L57.0398 47.748C56.0246 48.2245 54.8389 48.5257 53.591 48.5831H53.5702H22.1271C21.3048 48.5847 20.6386 49.2493 20.6354 50.07C20.6338 50.1593 20.6338 50.2661 20.6338 50.3729C20.6338 53.1635 21.139 55.8362 22.0634 58.305L22.0124 58.1488C22.9017 60.7514 24.5815 62.8902 26.7618 64.3341L26.8064 64.3612C29.5859 65.8004 32.8754 66.6435 36.3609 66.6435C36.6908 66.6435 37.0175 66.6355 37.3443 66.6211L37.298 66.6227C37.3267 66.6227 37.3602 66.6227 37.3937 66.6227C39.4209 66.6227 41.4019 66.4299 43.3224 66.0617L43.1264 66.0936C45.9872 65.5581 48.5372 64.5971 50.8481 63.2679L50.7302 63.33C52.7335 62.1586 54.4452 60.7466 55.9019 59.1034L55.921 59.0811C58.0327 56.5949 59.7508 53.6926 60.9334 50.5306L60.9987 50.3314H61.4386C61.5262 50.3346 61.6282 50.3378 61.7302 50.3378C63.6842 50.3378 65.4596 49.5712 66.7713 48.3217L66.7681 48.3249C67.3689 47.7543 67.8454 47.061 68.1594 46.2833L68.1738 46.245L68.3682 45.6729L67.8949 45.3031ZM25.0405 47.6651H29.2576C29.46 47.6635 29.6241 47.4993 29.6241 47.2969V43.5436C29.6241 43.3412 29.46 43.1755 29.2576 43.1739H25.0405C24.8381 43.1755 24.6739 43.3396 24.6739 43.542V47.2969C24.6739 47.4993 24.8381 47.6651 25.0405 47.6651ZM30.8481 47.6651H35.062C35.2644 47.6651 35.4302 47.5009 35.4302 47.2969V43.5436C35.4302 43.3412 35.266 43.1755 35.0636 43.1739H30.8465C30.6425 43.1739 30.4768 43.3396 30.4768 43.5436V47.2969C30.4784 47.5009 30.6441 47.6651 30.8481 47.6651ZM36.7418 47.6651H40.9589C41.1613 47.6635 41.3254 47.4993 41.3254 47.2969V43.5436C41.3254 43.3412 41.1613 43.1755 40.9589 43.1739H36.7418C36.5394 43.1755 36.3753 43.3396 36.3753 43.542V47.2969C36.3753 47.4993 36.5394 47.6651 36.7434 47.6651H36.7418ZM42.5686 47.6651H46.7809C46.9849 47.6651 47.149 47.5009 47.1506 47.2969V43.5436C47.1506 43.3396 46.9849 43.1739 46.7809 43.1739H42.5686C42.3662 43.1739 42.2004 43.338 42.2004 43.542V47.2969C42.2004 47.4993 42.3646 47.6651 42.567 47.6651C42.567 47.6651 42.567 47.6651 42.5686 47.6651ZM30.8481 42.2655H35.062C35.266 42.2639 35.4302 42.0997 35.4302 41.8957V38.1424C35.4302 37.94 35.266 37.7743 35.062 37.7743H30.8481C30.6441 37.7743 30.48 37.9384 30.4784 38.1424V41.8957C30.48 42.0997 30.6441 42.2639 30.8481 42.2655ZM36.7418 42.2655H40.9589C41.1613 42.2639 41.3254 42.0981 41.3254 41.8957V38.1424C41.3254 37.94 41.1613 37.7743 40.9573 37.7743H36.745C36.5426 37.7743 36.3769 37.9384 36.3769 38.1424V41.8957C36.3784 42.0997 36.541 42.2639 36.745 42.2655H36.7418ZM42.5686 42.2655H46.7809C46.9849 42.2639 47.149 42.0997 47.1506 41.8957V38.1424C47.149 37.9384 46.9849 37.7743 46.7809 37.7743H42.5686C42.3662 37.7743 42.2004 37.9384 42.2004 38.1424V41.8957C42.2004 42.0997 42.3646 42.2639 42.5686 42.2655ZM42.5686 36.8658H46.7809C46.9849 36.8658 47.1506 36.7001 47.1506 36.4961V32.7412C47.149 32.5372 46.9849 32.373 46.7809 32.373H42.5686C42.3662 32.373 42.2004 32.5372 42.2004 32.7412V36.4961C42.2004 36.6985 42.3646 36.8642 42.567 36.8642C42.567 36.8642 42.567 36.8642 42.5686 36.8642V36.8658ZM48.4447 47.6651H52.6586C52.8626 47.6651 53.0268 47.5009 53.0284 47.2969V43.5436C53.0284 43.3396 52.8626 43.1739 52.6586 43.1739H48.4447C48.2407 43.1739 48.0766 43.338 48.0766 43.542V47.2969C48.0766 47.4993 48.2407 47.6651 48.4447 47.6651Z" fill="#3F3E71"/>
<path d="M111.656 40.6C113.753 40.6 115.491 41.348 116.87 42.844C118.263 44.3253 118.96 46.144 118.96 48.3C118.96 50.456 118.263 52.282 116.87 53.778C115.491 55.2593 113.753 56 111.656 56H105.65V40.6H111.656ZM111.656 54.064C113.225 54.064 114.509 53.514 115.506 52.414C116.503 51.314 117.002 49.9427 117.002 48.3C117.002 46.6573 116.503 45.286 115.506 44.186C114.509 43.086 113.225 42.536 111.656 42.536H107.696V54.064H111.656ZM130.527 54.614C129.398 55.7287 128.026 56.286 126.413 56.286C124.8 56.286 123.428 55.7287 122.299 54.614C121.184 53.4993 120.627 52.128 120.627 50.5C120.627 48.872 121.184 47.5007 122.299 46.386C123.428 45.2713 124.8 44.714 126.413 44.714C128.026 44.714 129.398 45.2713 130.527 46.386C131.656 47.5007 132.221 48.872 132.221 50.5C132.221 52.128 131.656 53.4993 130.527 54.614ZM126.413 54.416C127.513 54.416 128.437 54.042 129.185 53.294C129.933 52.546 130.307 51.6147 130.307 50.5C130.307 49.3853 129.933 48.454 129.185 47.706C128.437 46.958 127.513 46.584 126.413 46.584C125.328 46.584 124.411 46.958 123.663 47.706C122.915 48.454 122.541 49.3853 122.541 50.5C122.541 51.6147 122.915 52.546 123.663 53.294C124.411 54.042 125.328 54.416 126.413 54.416ZM139.647 56.286C137.99 56.286 136.611 55.736 135.511 54.636C134.411 53.5213 133.861 52.1427 133.861 50.5C133.861 48.8573 134.411 47.486 135.511 46.386C136.611 45.2713 137.99 44.714 139.647 44.714C140.733 44.714 141.708 44.978 142.573 45.506C143.439 46.0193 144.084 46.716 144.509 47.596L142.903 48.52C142.625 47.9333 142.192 47.464 141.605 47.112C141.033 46.76 140.381 46.584 139.647 46.584C138.547 46.584 137.623 46.958 136.875 47.706C136.142 48.454 135.775 49.3853 135.775 50.5C135.775 51.6 136.142 52.524 136.875 53.272C137.623 54.02 138.547 54.394 139.647 54.394C140.381 54.394 141.041 54.2253 141.627 53.888C142.214 53.536 142.661 53.0667 142.969 52.48L144.597 53.426C144.128 54.2913 143.453 54.988 142.573 55.516C141.693 56.0293 140.718 56.286 139.647 56.286ZM155.793 56H153.417L148.401 50.786V56H146.487V40.6H148.401V49.862L153.153 45H155.617L150.359 50.324L155.793 56ZM157.905 51.38C158.096 52.3627 158.543 53.1253 159.247 53.668C159.966 54.2107 160.846 54.482 161.887 54.482C163.339 54.482 164.395 53.9467 165.055 52.876L166.683 53.8C165.613 55.4573 163.999 56.286 161.843 56.286C160.098 56.286 158.675 55.7433 157.575 54.658C156.49 53.558 155.947 52.172 155.947 50.5C155.947 48.8427 156.483 47.464 157.553 46.364C158.624 45.264 160.01 44.714 161.711 44.714C163.325 44.714 164.637 45.286 165.649 46.43C166.676 47.5593 167.189 48.9233 167.189 50.522C167.189 50.8007 167.167 51.0867 167.123 51.38H157.905ZM161.711 46.518C160.685 46.518 159.834 46.8113 159.159 47.398C158.485 47.97 158.067 48.74 157.905 49.708H165.253C165.092 48.6667 164.681 47.8747 164.021 47.332C163.361 46.7893 162.591 46.518 161.711 46.518ZM171.304 46.848C171.934 45.484 173.078 44.802 174.736 44.802V46.804C173.797 46.76 172.99 47.0093 172.316 47.552C171.641 48.0947 171.304 48.9673 171.304 50.17V56H169.389V45H171.304V46.848Z" fill="#1E3D59"/>
<defs>
<linearGradient id="paint0_linear_1079_1127" x1="40.5599" y1="-3.0462e-06" x2="40.5599" y2="100" gradientUnits="userSpaceOnUse">
<stop stop-color="#C5BAFF"/>
<stop offset="1" stop-color="#80DAFD"/>
</linearGradient>
</defs>
</svg>
