<svg width="248" height="100" viewBox="0 0 248 100" fill="none" xmlns="http://www.w3.org/2000/svg">
<path d="M0 16C0 7.16345 7.16344 0 16 0H218C234.569 0 248 13.4315 248 30V70C248 86.5685 234.569 100 218 100H16C7.16344 100 0 92.8366 0 84V16Z" fill="white"/>
<path d="M0 16C0 7.16345 7.16344 0 16 0H59C75.5685 0 89 13.4315 89 30V70C89 86.5685 75.5685 100 59 100H16C7.16345 100 0 92.8366 0 84V16Z" fill="url(#paint0_linear_1079_1129)"/>
<g clip-path="url(#clip0_1079_1129)">
<path d="M49.2409 29.846L59.7278 35.9002C60.5566 35.0289 61.7253 34.4892 63.0194 34.4892C65.5291 34.4892 67.5627 36.5228 67.5627 39.0324C67.5627 41.1595 66.1007 42.9467 64.1266 43.4397L64.0947 43.446V55.5585C66.1113 56.0537 67.5839 57.845 67.5839 59.9807C67.5839 62.4924 65.5482 64.5282 63.0364 64.5282C61.6828 64.5282 60.4694 63.9374 59.6364 63.0003L59.6322 62.996L49.2091 69.014C49.3557 69.4433 49.4407 69.9363 49.4407 70.4484C49.4407 72.9602 47.4049 74.9959 44.8932 74.9959C42.3814 74.9959 40.3457 72.9602 40.3457 70.4484C40.3457 69.9894 40.4137 69.5453 40.5412 69.1288L40.5327 69.1607L30.0331 63.1172C29.2043 63.982 28.0377 64.5197 26.7478 64.5197C24.2361 64.5197 22.2003 62.4839 22.2003 59.9722C22.2003 57.8429 23.6644 56.0537 25.6407 55.5607L25.6726 55.5543V43.4439C23.6517 42.953 22.1748 41.1574 22.1748 39.0197C22.1748 36.5079 24.2106 34.4722 26.7223 34.4722C27.5638 34.4722 28.3543 34.7017 29.0301 35.1012L29.0088 35.0905C29.3998 35.3158 29.7356 35.5814 30.0267 35.8895L30.0288 35.8917L40.5221 29.8354C40.4031 29.4487 40.3351 29.0045 40.3351 28.5434C40.3351 26.0338 42.3708 23.998 44.8804 23.998C47.3901 23.998 49.4258 26.0338 49.4258 28.5434C49.4258 29.0088 49.3557 29.4572 49.2261 29.88L49.2346 29.8482L49.2409 29.846ZM48.1466 31.7097C48.1062 31.7543 48.0679 31.7925 48.0254 31.8308L48.0233 31.8329L61.7529 55.6117C61.8082 55.5925 61.8719 55.5777 61.9272 55.5628V43.4354C59.9339 42.9297 58.4826 41.1489 58.4826 39.0324C58.4826 38.6435 58.5314 38.2653 58.6228 37.904L58.6164 37.9359C58.6292 37.8849 58.6419 37.8318 58.6568 37.7829L48.1466 31.7097ZM41.7397 31.835L41.6122 31.7075L31.1019 37.768C31.2146 38.1442 31.2804 38.5777 31.2804 39.026C31.2804 41.0852 29.9098 42.8234 28.0292 43.3802L27.9973 43.3887L27.8358 43.4333V55.5628L28.0143 55.6117L41.7439 31.8329L41.7397 31.835ZM46.1512 32.9124C45.7708 33.025 45.3352 33.0909 44.8847 33.0909C44.4342 33.0909 43.9986 33.025 43.5863 32.9039L43.6182 32.9124L29.8907 56.689C30.4984 57.2755 30.9447 58.0257 31.1593 58.8693L31.1657 58.9012H58.6016C58.8183 58.0235 59.2667 57.2692 59.8744 56.6848L59.8766 56.6827L46.1576 32.9124H46.1512ZM48.2464 67.3948L58.6951 61.364C58.6632 61.2642 58.6377 61.1643 58.6143 61.0623H31.1593L31.1147 61.2387L41.6101 67.2992C42.4388 66.4428 43.5991 65.9115 44.8826 65.9115C46.2128 65.9115 47.4092 66.481 48.2422 67.3905L48.2464 67.3948Z" fill="#3F3E71"/>
</g>
<path d="M120.5 48.366V49.29C120.5 51.2993 119.811 52.9713 118.432 54.306C117.053 55.626 115.227 56.286 112.954 56.286C110.607 56.286 108.664 55.516 107.124 53.976C105.599 52.4213 104.836 50.5293 104.836 48.3C104.836 46.0707 105.599 44.186 107.124 42.646C108.664 41.0913 110.593 40.314 112.91 40.314C114.333 40.314 115.638 40.6587 116.826 41.348C118.014 42.0227 118.931 42.9173 119.576 44.032L117.816 45.066C117.376 44.23 116.709 43.5627 115.814 43.064C114.934 42.5507 113.959 42.294 112.888 42.294C111.128 42.294 109.683 42.8733 108.554 44.032C107.425 45.176 106.86 46.5987 106.86 48.3C106.86 50.0013 107.425 51.424 108.554 52.568C109.698 53.712 111.172 54.284 112.976 54.284C114.516 54.284 115.763 53.91 116.716 53.162C117.669 52.3993 118.249 51.4167 118.454 50.214H112.8V48.366H120.5ZM124.704 46.848C125.335 45.484 126.479 44.802 128.136 44.802V46.804C127.197 46.76 126.391 47.0093 125.716 47.552C125.041 48.0947 124.704 48.9673 124.704 50.17V56H122.79V45H124.704V46.848ZM138.515 45H140.429V56H138.515V54.108C137.562 55.56 136.176 56.286 134.357 56.286C132.817 56.286 131.504 55.7287 130.419 54.614C129.334 53.4847 128.791 52.1133 128.791 50.5C128.791 48.8867 129.334 47.5227 130.419 46.408C131.504 45.2787 132.817 44.714 134.357 44.714C136.176 44.714 137.562 45.44 138.515 46.892V45ZM134.599 54.438C135.714 54.438 136.645 54.064 137.393 53.316C138.141 52.5533 138.515 51.6147 138.515 50.5C138.515 49.3853 138.141 48.454 137.393 47.706C136.645 46.9433 135.714 46.562 134.599 46.562C133.499 46.562 132.575 46.9433 131.827 47.706C131.079 48.454 130.705 49.3853 130.705 50.5C130.705 51.6147 131.079 52.5533 131.827 53.316C132.575 54.064 133.499 54.438 134.599 54.438ZM149.401 44.714C150.941 44.714 152.254 45.2787 153.339 46.408C154.424 47.5227 154.967 48.8867 154.967 50.5C154.967 52.1133 154.424 53.4847 153.339 54.614C152.254 55.7287 150.941 56.286 149.401 56.286C147.582 56.286 146.196 55.56 145.243 54.108V60.4H143.329V45H145.243V46.892C146.196 45.44 147.582 44.714 149.401 44.714ZM149.159 54.438C150.259 54.438 151.183 54.064 151.931 53.316C152.679 52.5533 153.053 51.6147 153.053 50.5C153.053 49.3853 152.679 48.454 151.931 47.706C151.183 46.9433 150.259 46.562 149.159 46.562C148.044 46.562 147.113 46.9433 146.365 47.706C145.617 48.454 145.243 49.3853 145.243 50.5C145.243 51.6147 145.617 52.5533 146.365 53.316C147.113 54.064 148.044 54.438 149.159 54.438ZM162.729 44.714C164.019 44.714 165.053 45.1247 165.831 45.946C166.608 46.7527 166.997 47.8527 166.997 49.246V56H165.083V49.356C165.083 48.4613 164.841 47.772 164.357 47.288C163.873 46.7893 163.205 46.54 162.355 46.54C161.401 46.54 160.631 46.8407 160.045 47.442C159.458 48.0287 159.165 48.938 159.165 50.17V56H157.251V40.6H159.165V46.584C159.942 45.3373 161.13 44.714 162.729 44.714ZM185.003 48.3C185.003 50.412 184.277 52.238 182.825 53.778L184.519 55.472L183.111 56.748L181.373 54.988C180.038 55.8533 178.586 56.286 177.017 56.286C174.817 56.286 172.939 55.5087 171.385 53.954C169.83 52.3993 169.053 50.5147 169.053 48.3C169.053 46.0853 169.83 44.2007 171.385 42.646C172.939 41.0913 174.817 40.314 177.017 40.314C179.217 40.314 181.094 41.0913 182.649 42.646C184.218 44.2007 185.003 46.0853 185.003 48.3ZM177.017 54.284C178.073 54.284 179.041 54.0347 179.921 53.536L176.841 50.434L178.249 49.18L181.417 52.348C182.443 51.2333 182.957 49.884 182.957 48.3C182.957 46.6133 182.377 45.1907 181.219 44.032C180.075 42.8733 178.674 42.294 177.017 42.294C175.359 42.294 173.951 42.8733 172.793 44.032C171.649 45.1907 171.077 46.6133 171.077 48.3C171.077 49.972 171.649 51.3873 172.793 52.546C173.951 53.7047 175.359 54.284 177.017 54.284ZM189.616 54.064H196.26V56H187.57V40.6H189.616V54.064Z" fill="#1E3D59"/>
<defs>
<linearGradient id="paint0_linear_1079_1129" x1="40.5599" y1="-3.0462e-06" x2="40.5599" y2="100" gradientUnits="userSpaceOnUse">
<stop stop-color="#C5BAFF"/>
<stop offset="1" stop-color="#80DAFD"/>
</linearGradient>
<clipPath id="clip0_1079_1129">
<rect width="51" height="51" fill="white" transform="translate(19 24)"/>
</clipPath>
</defs>
</svg>
