<svg width="248" height="100" viewBox="0 0 248 100" fill="none" xmlns="http://www.w3.org/2000/svg">
<path d="M0 16C0 7.16345 7.16344 0 16 0H218C234.569 0 248 13.4315 248 30V70C248 86.5685 234.569 100 218 100H16C7.16344 100 0 92.8366 0 84V16Z" fill="white"/>
<path d="M0 16C0 7.16345 7.16344 0 16 0H59C75.5685 0 89 13.4315 89 30V70C89 86.5685 75.5685 100 59 100H16C7.16345 100 0 92.8366 0 84V16Z" fill="url(#paint0_linear_1079_1124)"/>
<path d="M38.316 44.7565C37.8449 43.715 37.6337 42.5001 37.9936 41.3966C38.3534 40.2683 39.1593 39.3632 39.9653 38.52C42.209 36.2757 44.9741 34.6268 47.1686 32.3457C48.3836 31.0933 49.3877 29.593 49.7348 27.8695C50.0201 26.605 49.8838 25.3032 49.6235 24.0508C50.7889 25.3775 51.1733 27.2744 50.8384 28.9855C50.4791 30.9072 49.4124 32.6057 48.1603 34.0687C47.1562 35.2468 46.0029 36.2882 44.8004 37.2555C43.3994 38.3838 42.0233 39.5987 41.1432 41.1858C40.3989 42.475 40.2253 44.0621 40.7338 45.4632C41.5646 47.8684 43.4985 49.6539 44.5526 51.9227C43.3869 50.8935 42.2464 49.8273 41.1798 48.6992C40.0644 47.5089 39.0103 46.2444 38.316 44.7565ZM44.6392 42.8718C44.4285 44.8432 45.4572 46.7029 46.685 48.1661C47.2799 48.8231 47.7883 49.6291 47.8129 50.5467C47.8379 51.7737 47.1439 52.9148 46.2506 53.7203C46.4617 53.6958 46.6104 53.5097 46.784 53.4105C48.1231 52.555 49.4122 51.4763 50.0694 50.0012C50.5034 48.9969 50.4042 47.8064 49.8341 46.8764C49.1643 45.7853 48.2843 44.8182 47.7636 43.6281C47.478 42.9586 47.3789 42.1776 47.6146 41.4709C47.9248 40.5163 48.5941 39.7351 49.301 39.0531C51.2473 37.206 53.603 35.8912 55.8596 34.4533C53.0079 35.2715 50.1936 36.3999 47.7883 38.173C46.2632 39.3136 44.85 40.9005 44.6392 42.8718ZM58.1909 52.1956C59.5424 52.2701 60.8686 53.2618 61.1168 54.6258C61.3525 55.8037 60.7823 56.969 60.0505 57.8616C58.8477 59.2997 57.2234 60.329 55.5873 61.2094C55.4258 61.3081 55.2895 61.4322 55.1655 61.5688C57.3229 61.0231 59.48 60.2052 61.2284 58.804C62.1951 57.9981 63.0507 56.9314 63.2368 55.6544C63.4104 54.5512 62.9519 53.4104 62.1334 52.679C61.1413 51.7736 59.7407 51.4391 58.4262 51.6128C57.6698 51.7119 56.8393 51.8731 56.3186 52.5054C56.9388 52.3818 57.5458 52.1336 58.1909 52.1956ZM31.2738 55.7412C32.8977 56.1752 34.5716 56.2993 36.233 56.411C37.7208 56.5101 39.2088 56.5351 40.7092 56.5225C44.5773 56.4609 48.4703 56.2002 52.2641 55.3572C52.6235 55.2705 53.0205 55.2085 53.3432 54.9854C53.9754 54.576 54.6693 54.2535 55.3515 53.9312C52.2641 54.4272 49.1645 54.8491 46.0403 55.0473C42.8787 55.2456 39.6921 55.3697 36.5183 55.159C35.6132 55.0723 34.6832 55.0224 33.8402 54.6751C33.6416 54.5884 33.3688 54.4152 33.4679 54.1544C33.654 53.8196 34.026 53.6587 34.3483 53.4851C35.7124 52.8403 37.2 52.4809 38.6507 52.0593C36.1584 52.0219 33.6786 52.6541 31.3978 53.6338C30.8893 53.8819 30.319 54.0801 29.91 54.5018C29.7484 54.675 29.7484 54.9731 29.9346 55.1215C30.3067 55.4563 30.8023 55.605 31.2738 55.7412ZM51.3594 59.1511C49.1895 59.5355 47.0071 59.8954 44.8125 60.0067C42.4072 60.1678 40.0019 60.0313 37.6216 59.7835C37.163 59.7214 36.7041 59.6472 36.2951 59.4365C36.0843 59.3124 35.8736 59.1142 35.8861 58.8534C35.9107 58.4444 36.2576 58.1594 36.5058 57.8617C35.7374 58.1345 34.9685 58.4194 34.3238 58.9283C34.0507 59.1391 33.7781 59.4736 33.8524 59.8455C33.9644 60.2794 34.3859 60.5398 34.7578 60.738C35.675 61.2095 36.7042 61.4199 37.7087 61.606C40.2499 62.0154 42.8413 62.0279 45.3953 61.8538C48.0988 61.6432 50.7889 61.197 53.405 60.4281C52.6611 60.0936 51.9543 59.7088 51.3594 59.1511ZM37.7332 63.4414C37.039 63.6396 36.3321 63.8754 35.762 64.3336C35.4763 64.5568 35.2535 64.9416 35.39 65.3011C35.5636 65.7597 35.9976 66.0329 36.4063 66.2678C37.473 66.8509 38.6754 67.1234 39.8532 67.3344C42.5193 67.7557 45.259 67.6938 47.9124 67.2229C49.4868 66.9251 51.0616 66.5036 52.5244 65.8468C51.5698 65.4499 50.6401 65.0034 49.7475 64.4828C48.1977 64.7556 46.6351 65.0409 45.0481 65.14C42.9532 65.3012 40.8328 65.1276 38.7374 64.8673C38.2413 64.7557 37.6216 64.7062 37.2868 64.2721C37.1136 63.9122 37.5101 63.6518 37.7332 63.4414ZM54.6944 71.4132C56.43 71.0543 58.1785 70.6444 59.7653 69.8388C60.261 69.5532 60.8686 69.2433 61.0302 68.6485C61.1168 68.0782 60.5217 67.7805 60.1001 67.5448C60.3604 67.8429 60.534 68.2766 60.2734 68.6236C59.8394 69.2066 59.096 69.4295 58.4386 69.6528C56.3807 70.2355 54.2479 70.4711 52.1279 70.7068C46.5114 71.215 40.8575 71.3391 35.2413 70.868C33.3567 70.6694 31.4345 70.4587 29.6369 69.7893C29.352 69.6652 28.918 69.5411 28.918 69.1566C29.0293 68.8225 29.352 68.6359 29.6369 68.4748C30.9263 67.8178 32.3646 67.4581 33.8027 67.3714C33.3816 67.1233 32.8855 67.0987 32.402 67.1111C31.1992 67.1483 30.0214 67.4581 28.881 67.8429C27.9014 68.2019 26.8971 68.599 26.1158 69.3183C25.8059 69.5907 25.521 70.1114 25.843 70.4836C26.339 71.0168 27.1079 71.153 27.7893 71.3141C31.6082 71.9715 35.4763 72.3429 39.3451 72.4795C44.4781 72.6287 49.6481 72.4054 54.6944 71.4132ZM59.7778 72.083C57.4467 72.8269 55.0292 73.2359 52.6236 73.5708C48.4703 74.0914 44.2795 74.2526 40.1011 74.1289C37.5596 74.0298 35.0181 73.8562 32.5133 73.4342C33.096 73.8311 33.8153 73.9549 34.485 74.141C37.2996 74.7363 40.1881 74.8479 43.0524 74.9345C47.2549 75.009 51.4581 74.8479 55.5994 74.1907C57.5586 73.844 59.5299 73.4222 61.2901 72.5046C62.208 72.0211 63.138 71.2768 63.2985 70.1984C62.3689 71.19 61.0302 71.649 59.7778 72.083Z" fill="#3F3E71"/>
<path d="M109.654 56.286C108.539 56.286 107.557 56.0513 106.706 55.582C105.855 55.1127 105.232 54.4307 104.836 53.536L106.574 52.524C107.029 53.6973 108.055 54.284 109.654 54.284C110.637 54.284 111.407 54.0493 111.964 53.58C112.521 53.1107 112.8 52.414 112.8 51.49V40.6H114.824V51.49C114.824 53.03 114.333 54.218 113.35 55.054C112.382 55.8753 111.15 56.286 109.654 56.286ZM126.72 45H128.634V56H126.72V54.108C125.767 55.56 124.381 56.286 122.562 56.286C121.022 56.286 119.709 55.7287 118.624 54.614C117.539 53.4847 116.996 52.1133 116.996 50.5C116.996 48.8867 117.539 47.5227 118.624 46.408C119.709 45.2787 121.022 44.714 122.562 44.714C124.381 44.714 125.767 45.44 126.72 46.892V45ZM122.804 54.438C123.919 54.438 124.85 54.064 125.598 53.316C126.346 52.5533 126.72 51.6147 126.72 50.5C126.72 49.3853 126.346 48.454 125.598 47.706C124.85 46.9433 123.919 46.562 122.804 46.562C121.704 46.562 120.78 46.9433 120.032 47.706C119.284 48.454 118.91 49.3853 118.91 50.5C118.91 51.6147 119.284 52.5533 120.032 53.316C120.78 54.064 121.704 54.438 122.804 54.438ZM139.234 45H141.302L136.902 56H134.658L130.258 45H132.326L135.78 53.954L139.234 45ZM151.599 45H153.513V56H151.599V54.108C150.646 55.56 149.26 56.286 147.441 56.286C145.901 56.286 144.588 55.7287 143.503 54.614C142.418 53.4847 141.875 52.1133 141.875 50.5C141.875 48.8867 142.418 47.5227 143.503 46.408C144.588 45.2787 145.901 44.714 147.441 44.714C149.26 44.714 150.646 45.44 151.599 46.892V45ZM147.683 54.438C148.798 54.438 149.729 54.064 150.477 53.316C151.225 52.5533 151.599 51.6147 151.599 50.5C151.599 49.3853 151.225 48.454 150.477 47.706C149.729 46.9433 148.798 46.562 147.683 46.562C146.583 46.562 145.659 46.9433 144.911 47.706C144.163 48.454 143.789 49.3853 143.789 50.5C143.789 51.6147 144.163 52.5533 144.911 53.316C145.659 54.064 146.583 54.438 147.683 54.438Z" fill="#1E3D59"/>
<defs>
<linearGradient id="paint0_linear_1079_1124" x1="40.5599" y1="-3.0462e-06" x2="40.5599" y2="100" gradientUnits="userSpaceOnUse">
<stop stop-color="#C5BAFF"/>
<stop offset="1" stop-color="#80DAFD"/>
</linearGradient>
</defs>
</svg>
