<svg width="248" height="100" viewBox="0 0 248 100" fill="none" xmlns="http://www.w3.org/2000/svg">
<path d="M0 16C0 7.16345 7.16344 0 16 0H218C234.569 0 248 13.4315 248 30V70C248 86.5685 234.569 100 218 100H16C7.16344 100 0 92.8366 0 84V16Z" fill="white"/>
<path d="M0 16C0 7.16345 7.16344 0 16 0H59C75.5685 0 89 13.4315 89 30V70C89 86.5685 75.5685 100 59 100H16C7.16345 100 0 92.8366 0 84V16Z" fill="url(#paint0_linear_1079_1128)"/>
<path fill-rule="evenodd" clip-rule="evenodd" d="M36.1293 71.8125C35.0615 71.8125 34.0255 71.3248 33.3434 70.4387L22.9713 57.1404C22.63 56.7058 22.3913 56.1997 22.2732 55.6599C22.1551 55.12 22.1605 54.5605 22.2892 54.0231L26.0026 37.4257C26.2385 36.3261 26.9525 35.4399 27.931 34.9523L42.9601 27.5573C43.4382 27.3086 43.9705 27.1875 44.506 27.1875C45.0415 27.1875 45.5739 27.3086 46.052 27.5541L61.0747 34.9204C62.0564 35.4081 62.7704 36.2974 63.0063 37.3971L66.7197 53.9944C66.9556 55.0941 66.7197 56.2256 66.0376 57.1117L55.6559 70.4291C54.9738 71.2834 53.9347 71.8125 52.8669 71.8125H36.1293ZM60.7304 53.2134L60.8292 53.2389C60.9637 53.257 61.093 53.3027 61.2089 53.3732C61.3249 53.4437 61.4249 53.5374 61.5028 53.6486C61.5807 53.7597 61.6347 53.8857 61.6614 54.0188C61.6881 54.1518 61.6869 54.2889 61.658 54.4215C61.628 54.5547 61.5705 54.6802 61.489 54.7898C61.4075 54.8993 61.3039 54.9906 61.1849 55.0576C61.0659 55.1246 60.9342 55.1659 60.7983 55.1787C60.6623 55.1916 60.5252 55.1758 60.3957 55.1323H60.383L60.3734 55.1291L60.3639 55.1259L60.2682 55.1036L60.1089 55.0718C59.8115 54.976 59.5199 54.8632 59.2355 54.7339C58.6866 54.5136 58.1176 54.3471 57.5365 54.2366C57.3356 54.23 57.1401 54.302 56.9915 54.4374C56.8526 54.4111 56.7134 54.3866 56.5739 54.3641C55.6286 57.3248 53.6273 59.8344 50.9512 61.4149C50.999 61.5487 51.0532 61.6794 51.1137 61.8069C51.0148 61.9811 50.9885 62.1872 51.0404 62.3807C51.2763 62.9226 51.5664 63.4389 51.9042 63.9234C52.0955 64.1721 52.2676 64.4334 52.427 64.7012L52.5162 64.8829L52.5545 64.9626C52.6609 65.1389 52.7087 65.3444 52.6912 65.5496C52.6736 65.7549 52.5915 65.9492 52.4567 66.1049C52.3219 66.2607 52.1412 66.3697 51.9406 66.4164C51.74 66.4631 51.5298 66.4452 51.34 66.3651C51.2137 66.313 51.0996 66.2351 51.0051 66.1363C50.9107 66.0374 50.838 65.9199 50.7918 65.7913C50.7813 65.77 50.7706 65.7488 50.7599 65.7276L50.6707 65.5427C50.559 65.2509 50.4643 64.9529 50.387 64.6502C50.2176 64.0857 49.9934 63.5391 49.7176 63.0182C49.5978 62.8562 49.4193 62.7475 49.2204 62.7154C49.1882 62.6592 49.1563 62.6029 49.1247 62.5464L49.0132 62.3424C46.1113 63.4385 42.908 63.4306 40.0117 62.3201L39.7917 62.7186C39.6342 62.7428 39.4876 62.8139 39.371 62.9226C39.0395 63.4644 38.7845 64.0541 38.6155 64.6693C38.5394 64.972 38.4458 65.27 38.335 65.5618L38.2554 65.7212L38.2139 65.8073C38.1672 65.9349 38.0944 66.0547 38.0002 66.1526C37.9059 66.2506 37.7923 66.3279 37.6666 66.3795C37.5408 66.4311 37.4057 66.456 37.2698 66.4525C37.1339 66.449 37.0002 66.4172 36.8772 66.3592C36.7543 66.3012 36.6448 66.2182 36.5557 66.1155C36.4666 66.0128 36.3999 65.8927 36.3598 65.7628C36.3198 65.6329 36.3072 65.496 36.3229 65.361C36.3387 65.226 36.3824 65.0957 36.4512 64.9785L36.4959 64.8829L36.5787 64.7171C36.7381 64.4462 36.9102 64.188 37.1015 63.9394C37.4457 63.4421 37.739 62.913 37.9844 62.3584C38.0098 62.1698 37.9788 61.9779 37.8952 61.8069L38.0737 61.383C35.4073 59.815 33.4071 57.325 32.4509 54.3832L32.0238 54.4566C31.8589 54.3397 31.6646 54.2712 31.4628 54.2589C30.8817 54.3694 30.3128 54.5359 29.7639 54.7562C29.477 54.8837 29.1869 54.9952 28.8905 55.0909L28.7311 55.1259L28.6355 55.1483H28.6259L28.6195 55.1546H28.6036C28.442 55.2065 28.2697 55.2155 28.1035 55.1809C27.9374 55.1463 27.783 55.0692 27.6555 54.9571C27.528 54.8451 27.4318 54.7019 27.3762 54.5415C27.3206 54.3812 27.3075 54.2091 27.3382 54.0422C27.3773 53.8412 27.4787 53.6575 27.628 53.5174C27.7773 53.3772 27.967 53.2876 28.1701 53.2613L28.1829 53.2581H28.1924L28.2115 53.2517C28.288 53.2326 28.3837 53.2071 28.4538 53.1943C28.763 53.1529 29.0754 53.1274 29.3877 53.121C29.9806 53.0796 30.5671 52.9839 31.1377 52.8341C31.3068 52.7258 31.4494 52.5809 31.5552 52.4102L31.9632 52.2923C31.5199 49.2229 32.2284 46.0982 33.9522 43.5203L33.643 43.2429C33.6311 43.0411 33.5626 42.8467 33.4454 42.6819C32.9962 42.2966 32.5105 41.9561 31.9951 41.6651C31.7164 41.5235 31.4461 41.366 31.1855 41.1934C31.1167 41.1427 31.0497 41.0895 30.9847 41.034L30.9719 41.0213C30.7498 40.863 30.5995 40.6231 30.5541 40.3542C30.5087 40.0852 30.5718 39.8093 30.7297 39.5869C30.8235 39.473 30.9427 39.3828 31.0778 39.3235C31.213 39.2643 31.3601 39.2377 31.5074 39.2458C31.7551 39.2563 31.993 39.3456 32.1864 39.5008L32.2565 39.555C32.3075 39.5964 32.3649 39.6379 32.4031 39.6729C32.6294 39.8865 32.8462 40.116 33.047 40.3519C33.4454 40.7886 33.8853 41.187 34.3602 41.5376C34.5387 41.6332 34.7459 41.6524 34.9404 41.595L35.291 41.8436C37.4253 39.58 40.3242 38.1896 43.4255 37.9421L43.4478 37.5309C43.5996 37.3979 43.7102 37.2243 43.7665 37.0305C43.7881 36.4397 43.7518 35.8483 43.6582 35.2646C43.5959 34.9593 43.5512 34.6507 43.5243 34.3403V34.1713V34.0916V34.0789V34.0661C43.5099 33.9297 43.5245 33.7918 43.5671 33.6615C43.6096 33.5311 43.6792 33.4112 43.7712 33.3095C43.8633 33.2078 43.9757 33.1267 44.1013 33.0714C44.2268 33.0162 44.3625 32.988 44.4997 32.9887C44.6362 32.989 44.7712 33.0178 44.896 33.0732C45.0208 33.1286 45.1327 33.2094 45.2245 33.3105C45.3163 33.4116 45.386 33.5308 45.4291 33.6603C45.4723 33.7899 45.4879 33.927 45.475 34.0629V34.3403C45.4494 34.6506 45.4057 34.9593 45.3444 35.2646C45.25 35.8472 45.2126 36.4375 45.2328 37.0273C45.2712 37.2253 45.3856 37.4004 45.5515 37.515V37.5373L45.5739 37.9517C48.6562 38.229 51.5345 39.6156 53.6701 41.85L54.0399 41.5854C54.2396 41.62 54.445 41.598 54.6327 41.5217C55.1077 41.1711 55.5475 40.7726 55.946 40.3328C56.1473 40.0942 56.3623 39.8675 56.5899 39.6538L56.7524 39.5263L56.8066 39.4817C56.9804 39.318 57.208 39.2233 57.4466 39.2152C57.6852 39.2072 57.9186 39.2864 58.1031 39.438C58.2875 39.5897 58.4104 39.8033 58.4487 40.039C58.487 40.2747 58.4381 40.5162 58.3111 40.7184C58.2366 40.8331 58.1388 40.9308 58.0242 41.0053C57.9987 41.0212 57.97 41.0436 57.9445 41.0691L57.8075 41.1742C57.5469 41.3469 57.2766 41.5045 56.9979 41.646C56.4825 41.9382 55.9967 42.2798 55.5475 42.666C55.4165 42.8175 55.3501 43.0143 55.3627 43.2142C55.3099 43.2614 55.2568 43.3081 55.2033 43.3545L55.0184 43.5234C56.746 46.0926 57.4696 49.2067 57.0489 52.2731L57.4409 52.3879C57.5397 52.5664 57.6864 52.7098 57.8617 52.8086C58.4354 52.9616 59.0219 53.0573 59.6148 53.0955C59.924 53.1051 60.2364 53.1274 60.5455 53.172L60.7304 53.2134ZM51.5664 43.3322L47.3971 46.2806L47.3844 46.2743C47.2589 46.3668 47.1106 46.4235 46.9554 46.4384C46.8002 46.4532 46.6439 46.4256 46.5031 46.3585C46.3624 46.2914 46.2425 46.1874 46.1563 46.0574C46.0701 45.9275 46.0208 45.7766 46.0137 45.6208L45.7237 40.524C47.9263 40.7968 49.9787 41.7812 51.5664 43.3322ZM43.7155 48.9199H45.2838L46.2592 50.1343L45.9085 51.6516L44.4997 52.3241L43.0876 51.6452L42.737 50.1311L43.7155 48.9199ZM42.2365 40.7025C42.5776 40.626 42.925 40.5654 43.2757 40.524L42.9888 45.624L42.9633 45.6368C42.9586 45.7527 42.9303 45.8665 42.8802 45.9712C42.8301 46.0759 42.7592 46.1692 42.6718 46.2456C42.5844 46.3219 42.4824 46.3797 42.3719 46.4153C42.2615 46.4509 42.1449 46.4637 42.0294 46.4528C41.8741 46.4395 41.7254 46.3845 41.599 46.2934L41.5927 46.2966L37.3979 43.3322C38.7335 42.0253 40.4101 41.1137 42.2365 40.7025ZM35.8807 45.2383L39.7089 48.6521L39.7057 48.6744C39.8224 48.7764 39.9093 48.9082 39.9571 49.0556C40.0049 49.2031 40.0118 49.3607 39.9771 49.5118C39.9425 49.6629 39.8675 49.8017 39.7602 49.9136C39.6529 50.0255 39.5173 50.1061 39.3678 50.1471L39.3646 50.163L34.4559 51.5751C34.2117 49.3631 34.7132 47.1329 35.8807 45.2383ZM41.0062 54.3099L39.0554 59.0083C37.1863 57.8148 35.7633 56.0378 35.0073 53.9529L40.0372 53.1019L40.0467 53.1114C40.2429 53.0734 40.4462 53.1062 40.6205 53.2039C40.8056 53.3073 40.9461 53.4754 41.0149 53.676C41.0838 53.8766 41.0761 54.0955 40.9934 54.2908L41.0062 54.3099ZM46.7628 60.3534C44.9395 60.7678 43.0334 60.6722 41.2612 60.0729L43.7379 55.6104C43.8114 55.4738 43.9236 55.3596 44.0567 55.2799C44.1898 55.2002 44.342 55.1579 44.4971 55.1576C44.6523 55.1573 44.8046 55.1989 44.938 55.278C45.0715 55.3572 45.181 55.4709 45.2551 55.6073H45.2742L47.7573 60.0761C47.4306 60.1849 47.0986 60.2774 46.7628 60.3534ZM49.963 59.0274L47.9932 54.2812L47.9964 54.2717C47.9357 54.1292 47.9147 53.9729 47.9357 53.8194C47.9567 53.6659 48.0189 53.521 48.1157 53.4001C48.2124 53.2791 48.3402 53.1866 48.4853 53.1324C48.6304 53.0782 48.7875 53.0644 48.9399 53.0923L48.9494 53.0796L54.0271 53.937C53.2764 56.0387 51.8463 57.83 49.963 59.0274ZM54.5594 51.5591L49.6315 50.1407L49.6252 50.1216C49.5133 50.0906 49.4089 50.0374 49.3182 49.965C49.2274 49.8927 49.1523 49.8028 49.0972 49.7006C49.0421 49.5985 49.0082 49.4863 48.9976 49.3708C48.987 49.2552 48.9999 49.1387 49.0355 49.0283C49.0842 48.88 49.1724 48.7478 49.2905 48.6458L49.2809 48.6394L53.09 45.2383C54.2566 47.1317 54.7698 49.3502 54.5562 51.5591H54.5594Z" fill="#3F3E71"/>
<path d="M116.848 56H114.34L107.696 48.608V56H105.65V40.6H107.696V47.552L114.12 40.6H116.628L109.83 48.08L116.848 56ZM125.632 45H127.546V56H125.632V54.416C124.855 55.6627 123.667 56.286 122.068 56.286C120.777 56.286 119.743 55.8827 118.966 55.076C118.189 54.2547 117.8 53.1473 117.8 51.754V45H119.714V51.644C119.714 52.5387 119.956 53.2353 120.44 53.734C120.924 54.218 121.591 54.46 122.442 54.46C123.395 54.46 124.165 54.1667 124.752 53.58C125.339 52.9787 125.632 52.062 125.632 50.83V45ZM136.532 44.714C138.072 44.714 139.384 45.2787 140.47 46.408C141.555 47.5227 142.098 48.8867 142.098 50.5C142.098 52.1133 141.555 53.4847 140.47 54.614C139.384 55.7287 138.072 56.286 136.532 56.286C134.713 56.286 133.327 55.56 132.374 54.108V56H130.46V40.6H132.374V46.892C133.327 45.44 134.713 44.714 136.532 44.714ZM136.29 54.438C137.39 54.438 138.314 54.064 139.062 53.316C139.81 52.5533 140.184 51.6147 140.184 50.5C140.184 49.3853 139.81 48.454 139.062 47.706C138.314 46.9433 137.39 46.562 136.29 46.562C135.175 46.562 134.244 46.9433 133.496 47.706C132.748 48.454 132.374 49.3853 132.374 50.5C132.374 51.6147 132.748 52.5533 133.496 53.316C134.244 54.064 135.175 54.438 136.29 54.438ZM145.724 51.38C145.914 52.3627 146.362 53.1253 147.066 53.668C147.784 54.2107 148.664 54.482 149.706 54.482C151.158 54.482 152.214 53.9467 152.874 52.876L154.502 53.8C153.431 55.4573 151.818 56.286 149.662 56.286C147.916 56.286 146.494 55.7433 145.394 54.658C144.308 53.558 143.766 52.172 143.766 50.5C143.766 48.8427 144.301 47.464 145.372 46.364C146.442 45.264 147.828 44.714 149.53 44.714C151.143 44.714 152.456 45.286 153.468 46.43C154.494 47.5593 155.008 48.9233 155.008 50.522C155.008 50.8007 154.986 51.0867 154.942 51.38H145.724ZM149.53 46.518C148.503 46.518 147.652 46.8113 146.978 47.398C146.303 47.97 145.885 48.74 145.724 49.708H153.072C152.91 48.6667 152.5 47.8747 151.84 47.332C151.18 46.7893 150.41 46.518 149.53 46.518ZM159.122 46.848C159.753 45.484 160.897 44.802 162.554 44.802V46.804C161.615 46.76 160.809 47.0093 160.134 47.552C159.459 48.0947 159.122 48.9673 159.122 50.17V56H157.208V45H159.122V46.848ZM169.905 44.714C171.195 44.714 172.229 45.1247 173.007 45.946C173.784 46.7527 174.173 47.8527 174.173 49.246V56H172.259V49.356C172.259 48.4613 172.017 47.772 171.533 47.288C171.049 46.7893 170.381 46.54 169.531 46.54C168.577 46.54 167.807 46.8407 167.221 47.442C166.634 48.0287 166.341 48.938 166.341 50.17V56H164.427V45H166.341V46.584C167.118 45.3373 168.306 44.714 169.905 44.714ZM178.187 51.38C178.377 52.3627 178.825 53.1253 179.529 53.668C180.247 54.2107 181.127 54.482 182.169 54.482C183.621 54.482 184.677 53.9467 185.337 52.876L186.965 53.8C185.894 55.4573 184.281 56.286 182.125 56.286C180.379 56.286 178.957 55.7433 177.857 54.658C176.771 53.558 176.229 52.172 176.229 50.5C176.229 48.8427 176.764 47.464 177.835 46.364C178.905 45.264 180.291 44.714 181.993 44.714C183.606 44.714 184.919 45.286 185.931 46.43C186.957 47.5593 187.471 48.9233 187.471 50.522C187.471 50.8007 187.449 51.0867 187.405 51.38H178.187ZM181.993 46.518C180.966 46.518 180.115 46.8113 179.441 47.398C178.766 47.97 178.348 48.74 178.187 49.708H185.535C185.373 48.6667 184.963 47.8747 184.303 47.332C183.643 46.7893 182.873 46.518 181.993 46.518ZM195.332 46.848H192.406V52.81C192.406 53.3527 192.509 53.7413 192.714 53.976C192.934 54.196 193.264 54.3133 193.704 54.328C194.144 54.328 194.687 54.3133 195.332 54.284V56C193.66 56.22 192.436 56.088 191.658 55.604C190.881 55.1053 190.492 54.174 190.492 52.81V46.848H188.314V45H190.492V42.492L192.406 41.92V45H195.332V46.848ZM198.382 51.38C198.573 52.3627 199.02 53.1253 199.724 53.668C200.443 54.2107 201.323 54.482 202.364 54.482C203.816 54.482 204.872 53.9467 205.532 52.876L207.16 53.8C206.089 55.4573 204.476 56.286 202.32 56.286C200.575 56.286 199.152 55.7433 198.052 54.658C196.967 53.558 196.424 52.172 196.424 50.5C196.424 48.8427 196.959 47.464 198.03 46.364C199.101 45.264 200.487 44.714 202.188 44.714C203.801 44.714 205.114 45.286 206.126 46.43C207.153 47.5593 207.666 48.9233 207.666 50.522C207.666 50.8007 207.644 51.0867 207.6 51.38H198.382ZM202.188 46.518C201.161 46.518 200.311 46.8113 199.636 47.398C198.961 47.97 198.543 48.74 198.382 49.708H205.73C205.569 48.6667 205.158 47.8747 204.498 47.332C203.838 46.7893 203.068 46.518 202.188 46.518ZM211.086 47.97C211.086 48.3953 211.299 48.74 211.724 49.004C212.15 49.2533 212.663 49.4587 213.264 49.62C213.866 49.7667 214.467 49.9427 215.068 50.148C215.67 50.3387 216.183 50.676 216.608 51.16C217.034 51.6293 217.246 52.238 217.246 52.986C217.246 53.9833 216.858 54.7827 216.08 55.384C215.318 55.9853 214.335 56.286 213.132 56.286C212.062 56.286 211.145 56.0513 210.382 55.582C209.62 55.1127 209.077 54.4893 208.754 53.712L210.404 52.766C210.58 53.294 210.91 53.712 211.394 54.02C211.878 54.328 212.458 54.482 213.132 54.482C213.763 54.482 214.284 54.3647 214.694 54.13C215.105 53.8807 215.31 53.4993 215.31 52.986C215.31 52.5607 215.098 52.2233 214.672 51.974C214.247 51.71 213.734 51.5047 213.132 51.358C212.531 51.1967 211.93 51.0133 211.328 50.808C210.727 50.6027 210.214 50.2653 209.788 49.796C209.363 49.3267 209.15 48.7253 209.15 47.992C209.15 47.0387 209.517 46.254 210.25 45.638C210.998 45.022 211.93 44.714 213.044 44.714C213.939 44.714 214.731 44.9193 215.42 45.33C216.124 45.726 216.652 46.2833 217.004 47.002L215.398 47.904C215.002 46.9653 214.218 46.496 213.044 46.496C212.502 46.496 212.04 46.628 211.658 46.892C211.277 47.1413 211.086 47.5007 211.086 47.97Z" fill="#1E3D59"/>
<defs>
<linearGradient id="paint0_linear_1079_1128" x1="40.5599" y1="-3.0462e-06" x2="40.5599" y2="100" gradientUnits="userSpaceOnUse">
<stop stop-color="#C5BAFF"/>
<stop offset="1" stop-color="#80DAFD"/>
</linearGradient>
</defs>
</svg>
