<svg width="248" height="100" viewBox="0 0 248 100" fill="none" xmlns="http://www.w3.org/2000/svg">
<path d="M0 16C0 7.16345 7.16344 0 16 0H218C234.569 0 248 13.4315 248 30V70C248 86.5685 234.569 100 218 100H16C7.16344 100 0 92.8366 0 84V16Z" fill="white"/>
<path d="M0 16C0 7.16345 7.16344 0 16 0H59C75.5685 0 89 13.4315 89 30V70C89 86.5685 75.5685 100 59 100H16C7.16345 100 0 92.8366 0 84V16Z" fill="url(#paint0_linear_1079_1131)"/>
<path d="M44.2147 60.9509C44.2147 60.9509 44.2147 44.4381 44.7629 44.4397C45.1868 44.4397 45.7383 65.7402 45.7383 65.7402C44.9797 65.6509 44.2147 62.2355 44.2147 60.9509ZM54.8418 44.6309C53.3771 38.2304 50.1689 32.7272 45.7447 28.4799L45.7335 28.4703C45.1948 27.6479 44.7023 26.7044 44.3071 25.7099L44.2688 25.6016C44.2704 25.6334 44.2704 25.6717 44.2704 25.7099C44.2704 26.6104 43.8672 27.4153 43.2313 27.9555L43.2265 27.9587C37.5305 32.7942 33.9063 39.9198 33.7867 47.8933V47.9141C33.7852 48.0129 33.7852 48.1292 33.7852 48.2456C33.7852 56.1458 37.5862 63.1583 43.4592 67.5538L43.5214 67.5985L43.66 67.6989C43.9161 69.5944 44.135 71.4941 44.3167 73.3981H45.2745C45.5391 71.0218 45.8961 68.942 46.363 66.902L46.2897 67.2829C46.9208 66.8446 47.4723 66.3904 47.9871 65.8979L47.9823 65.9027C52.4464 61.7638 55.2322 55.8669 55.2322 49.3213C55.2322 49.2241 55.2322 49.1285 55.2307 49.0313V49.0456C55.2259 47.4822 55.084 45.9537 54.8147 44.47L54.8386 44.6278L54.8418 44.6309Z" fill="#3F3E71"/>
<path d="M120.06 40.6V56H118.036V43.966L112.998 52.348H112.734L107.696 43.988V56H105.65V40.6H107.96L112.866 48.74L117.75 40.6H120.06ZM132.439 54.614C131.31 55.7287 129.938 56.286 128.325 56.286C126.712 56.286 125.34 55.7287 124.211 54.614C123.096 53.4993 122.539 52.128 122.539 50.5C122.539 48.872 123.096 47.5007 124.211 46.386C125.34 45.2713 126.712 44.714 128.325 44.714C129.938 44.714 131.31 45.2713 132.439 46.386C133.568 47.5007 134.133 48.872 134.133 50.5C134.133 52.128 133.568 53.4993 132.439 54.614ZM128.325 54.416C129.425 54.416 130.349 54.042 131.097 53.294C131.845 52.546 132.219 51.6147 132.219 50.5C132.219 49.3853 131.845 48.454 131.097 47.706C130.349 46.958 129.425 46.584 128.325 46.584C127.24 46.584 126.323 46.958 125.575 47.706C124.827 48.454 124.453 49.3853 124.453 50.5C124.453 51.6147 124.827 52.546 125.575 53.294C126.323 54.042 127.24 54.416 128.325 54.416ZM141.868 44.714C143.158 44.714 144.192 45.1247 144.97 45.946C145.747 46.7527 146.136 47.8527 146.136 49.246V56H144.222V49.356C144.222 48.4613 143.98 47.772 143.496 47.288C143.012 46.7893 142.344 46.54 141.494 46.54C140.54 46.54 139.77 46.8407 139.184 47.442C138.597 48.0287 138.304 48.938 138.304 50.17V56H136.389V45H138.304V46.584C139.081 45.3373 140.269 44.714 141.868 44.714ZM157.937 45H159.829V55.538C159.829 57.166 159.279 58.4273 158.179 59.322C157.079 60.2313 155.759 60.686 154.219 60.686C152.987 60.686 151.924 60.4513 151.029 59.982C150.135 59.5273 149.46 58.8673 149.005 58.002L150.677 57.056C151.279 58.288 152.474 58.904 154.263 58.904C155.407 58.904 156.302 58.6033 156.947 58.002C157.607 57.4007 157.937 56.5793 157.937 55.538V53.976C156.969 55.4427 155.591 56.176 153.801 56.176C152.232 56.176 150.905 55.6187 149.819 54.504C148.734 53.3893 148.191 52.0327 148.191 50.434C148.191 48.8353 148.734 47.486 149.819 46.386C150.905 45.2713 152.232 44.714 153.801 44.714C155.605 44.714 156.984 45.44 157.937 46.892V45ZM151.227 53.228C151.975 53.976 152.907 54.35 154.021 54.35C155.136 54.35 156.067 53.976 156.815 53.228C157.563 52.48 157.937 51.5487 157.937 50.434C157.937 49.334 157.563 48.41 156.815 47.662C156.067 46.914 155.136 46.54 154.021 46.54C152.907 46.54 151.975 46.914 151.227 47.662C150.479 48.41 150.105 49.334 150.105 50.434C150.105 51.5487 150.479 52.48 151.227 53.228ZM172.013 54.614C170.884 55.7287 169.513 56.286 167.899 56.286C166.286 56.286 164.915 55.7287 163.785 54.614C162.671 53.4993 162.113 52.128 162.113 50.5C162.113 48.872 162.671 47.5007 163.785 46.386C164.915 45.2713 166.286 44.714 167.899 44.714C169.513 44.714 170.884 45.2713 172.013 46.386C173.143 47.5007 173.707 48.872 173.707 50.5C173.707 52.128 173.143 53.4993 172.013 54.614ZM167.899 54.416C168.999 54.416 169.923 54.042 170.671 53.294C171.419 52.546 171.793 51.6147 171.793 50.5C171.793 49.3853 171.419 48.454 170.671 47.706C169.923 46.958 168.999 46.584 167.899 46.584C166.814 46.584 165.897 46.958 165.149 47.706C164.401 48.454 164.027 49.3853 164.027 50.5C164.027 51.6147 164.401 52.546 165.149 53.294C165.897 54.042 166.814 54.416 167.899 54.416ZM182.168 40.6C184.265 40.6 186.003 41.348 187.382 42.844C188.775 44.3253 189.472 46.144 189.472 48.3C189.472 50.456 188.775 52.282 187.382 53.778C186.003 55.2593 184.265 56 182.168 56H176.162V40.6H182.168ZM182.168 54.064C183.737 54.064 185.02 53.514 186.018 52.414C187.015 51.314 187.514 49.9427 187.514 48.3C187.514 46.6573 187.015 45.286 186.018 44.186C185.02 43.086 183.737 42.536 182.168 42.536H178.208V54.064H182.168ZM200.753 48.014C201.457 48.3513 202.014 48.8353 202.425 49.466C202.85 50.0967 203.063 50.8227 203.063 51.644C203.063 52.876 202.63 53.91 201.765 54.746C200.899 55.582 199.843 56 198.597 56H191.953V40.6H198.113C199.315 40.6 200.335 41.0033 201.171 41.81C202.007 42.6167 202.425 43.614 202.425 44.802C202.425 46.166 201.867 47.2367 200.753 48.014ZM198.113 42.514H193.999V47.222H198.113C198.758 47.222 199.301 46.9947 199.741 46.54C200.181 46.0853 200.401 45.528 200.401 44.868C200.401 44.2227 200.173 43.6727 199.719 43.218C199.279 42.7487 198.743 42.514 198.113 42.514ZM198.597 54.086C199.286 54.086 199.865 53.844 200.335 53.36C200.804 52.876 201.039 52.282 201.039 51.578C201.039 50.8887 200.797 50.302 200.313 49.818C199.843 49.334 199.271 49.092 198.597 49.092H193.999V54.086H198.597Z" fill="#1E3D59"/>
<defs>
<linearGradient id="paint0_linear_1079_1131" x1="40.5599" y1="-3.0462e-06" x2="40.5599" y2="100" gradientUnits="userSpaceOnUse">
<stop stop-color="#C5BAFF"/>
<stop offset="1" stop-color="#80DAFD"/>
</linearGradient>
</defs>
</svg>
