<svg width="248" height="100" viewBox="0 0 248 100" fill="none" xmlns="http://www.w3.org/2000/svg">
<path d="M0 16C0 7.16345 7.16344 0 16 0H218C234.569 0 248 13.4315 248 30V70C248 86.5685 234.569 100 218 100H16C7.16344 100 0 92.8366 0 84V16Z" fill="white"/>
<path d="M0 16C0 7.16345 7.16344 0 16 0H59C75.5685 0 89 13.4315 89 30V70C89 86.5685 75.5685 100 59 100H16C7.16345 100 0 92.8366 0 84V16Z" fill="url(#paint0_linear_1079_1122)"/>
<g clip-path="url(#clip0_1079_1122)">
<path d="M42.8299 24.0137C42.7202 24.0237 42.3713 24.0586 42.0572 24.0835C34.8135 24.7365 28.0284 28.6444 23.7311 34.6509C21.3381 37.9906 19.8076 41.7789 19.2293 45.7915C19.0249 47.1921 19 47.6059 19 49.505C19 51.4041 19.0249 51.8179 19.2293 53.2185C20.6152 62.7939 27.4302 70.8391 36.673 73.8199C38.3282 74.3532 40.073 74.7171 42.0572 74.9364C42.8299 75.0212 46.1701 75.0212 46.9428 74.9364C50.3677 74.5576 53.2692 73.7102 56.1308 72.2497C56.5695 72.0254 56.6543 71.9656 56.5944 71.9158C56.5545 71.8859 54.685 69.3786 52.4416 66.348L48.3636 60.84L43.2537 53.2783C40.4419 49.1212 38.1287 45.7217 38.1088 45.7217C38.0889 45.7167 38.0689 49.0763 38.0589 53.1786C38.044 60.3615 38.039 60.6506 37.9493 60.82C37.8196 61.0643 37.7199 61.164 37.5106 61.2736C37.351 61.3534 37.2114 61.3684 36.4587 61.3684H35.5962L35.3669 61.2238C35.2173 61.1291 35.1076 61.0045 35.0328 60.8599L34.9282 60.6356L34.9381 50.6415L34.9531 40.6424L35.1076 40.448C35.1874 40.3433 35.3569 40.2087 35.4765 40.1439C35.6809 40.0442 35.7607 40.0342 36.6232 40.0342C37.6402 40.0342 37.8097 40.0741 38.0739 40.3632C38.1487 40.443 40.9155 44.6101 44.2258 49.6296C47.5361 54.6491 52.0628 61.5029 54.2862 64.8675L58.3243 70.9837L58.5287 70.8491C60.3384 69.6727 62.2528 67.9979 63.7683 66.2533C66.9938 62.5497 69.0727 58.0336 69.7707 53.2185C69.9751 51.8179 70 51.4041 70 49.505C70 47.6059 69.9751 47.1921 69.7707 45.7915C68.3848 36.216 61.5698 28.1709 52.327 25.1901C50.6968 24.6617 48.9619 24.2978 47.0176 24.0785C46.539 24.0287 43.2437 23.9738 42.8299 24.0137ZM53.2692 39.4361C53.5085 39.5557 53.7029 39.785 53.7727 40.0243C53.8126 40.1539 53.8226 42.9253 53.8126 49.171L53.7977 58.1333L52.2173 55.7108L50.632 53.2883V46.7734C50.632 42.5614 50.6519 40.1938 50.6818 40.0791C50.7616 39.8 50.9361 39.5806 51.1754 39.451C51.3798 39.3464 51.4545 39.3364 52.2372 39.3364C52.9751 39.3364 53.1047 39.3464 53.2692 39.4361Z" fill="#3F3E71"/>
</g>
<path d="M115.22 40.6H117.266V56H115.616L107.696 44.494V56H105.65V40.6H107.3L115.22 52.084V40.6ZM121.704 51.38C121.895 52.3627 122.342 53.1253 123.046 53.668C123.765 54.2107 124.645 54.482 125.686 54.482C127.138 54.482 128.194 53.9467 128.854 52.876L130.482 53.8C129.411 55.4573 127.798 56.286 125.642 56.286C123.897 56.286 122.474 55.7433 121.374 54.658C120.289 53.558 119.746 52.172 119.746 50.5C119.746 48.8427 120.281 47.464 121.352 46.364C122.423 45.264 123.809 44.714 125.51 44.714C127.123 44.714 128.436 45.286 129.448 46.43C130.475 47.5593 130.988 48.9233 130.988 50.522C130.988 50.8007 130.966 51.0867 130.922 51.38H121.704ZM125.51 46.518C124.483 46.518 123.633 46.8113 122.958 47.398C122.283 47.97 121.865 48.74 121.704 49.708H129.052C128.891 48.6667 128.48 47.8747 127.82 47.332C127.16 46.7893 126.39 46.518 125.51 46.518ZM142.221 56H139.977L136.897 51.842L133.795 56H131.551L135.775 50.346L131.793 45H134.059L136.897 48.828L139.735 45H141.979L138.019 50.324L142.221 56ZM149.979 46.848H147.053V52.81C147.053 53.3527 147.156 53.7413 147.361 53.976C147.581 54.196 147.911 54.3133 148.351 54.328C148.791 54.328 149.334 54.3133 149.979 54.284V56C148.307 56.22 147.082 56.088 146.305 55.604C145.528 55.1053 145.139 54.174 145.139 52.81V46.848H142.961V45H145.139V42.492L147.053 41.92V45H149.979V46.848ZM153.519 56.242C153.123 56.242 152.786 56.1027 152.507 55.824C152.229 55.5453 152.089 55.208 152.089 54.812C152.089 54.416 152.229 54.0787 152.507 53.8C152.786 53.5213 153.123 53.382 153.519 53.382C153.93 53.382 154.267 53.5213 154.531 53.8C154.81 54.0787 154.949 54.416 154.949 54.812C154.949 55.208 154.81 55.5453 154.531 55.824C154.267 56.1027 153.93 56.242 153.519 56.242ZM159.111 42.998C158.744 42.998 158.436 42.8733 158.187 42.624C157.938 42.3747 157.813 42.074 157.813 41.722C157.813 41.37 157.938 41.0693 158.187 40.82C158.436 40.556 158.744 40.424 159.111 40.424C159.463 40.424 159.764 40.556 160.013 40.82C160.262 41.0693 160.387 41.37 160.387 41.722C160.387 42.074 160.262 42.3747 160.013 42.624C159.764 42.8733 159.463 42.998 159.111 42.998ZM158.143 56.66V45H160.057V56.66C160.057 58.0827 159.698 59.1313 158.979 59.806C158.26 60.4953 157.204 60.7887 155.811 60.686V58.838C156.618 58.9113 157.204 58.7793 157.571 58.442C157.952 58.1047 158.143 57.5107 158.143 56.66ZM164.594 47.97C164.594 48.3953 164.807 48.74 165.232 49.004C165.658 49.2533 166.171 49.4587 166.772 49.62C167.374 49.7667 167.975 49.9427 168.576 50.148C169.178 50.3387 169.691 50.676 170.116 51.16C170.542 51.6293 170.754 52.238 170.754 52.986C170.754 53.9833 170.366 54.7827 169.588 55.384C168.826 55.9853 167.843 56.286 166.64 56.286C165.57 56.286 164.653 56.0513 163.89 55.582C163.128 55.1127 162.585 54.4893 162.262 53.712L163.912 52.766C164.088 53.294 164.418 53.712 164.902 54.02C165.386 54.328 165.966 54.482 166.64 54.482C167.271 54.482 167.792 54.3647 168.202 54.13C168.613 53.8807 168.818 53.4993 168.818 52.986C168.818 52.5607 168.606 52.2233 168.18 51.974C167.755 51.71 167.242 51.5047 166.64 51.358C166.039 51.1967 165.438 51.0133 164.836 50.808C164.235 50.6027 163.722 50.2653 163.296 49.796C162.871 49.3267 162.658 48.7253 162.658 47.992C162.658 47.0387 163.025 46.254 163.758 45.638C164.506 45.022 165.438 44.714 166.552 44.714C167.447 44.714 168.239 44.9193 168.928 45.33C169.632 45.726 170.16 46.2833 170.512 47.002L168.906 47.904C168.51 46.9653 167.726 46.496 166.552 46.496C166.01 46.496 165.548 46.628 165.166 46.892C164.785 47.1413 164.594 47.5007 164.594 47.97Z" fill="#1E3D59"/>
<defs>
<linearGradient id="paint0_linear_1079_1122" x1="40.5599" y1="-3.0462e-06" x2="40.5599" y2="100" gradientUnits="userSpaceOnUse">
<stop stop-color="#C5BAFF"/>
<stop offset="1" stop-color="#80DAFD"/>
</linearGradient>
<clipPath id="clip0_1079_1122">
<rect width="51" height="51" fill="white" transform="translate(19 24)"/>
</clipPath>
</defs>
</svg>
