<svg width="248" height="100" viewBox="0 0 248 100" fill="none" xmlns="http://www.w3.org/2000/svg">
<path d="M0 16C0 7.16345 7.16344 0 16 0H218C234.569 0 248 13.4315 248 30V70C248 86.5685 234.569 100 218 100H16C7.16344 100 0 92.8366 0 84V16Z" fill="white"/>
<path d="M0 16C0 7.16345 7.16344 0 16 0H59C75.5685 0 89 13.4315 89 30V70C89 86.5685 75.5685 100 59 100H16C7.16345 100 0 92.8366 0 84V16Z" fill="url(#paint0_linear_1079_1133)"/>
<path d="M57.7199 39.8235C57.704 40.0705 57.5892 40.2888 57.4155 40.4402L57.4139 40.4418C57.2051 40.6698 56.9262 40.8291 56.6107 40.8849L56.6027 40.8865C56.5581 40.8929 56.5055 40.8977 56.4529 40.8977C56.4513 40.8977 56.4481 40.8977 56.4465 40.8977C55.9493 40.8977 55.5221 40.5964 55.3405 40.1645L55.3373 40.1566C55.2895 39.8043 55.8632 39.5382 56.4545 39.4553C57.0458 39.3724 57.6721 39.4728 57.7199 39.8235ZM41.9259 40.6427C41.733 41.1383 41.2597 41.4842 40.705 41.4842C40.6987 41.4842 40.6939 41.4842 40.6875 41.4842H40.6891C40.6317 41.4842 40.5775 41.4794 40.5218 41.473H40.5281C40.1122 41.3981 39.7584 41.1686 39.5241 40.8482L39.5209 40.8435C39.3902 40.6937 39.3105 40.4944 39.3105 40.2793V40.2777C39.3296 40.155 39.3982 40.0498 39.4938 39.9828L39.4954 39.9812C39.7376 39.8474 40.0277 39.7693 40.3369 39.7693C40.4692 39.7693 40.5983 39.7836 40.7226 39.8107L40.7114 39.8091C41.341 39.8968 41.9912 40.1948 41.929 40.6427H41.9259ZM59.4858 52.8237L59.3153 52.6101L59.2451 52.5225C59.9735 51.1742 60.4006 49.5693 60.4006 47.8671C60.4006 47.0894 60.3114 46.3339 60.1424 45.6072L60.1552 45.6741C60.0436 44.9522 59.9783 44.1186 59.9783 43.2708C59.9783 43.2596 59.9783 43.2484 59.9783 43.2373C60.0149 42.4388 60.0994 41.6929 60.2301 40.9614L60.2141 41.0666C60.356 40.3271 60.4373 39.476 60.4373 38.6058C60.4373 38.5246 60.4373 38.4449 60.4357 38.3652V38.3779C60.4548 38.2998 60.466 38.2122 60.466 38.1197C60.466 38.0767 60.4628 38.0353 60.4596 37.9938V37.9986C59.8221 35.4805 58.6252 33.2987 57.0043 31.5073L57.0155 31.52C55.5636 29.8179 53.7786 28.4457 51.7561 27.499L51.6605 27.4592C52.7697 27.2217 54.0447 27.0862 55.3516 27.0862C55.4711 27.0862 55.5907 27.0878 55.7102 27.0894H55.6927C55.7644 27.0878 55.8473 27.0862 55.9317 27.0862C59.7217 27.0862 63.0972 28.8537 65.2807 31.6093L65.2998 31.6348C65.3444 31.6922 65.389 31.7575 65.4273 31.826L65.4321 31.834C66.8728 34.5338 64.8822 44.3322 59.4842 52.8269L59.4858 52.8237ZM59.03 38.8561C59.0045 39.5812 58.928 40.2681 58.8069 40.9391L58.8196 40.8514C58.6953 41.5288 58.606 42.3352 58.5694 43.1544L58.5678 43.1942C58.5678 43.2213 58.5678 43.2516 58.5678 43.2835C58.5678 44.1872 58.6347 45.0749 58.7654 45.9419L58.7527 45.8447C58.8881 46.4455 58.9662 47.134 58.9662 47.8432C58.9662 49.0592 58.7367 50.2227 58.3176 51.2889L58.3399 51.2252C58.2188 51.0164 58.0929 50.7646 57.9829 50.5032L57.9654 50.457C57.8602 50.2036 57.6323 49.794 57.3183 49.2298C56.0927 47.0304 53.2208 41.881 54.6902 39.7804C55.4456 38.6999 57.3613 38.6537 59.0284 38.8577L59.03 38.8561ZM57.8968 57.3197C57.8155 55.6637 58.4323 55.49 59.0858 55.3067C59.1761 55.2823 59.2659 55.2552 59.3551 55.2255C59.4348 55.2956 59.5225 55.3641 59.6133 55.4247L59.6213 55.4295C60.6094 55.8646 61.7601 56.1164 62.9713 56.1164C63.9148 56.1164 64.8217 55.9634 65.6695 55.6797L65.609 55.6972C65.0607 56.1642 64.436 56.5642 63.7602 56.8734L63.7108 56.8941C62.6845 57.3149 61.4939 57.5778 60.2476 57.6177H60.2317C60.042 57.6464 59.8237 57.6639 59.6021 57.6639C58.987 57.6639 58.4005 57.5364 57.8697 57.3069L57.8984 57.3181L57.8968 57.3197ZM56.123 60.5486C56.0895 60.9008 56.0513 61.2977 56.0003 61.7359L55.7102 62.6093C55.6879 62.6731 55.6751 62.7464 55.6735 62.8229C55.6751 62.8659 55.6751 62.9153 55.6751 62.9647C55.6751 63.5305 55.5907 64.0788 55.4345 64.5935L55.444 64.5537C55.2592 65.1737 55.1317 65.8924 55.0886 66.6335L55.087 66.659C55.0042 69.3429 52.9275 71.5152 50.293 71.7495L50.2723 71.7511C47.2538 72.3981 46.7183 70.7613 46.2465 69.3174C46.1987 69.1665 46.1477 69.0162 46.0935 68.8664C45.8385 67.8273 45.6919 66.6335 45.6919 65.4063C45.6919 64.8326 45.7238 64.2668 45.7859 63.709L45.7795 63.7775C45.7891 63.5735 45.7939 63.3329 45.7939 63.0922C45.7939 61.457 45.5485 59.8792 45.091 58.3938L45.1213 58.507C45.1298 57.9226 45.1426 57.3308 45.1596 56.7316C45.1596 56.7268 45.1596 56.7188 45.1596 56.7124C45.1596 56.6391 45.1484 56.569 45.1277 56.5021L45.1293 56.5068C45.107 56.3475 45.0767 56.2072 45.0369 56.0718L45.0416 56.0925C44.8169 55.2621 44.2511 54.5927 43.5053 54.2373L43.4877 54.2294C43.2072 54.0891 42.8757 54.0062 42.5235 54.0062C42.3578 54.0062 42.1968 54.0238 42.0422 54.0588L42.0565 54.0557C42.2605 53.3066 42.4709 52.6946 42.7132 52.0985L42.6717 52.2149L42.7769 51.9328C42.8949 51.614 43.0431 51.2841 43.2009 50.9351C44.071 49.1437 44.5795 47.0384 44.5795 44.8135C44.5795 43.3186 44.35 41.8778 43.9244 40.5231L43.9515 40.6235C43.6599 38.8577 42.1426 37.5269 40.3162 37.5269C40.0293 37.5269 39.7488 37.5603 39.481 37.6225L39.5065 37.6177C38.2379 37.7835 37.0904 38.1564 36.0465 38.7047L36.1023 38.6776C35.9705 38.7445 35.8404 38.8136 35.7118 38.8847C35.8569 35.463 37.1398 32.3663 39.1878 29.9358L39.1687 29.9582C39.3567 29.7685 39.5544 29.5884 39.7584 29.4195L39.7727 29.4083C39.8827 29.386 39.9799 29.3414 40.0628 29.2792L40.0612 29.2808C41.4844 28.2385 43.271 27.6122 45.2042 27.6122C45.3588 27.6122 45.5118 27.6153 45.6632 27.6233L45.6425 27.6217C46.4808 27.6345 47.2904 27.6918 48.0873 27.7938L47.9805 27.7827C51.2365 28.409 54.016 30.1143 56.0003 32.505L56.0178 32.5273C57.2099 33.9122 58.1757 35.5347 58.8324 37.3053L58.8674 37.4153C58.4578 37.3053 57.9877 37.2416 57.5032 37.2416C55.9365 37.2416 54.526 37.9046 53.5347 38.9644L53.5315 38.9676C51.5553 41.7933 54.6137 47.279 56.0831 49.9151C56.3525 50.398 56.5852 50.8156 56.6585 50.9925C57.0729 51.9503 57.594 52.7743 58.2204 53.5058L58.2092 53.4931C58.3479 53.6668 58.4817 53.8341 58.5853 53.9807C57.7869 54.2103 56.3525 54.7426 56.4832 57.4009C56.4593 57.7117 56.3987 58.2902 56.3174 59.0234C56.2314 59.4521 56.1612 59.9748 56.1214 60.5056L56.1182 60.5502L56.123 60.5486ZM41.4573 51.4419L41.3521 51.7224C41.1338 52.2452 40.9075 52.9097 40.7194 53.5903L40.6891 53.7194C39.2659 53.6987 37.9877 53.0898 37.0856 52.124L37.0825 52.1208C36.0752 51.0578 35.4568 49.6187 35.4568 48.0345C35.4568 47.7189 35.4807 47.4097 35.5285 47.1069L35.5238 47.1404C35.6784 45.9929 35.7676 44.6685 35.7676 43.3217C35.7676 42.5217 35.7357 41.7296 35.6752 40.9455L35.6815 41.0491C35.672 40.8785 35.6624 40.7287 35.6576 40.6108C36.9406 39.637 38.5646 39.0489 40.3257 39.0489C40.5361 39.0489 40.7433 39.0569 40.9489 39.0728L40.9218 39.0712C41.8047 39.2768 42.4693 40.0083 42.5745 40.9088L42.5761 40.9184C42.9554 42.0786 43.1738 43.4142 43.1738 44.7992C43.1738 46.8168 42.71 48.7262 41.8844 50.4283L41.9179 50.3518C41.7505 50.7231 41.5928 51.0737 41.4573 51.4387V51.4419ZM37.2865 59.3852C36.9597 59.3023 36.6729 59.1812 36.4115 59.0234L36.4258 59.0313C36.7 58.915 37.0235 58.8178 37.3582 58.7556L37.3885 58.7508C39.9448 58.2249 40.3385 57.8536 41.2007 56.7587C41.3983 56.5084 41.6215 56.2232 41.9322 55.8773C41.996 55.8056 42.047 55.7195 42.0773 55.6239L42.0789 55.6191C42.4183 55.3179 42.6207 55.4008 42.949 55.5362C43.3108 55.7355 43.5786 56.0717 43.6822 56.4718L43.6838 56.4829C43.7204 56.5865 43.7427 56.7045 43.7427 56.8288C43.7427 57.028 43.687 57.2145 43.5913 57.3722L43.5945 57.3675C42.5665 58.7732 40.9234 59.6768 39.0699 59.6768C38.4324 59.6768 37.8188 59.57 37.2466 59.3724L37.2865 59.3852ZM25.3222 49.2537C24.2846 46.0901 23.44 42.3368 22.9411 38.4736L22.9076 38.1564C22.8104 37.6432 22.7562 37.0519 22.7562 36.4495C22.7562 33.5712 24.0137 30.9877 26.0091 29.2187L26.0186 29.2107C29.6763 26.624 35.6576 28.1333 38.1837 28.9509L38.1646 28.97C35.7182 31.9535 34.2344 35.8104 34.2344 40.0115C34.2344 40.155 34.236 40.2984 34.2392 40.4418V40.4211C34.2392 40.5853 34.252 40.818 34.2711 41.1367C34.3237 41.7902 34.354 42.552 34.354 43.3217C34.354 44.5999 34.2711 45.859 34.1085 47.0942L34.1245 46.9491C34.0719 47.2774 34.0432 47.6567 34.0432 48.0424C34.0432 50.0043 34.8114 51.7878 36.0656 53.1058L36.0625 53.1026C36.2229 53.2705 36.3902 53.4283 36.5645 53.5759C35.8744 54.3154 34.3731 55.9506 32.7761 57.8727C31.6462 59.2322 30.8652 58.9708 30.6086 58.8863C29.5169 58.2998 28.6611 57.3898 28.1575 56.2869L28.1431 56.2518C27.053 54.2565 26.0935 51.936 25.3859 49.5071L25.3238 49.2569L25.3222 49.2537ZM67.5215 54.9227C67.4912 54.8318 67.453 54.7537 67.4067 54.682L67.4099 54.6868C67.1326 54.1624 66.46 54.0063 65.4034 54.2246C62.1107 54.9035 60.8357 54.486 60.3735 54.1863C62.9506 50.2785 65.0241 45.7522 66.3517 40.9168L66.4298 40.5837C66.97 38.4911 68.0187 33.5664 66.6736 31.1598C66.5796 30.9813 66.4792 30.8283 66.3676 30.6849L66.3724 30.6913C63.8814 27.5755 60.0803 25.5977 55.817 25.5977C55.6959 25.5977 55.5747 25.5993 55.4552 25.6024H55.4727C55.4058 25.6008 55.3277 25.6008 55.248 25.6008C53.1092 25.6008 51.0517 25.9515 49.1312 26.5969L49.2667 26.5571C48.9256 26.4933 48.583 26.4392 48.2387 26.3945C47.461 26.2463 46.5605 26.1539 45.6393 26.1395H45.6265C45.4943 26.1332 45.3397 26.13 45.1835 26.13C43.0877 26.13 41.1385 26.7579 39.5145 27.8369L39.5528 27.813C37.8459 27.1739 30.0158 24.5362 25.1692 27.9692C22.7961 29.9932 21.3027 32.9847 21.3027 36.3268C21.3027 36.9723 21.3585 37.605 21.4653 38.2202L21.4557 38.1548C21.9896 42.4548 22.8566 46.3244 24.0567 50.0458L23.9308 49.5932C24.7165 52.328 25.6887 54.6947 26.8825 56.9244L26.7852 56.7268C27.4753 58.295 28.669 59.5382 30.1576 60.2729L30.199 60.292C30.4668 60.3701 30.7744 60.4163 31.0931 60.4163C32.2757 60.4163 33.3116 59.7932 33.8918 58.856L33.8997 58.8417C35.4951 56.9228 37.0665 55.2048 37.7725 54.4461C38.5726 54.8908 39.5209 55.1649 40.5313 55.1968H40.5409L40.5425 55.2048C40.3746 55.4045 40.2105 55.6074 40.05 55.8136C39.3743 56.671 39.234 56.8479 37.0617 57.2957C36.4434 57.4233 34.8018 57.7611 34.7779 58.9118C34.7779 58.9182 34.7779 58.9246 34.7779 58.9325C34.7779 59.1668 34.8464 59.3852 34.9644 59.5684L34.9612 59.5637C35.4584 60.1932 36.1581 60.6442 36.9597 60.8195L36.9836 60.8243C37.6195 61.0315 38.3527 61.151 39.1113 61.151C40.8644 61.151 42.4677 60.5167 43.7077 59.4648L43.6981 59.4728C43.6599 60.139 43.6391 60.9199 43.6391 61.7057C43.6391 64.4995 43.9117 67.2312 44.4296 69.8736L44.3866 69.6075C44.9954 71.7957 46.9621 73.3799 49.3017 73.4006H49.3049C49.893 73.3958 50.462 73.3273 51.0102 73.203L50.9576 73.2125C54.016 72.94 56.4258 70.4952 56.6425 67.4448L56.6441 67.4256C56.9438 65.6916 57.4442 61.6993 57.7167 59.2577C57.7295 59.1541 57.7709 59.0616 57.8315 58.9851L57.8299 58.9867C57.8315 58.9851 57.9685 58.8927 58.681 59.0473L58.7686 59.0616L59.2738 59.1063L59.3041 59.1078C59.4555 59.1142 59.634 59.119 59.8125 59.119C61.4445 59.119 63.0032 58.8003 64.4264 58.2201L64.3451 58.2488C65.6281 57.6543 67.9406 56.1929 67.5215 54.9227Z" fill="#3F3E71"/>
<path d="M111.238 40.6C112.661 40.6 113.841 41.0767 114.78 42.03C115.733 42.9687 116.21 44.142 116.21 45.55C116.21 46.9433 115.733 48.1167 114.78 49.07C113.841 50.0233 112.661 50.5 111.238 50.5H107.696V56H105.65V40.6H111.238ZM111.238 48.586C112.089 48.586 112.793 48.3 113.35 47.728C113.907 47.1413 114.186 46.4153 114.186 45.55C114.186 44.67 113.907 43.944 113.35 43.372C112.793 42.8 112.089 42.514 111.238 42.514H107.696V48.586H111.238ZM126.875 54.614C125.745 55.7287 124.374 56.286 122.761 56.286C121.147 56.286 119.776 55.7287 118.647 54.614C117.532 53.4993 116.975 52.128 116.975 50.5C116.975 48.872 117.532 47.5007 118.647 46.386C119.776 45.2713 121.147 44.714 122.761 44.714C124.374 44.714 125.745 45.2713 126.875 46.386C128.004 47.5007 128.569 48.872 128.569 50.5C128.569 52.128 128.004 53.4993 126.875 54.614ZM122.761 54.416C123.861 54.416 124.785 54.042 125.533 53.294C126.281 52.546 126.655 51.6147 126.655 50.5C126.655 49.3853 126.281 48.454 125.533 47.706C124.785 46.958 123.861 46.584 122.761 46.584C121.675 46.584 120.759 46.958 120.011 47.706C119.263 48.454 118.889 49.3853 118.889 50.5C118.889 51.6147 119.263 52.546 120.011 53.294C120.759 54.042 121.675 54.416 122.761 54.416ZM132.239 47.97C132.239 48.3953 132.451 48.74 132.877 49.004C133.302 49.2533 133.815 49.4587 134.417 49.62C135.018 49.7667 135.619 49.9427 136.221 50.148C136.822 50.3387 137.335 50.676 137.761 51.16C138.186 51.6293 138.399 52.238 138.399 52.986C138.399 53.9833 138.01 54.7827 137.233 55.384C136.47 55.9853 135.487 56.286 134.285 56.286C133.214 56.286 132.297 56.0513 131.535 55.582C130.772 55.1127 130.229 54.4893 129.907 53.712L131.557 52.766C131.733 53.294 132.063 53.712 132.547 54.02C133.031 54.328 133.61 54.482 134.285 54.482C134.915 54.482 135.436 54.3647 135.847 54.13C136.257 53.8807 136.463 53.4993 136.463 52.986C136.463 52.5607 136.25 52.2233 135.825 51.974C135.399 51.71 134.886 51.5047 134.285 51.358C133.683 51.1967 133.082 51.0133 132.481 50.808C131.879 50.6027 131.366 50.2653 130.941 49.796C130.515 49.3267 130.303 48.7253 130.303 47.992C130.303 47.0387 130.669 46.254 131.403 45.638C132.151 45.022 133.082 44.714 134.197 44.714C135.091 44.714 135.883 44.9193 136.573 45.33C137.277 45.726 137.805 46.2833 138.157 47.002L136.551 47.904C136.155 46.9653 135.37 46.496 134.197 46.496C133.654 46.496 133.192 46.628 132.811 46.892C132.429 47.1413 132.239 47.5007 132.239 47.97ZM146.219 46.848H143.293V52.81C143.293 53.3527 143.396 53.7413 143.601 53.976C143.821 54.196 144.151 54.3133 144.591 54.328C145.031 54.328 145.574 54.3133 146.219 54.284V56C144.547 56.22 143.323 56.088 142.545 55.604C141.768 55.1053 141.379 54.174 141.379 52.81V46.848H139.201V45H141.379V42.492L143.293 41.92V45H146.219V46.848ZM157.057 45H158.949V55.538C158.949 57.166 158.399 58.4273 157.299 59.322C156.199 60.2313 154.879 60.686 153.339 60.686C152.107 60.686 151.043 60.4513 150.149 59.982C149.254 59.5273 148.579 58.8673 148.125 58.002L149.797 57.056C150.398 58.288 151.593 58.904 153.383 58.904C154.527 58.904 155.421 58.6033 156.067 58.002C156.727 57.4007 157.057 56.5793 157.057 55.538V53.976C156.089 55.4427 154.71 56.176 152.921 56.176C151.351 56.176 150.024 55.6187 148.939 54.504C147.853 53.3893 147.311 52.0327 147.311 50.434C147.311 48.8353 147.853 47.486 148.939 46.386C150.024 45.2713 151.351 44.714 152.921 44.714C154.725 44.714 156.103 45.44 157.057 46.892V45ZM150.347 53.228C151.095 53.976 152.026 54.35 153.141 54.35C154.255 54.35 155.187 53.976 155.935 53.228C156.683 52.48 157.057 51.5487 157.057 50.434C157.057 49.334 156.683 48.41 155.935 47.662C155.187 46.914 154.255 46.54 153.141 46.54C152.026 46.54 151.095 46.914 150.347 47.662C149.599 48.41 149.225 49.334 149.225 50.434C149.225 51.5487 149.599 52.48 150.347 53.228ZM163.762 46.848C164.393 45.484 165.537 44.802 167.194 44.802V46.804C166.256 46.76 165.449 47.0093 164.774 47.552C164.1 48.0947 163.762 48.9673 163.762 50.17V56H161.848V45H163.762V46.848ZM169.808 51.38C169.998 52.3627 170.446 53.1253 171.15 53.668C171.868 54.2107 172.748 54.482 173.79 54.482C175.242 54.482 176.298 53.9467 176.958 52.876L178.586 53.8C177.515 55.4573 175.902 56.286 173.746 56.286C172 56.286 170.578 55.7433 169.478 54.658C168.392 53.558 167.85 52.172 167.85 50.5C167.85 48.8427 168.385 47.464 169.456 46.364C170.526 45.264 171.912 44.714 173.614 44.714C175.227 44.714 176.54 45.286 177.552 46.43C178.578 47.5593 179.092 48.9233 179.092 50.522C179.092 50.8007 179.07 51.0867 179.026 51.38H169.808ZM173.614 46.518C172.587 46.518 171.736 46.8113 171.062 47.398C170.387 47.97 169.969 48.74 169.808 49.708H177.156C176.994 48.6667 176.584 47.8747 175.924 47.332C175.264 46.7893 174.494 46.518 173.614 46.518ZM186.032 56.286C184.595 56.286 183.363 55.9487 182.336 55.274C181.324 54.5993 180.613 53.6753 180.202 52.502L181.962 51.49C182.563 53.3527 183.935 54.284 186.076 54.284C187.132 54.284 187.939 54.0713 188.496 53.646C189.053 53.206 189.332 52.6267 189.332 51.908C189.332 51.1747 189.053 50.6247 188.496 50.258C187.939 49.8913 187.007 49.5027 185.702 49.092C185.057 48.8867 184.565 48.7253 184.228 48.608C183.891 48.476 183.465 48.2853 182.952 48.036C182.453 47.772 182.079 47.508 181.83 47.244C181.581 46.9653 181.353 46.606 181.148 46.166C180.957 45.726 180.862 45.2273 180.862 44.67C180.862 43.3353 181.331 42.2793 182.27 41.502C183.209 40.71 184.353 40.314 185.702 40.314C186.919 40.314 187.975 40.622 188.87 41.238C189.779 41.854 190.461 42.668 190.916 43.68L189.2 44.67C188.54 43.086 187.374 42.294 185.702 42.294C184.866 42.294 184.191 42.4993 183.678 42.91C183.165 43.3207 182.908 43.878 182.908 44.582C182.908 45.2567 183.15 45.77 183.634 46.122C184.118 46.474 184.954 46.8407 186.142 47.222C186.567 47.354 186.868 47.4493 187.044 47.508C187.22 47.5667 187.491 47.6693 187.858 47.816C188.239 47.9627 188.518 48.08 188.694 48.168C188.87 48.256 189.105 48.3807 189.398 48.542C189.706 48.7033 189.933 48.8573 190.08 49.004C190.227 49.1507 190.395 49.334 190.586 49.554C190.791 49.7593 190.938 49.972 191.026 50.192C191.114 50.412 191.187 50.6687 191.246 50.962C191.319 51.2407 191.356 51.5413 191.356 51.864C191.356 53.2133 190.865 54.2913 189.882 55.098C188.899 55.89 187.616 56.286 186.032 56.286ZM208.807 48.3C208.807 50.412 208.081 52.238 206.629 53.778L208.323 55.472L206.915 56.748L205.177 54.988C203.843 55.8533 202.391 56.286 200.821 56.286C198.621 56.286 196.744 55.5087 195.189 53.954C193.635 52.3993 192.857 50.5147 192.857 48.3C192.857 46.0853 193.635 44.2007 195.189 42.646C196.744 41.0913 198.621 40.314 200.821 40.314C203.021 40.314 204.899 41.0913 206.453 42.646C208.023 44.2007 208.807 46.0853 208.807 48.3ZM200.821 54.284C201.877 54.284 202.845 54.0347 203.725 53.536L200.645 50.434L202.053 49.18L205.221 52.348C206.248 51.2333 206.761 49.884 206.761 48.3C206.761 46.6133 206.182 45.1907 205.023 44.032C203.879 42.8733 202.479 42.294 200.821 42.294C199.164 42.294 197.756 42.8733 196.597 44.032C195.453 45.1907 194.881 46.6133 194.881 48.3C194.881 49.972 195.453 51.3873 196.597 52.546C197.756 53.7047 199.164 54.284 200.821 54.284ZM213.421 54.064H220.065V56H211.375V40.6H213.421V54.064Z" fill="#1E3D59"/>
<defs>
<linearGradient id="paint0_linear_1079_1133" x1="40.5599" y1="-3.0462e-06" x2="40.5599" y2="100" gradientUnits="userSpaceOnUse">
<stop stop-color="#C5BAFF"/>
<stop offset="1" stop-color="#80DAFD"/>
</linearGradient>
</defs>
</svg>
