<svg width="248" height="100" viewBox="0 0 248 100" fill="none" xmlns="http://www.w3.org/2000/svg">
<path d="M0 16C0 7.16345 7.16344 0 16 0H218C234.569 0 248 13.4315 248 30V70C248 86.5685 234.569 100 218 100H16C7.16344 100 0 92.8366 0 84V16Z" fill="white"/>
<path d="M0 16C0 7.16345 7.16344 0 16 0H59C75.5685 0 89 13.4315 89 30V70C89 86.5685 75.5685 100 59 100H16C7.16345 100 0 92.8366 0 84V16Z" fill="url(#paint0_linear_1079_1123)"/>
<g clip-path="url(#clip0_1079_1123)">
<path fill-rule="evenodd" clip-rule="evenodd" d="M51.4972 71.0679C50.2681 71.0679 49.2736 70.0685 49.2736 68.8329C49.2736 67.5974 50.2681 66.6004 51.4972 66.6004C52.7263 66.6004 53.7208 67.5974 53.7208 68.8329C53.7208 70.0685 52.7263 71.0679 51.4972 71.0679ZM44.6836 75C57.6325 75 56.8242 69.3559 56.8242 69.3559L56.8088 63.5088H44.4541V61.7532H61.7151C61.7151 61.7532 70 62.6992 70 49.5672C70 36.4353 62.7708 36.8982 62.7708 36.8982H58.4536V42.9943C58.4536 42.9943 58.6857 50.2608 51.3391 50.2608H39.0838C39.0838 50.2608 32.1988 50.1515 32.1988 56.952V68.1942C32.1988 68.1942 31.1533 75 44.6836 75ZM37.5053 27.9321C38.7344 27.9321 39.7264 28.9315 39.7264 30.1671C39.7264 31.4026 38.7344 32.3996 37.5053 32.3996C36.2762 32.3996 35.2818 31.4026 35.2818 30.1671C35.2818 28.9315 36.2762 27.9321 37.5053 27.9321ZM44.3164 24C31.3701 24 32.1784 29.6441 32.1784 29.6441L32.1937 35.4912H44.5485V37.2468H27.2849C27.2849 37.2468 19 36.3009 19 49.4328C19 62.5647 26.2318 62.1018 26.2318 62.1018H30.5464V56.0057C30.5464 56.0057 30.3144 48.7392 37.6635 48.7392H49.9162C49.9162 48.7392 56.8012 48.8485 56.8012 42.048V30.8058C56.8012 30.8058 57.8467 24 44.3164 24Z" fill="#3F3E71"/>
</g>
<path d="M111.238 40.6C112.661 40.6 113.841 41.0767 114.78 42.03C115.733 42.9687 116.21 44.142 116.21 45.55C116.21 46.9433 115.733 48.1167 114.78 49.07C113.841 50.0233 112.661 50.5 111.238 50.5H107.696V56H105.65V40.6H111.238ZM111.238 48.586C112.089 48.586 112.793 48.3 113.35 47.728C113.907 47.1413 114.186 46.4153 114.186 45.55C114.186 44.67 113.907 43.944 113.35 43.372C112.793 42.8 112.089 42.514 111.238 42.514H107.696V48.586H111.238ZM126.107 45H128.153L123.665 56.682C123.195 57.9287 122.535 58.8747 121.685 59.52C120.849 60.18 119.881 60.4733 118.781 60.4V58.618C120.13 58.7207 121.12 57.9727 121.751 56.374L121.949 55.956L117.153 45H119.199L122.939 53.624L126.107 45ZM135.735 46.848H132.809V52.81C132.809 53.3527 132.911 53.7413 133.117 53.976C133.337 54.196 133.667 54.3133 134.107 54.328C134.547 54.328 135.089 54.3133 135.735 54.284V56C134.063 56.22 132.838 56.088 132.061 55.604C131.283 55.1053 130.895 54.174 130.895 52.81V46.848H128.717V45H130.895V42.492L132.809 41.92V45H135.735V46.848ZM143.479 44.714C144.769 44.714 145.803 45.1247 146.581 45.946C147.358 46.7527 147.747 47.8527 147.747 49.246V56H145.833V49.356C145.833 48.4613 145.591 47.772 145.107 47.288C144.623 46.7893 143.955 46.54 143.105 46.54C142.151 46.54 141.381 46.8407 140.795 47.442C140.208 48.0287 139.915 48.938 139.915 50.17V56H138.001V40.6H139.915V46.584C140.692 45.3373 141.88 44.714 143.479 44.714ZM159.703 54.614C158.573 55.7287 157.202 56.286 155.589 56.286C153.975 56.286 152.604 55.7287 151.475 54.614C150.36 53.4993 149.803 52.128 149.803 50.5C149.803 48.872 150.36 47.5007 151.475 46.386C152.604 45.2713 153.975 44.714 155.589 44.714C157.202 44.714 158.573 45.2713 159.703 46.386C160.832 47.5007 161.397 48.872 161.397 50.5C161.397 52.128 160.832 53.4993 159.703 54.614ZM155.589 54.416C156.689 54.416 157.613 54.042 158.361 53.294C159.109 52.546 159.483 51.6147 159.483 50.5C159.483 49.3853 159.109 48.454 158.361 47.706C157.613 46.958 156.689 46.584 155.589 46.584C154.503 46.584 153.587 46.958 152.839 47.706C152.091 48.454 151.717 49.3853 151.717 50.5C151.717 51.6147 152.091 52.546 152.839 53.294C153.587 54.042 154.503 54.416 155.589 54.416ZM169.131 44.714C170.422 44.714 171.456 45.1247 172.233 45.946C173.011 46.7527 173.399 47.8527 173.399 49.246V56H171.485V49.356C171.485 48.4613 171.243 47.772 170.759 47.288C170.275 46.7893 169.608 46.54 168.757 46.54C167.804 46.54 167.034 46.8407 166.447 47.442C165.861 48.0287 165.567 48.938 165.567 50.17V56H163.653V45H165.567V46.584C166.345 45.3373 167.533 44.714 169.131 44.714Z" fill="#1E3D59"/>
<defs>
<linearGradient id="paint0_linear_1079_1123" x1="40.5599" y1="-3.0462e-06" x2="40.5599" y2="100" gradientUnits="userSpaceOnUse">
<stop stop-color="#C5BAFF"/>
<stop offset="1" stop-color="#80DAFD"/>
</linearGradient>
<clipPath id="clip0_1079_1123">
<rect width="51" height="51" fill="white" transform="translate(19 24)"/>
</clipPath>
</defs>
</svg>
