<svg width="248" height="100" viewBox="0 0 248 100" fill="none" xmlns="http://www.w3.org/2000/svg">
<path d="M0 16C0 7.16345 7.16344 0 16 0H218C234.569 0 248 13.4315 248 30V70C248 86.5685 234.569 100 218 100H16C7.16344 100 0 92.8366 0 84V16Z" fill="white"/>
<path d="M0 16C0 7.16345 7.16344 0 16 0H59C75.5685 0 89 13.4315 89 30V70C89 86.5685 75.5685 100 59 100H16C7.16345 100 0 92.8366 0 84V16Z" fill="url(#paint0_linear_1079_1121)"/>
<g clip-path="url(#clip0_1079_1121)">
<path fill-rule="evenodd" clip-rule="evenodd" d="M70 50.0063C70 46.5846 65.7708 43.3436 59.2837 41.3301C60.782 34.6337 60.1138 29.3078 57.1836 27.6011C56.5071 27.2018 55.7185 27.0126 54.8552 27.0126V29.3624C55.3325 29.3624 55.7185 29.4591 56.0422 29.6357C57.4575 30.4554 58.0676 33.5828 57.5903 37.6057C57.4741 38.5935 57.2874 39.636 57.0591 40.6995C55.0212 40.1951 52.7966 39.8042 50.46 39.552C49.0571 37.6057 47.6003 35.836 46.1353 34.289C49.522 31.0943 52.7012 29.3498 54.8635 29.3498V27C52.0039 27 48.2644 29.064 44.4792 32.6454C40.6941 29.085 36.9546 27.042 34.095 27.042V29.3918C36.2449 29.3918 39.4365 31.1279 42.8274 34.2975C41.3706 35.8444 39.918 37.6015 38.5359 39.552C36.1868 39.8042 33.9622 40.1951 31.9243 40.7079C31.6836 39.657 31.5093 38.6356 31.3848 37.6561C30.895 33.6333 31.501 30.5058 32.9038 29.6735C33.2151 29.4843 33.6218 29.4003 34.0991 29.4003V27.0546C33.2275 27.0546 32.4348 27.2438 31.75 27.6432C28.8281 29.3498 28.1724 34.6674 29.6831 41.3427C23.2085 43.3604 19 46.593 19 50.0063C19 53.428 23.2292 56.669 29.7163 58.6825C28.218 65.3789 28.8862 70.7048 31.8164 72.4115C32.4929 72.8108 33.2815 73 34.1572 73C37.0168 73 40.7563 70.936 44.5415 67.3546C48.3267 70.915 52.0662 72.958 54.9258 72.958C55.7974 72.958 56.5901 72.7688 57.2749 72.3695C60.1968 70.6628 60.8525 65.3452 59.3418 58.6699C65.7915 56.6606 70 53.4154 70 50.0063ZM49.2397 50.0063C49.2397 47.3496 47.1147 45.1932 44.4875 45.1932C41.8645 45.1932 39.7354 47.3454 39.7354 50.0063C39.7354 52.6672 41.8604 54.8194 44.4875 54.8194C47.1147 54.8152 49.2397 52.663 49.2397 50.0063ZM56.4656 42.9821C56.0796 44.3399 55.6023 45.7397 55.0627 47.1395C54.6353 46.2987 54.1912 45.4538 53.7014 44.6131C53.2241 43.7724 52.7136 42.9485 52.2031 42.1498C53.6807 42.3726 55.1042 42.6458 56.4656 42.9821ZM51.7051 54.1973C50.8958 55.6181 50.0615 56.9675 49.1982 58.2201C47.6501 58.3589 46.0813 58.4303 44.5 58.4303C42.9312 58.4303 41.3623 58.3547 39.8225 58.2285C38.9592 56.9759 38.1167 55.6391 37.3074 54.2267C36.5188 52.8479 35.8008 51.4481 35.145 50.0357C35.7883 48.6233 36.5188 47.2151 37.2949 45.8363C38.1042 44.4155 38.9385 43.0662 39.8018 41.8135C41.3499 41.6748 42.9187 41.6033 44.5 41.6033C46.0688 41.6033 47.6377 41.679 49.1775 41.8051C50.0408 43.0578 50.8833 44.3945 51.6926 45.8069C52.4812 47.1857 53.1992 48.5855 53.855 49.9979C53.1992 51.4061 52.4854 52.8143 51.7051 54.1973ZM55.0627 52.8269C55.623 54.2393 56.1003 55.6475 56.4988 57.0179C55.1375 57.3542 53.7014 57.64 52.2156 57.8586C52.7261 57.0473 53.2324 56.215 53.7139 55.3617C54.187 54.521 54.6353 53.6676 55.0627 52.8269ZM44.5208 64.0589C43.5537 63.0501 42.5867 61.9235 41.6321 60.6919C42.5659 60.7339 43.5247 60.7675 44.4917 60.7675C45.467 60.7675 46.4341 60.7465 47.3804 60.6919C46.4424 61.9235 45.4753 63.0501 44.5208 64.0589ZM36.7886 57.8586C35.311 57.6358 33.8875 57.3626 32.5261 57.0263C32.9121 55.6686 33.3894 54.2688 33.929 52.869C34.3564 53.7097 34.8005 54.5546 35.2903 55.3953C35.78 56.2402 36.2781 57.0599 36.7886 57.8586ZM44.4668 35.9495C45.4338 36.9583 46.4009 38.0849 47.3555 39.3165C46.4216 39.2745 45.4629 39.2409 44.4958 39.2409C43.5205 39.2409 42.5535 39.2619 41.6072 39.3165C42.5452 38.0849 43.5122 36.9583 44.4668 35.9495ZM36.7761 42.1498C36.2656 42.9611 35.7593 43.7934 35.2778 44.6467C34.8005 45.4874 34.3523 46.3324 33.9248 47.1731C33.3645 45.7607 32.8872 44.3525 32.4888 42.9821C33.8542 42.6542 35.2903 42.3726 36.7761 42.1498ZM27.3672 55.3323C23.6858 53.7433 21.3076 51.6583 21.3076 50.0063C21.3076 48.3543 23.6899 46.2567 27.3672 44.6803C28.2595 44.2894 29.239 43.9447 30.2476 43.6168C30.8411 45.6808 31.6213 47.8288 32.5884 50.0273C31.6338 52.2174 30.8618 54.3528 30.2808 56.4084C29.2515 56.0805 28.272 55.7232 27.3672 55.3323ZM32.9619 70.377C31.5466 69.5573 30.9365 66.4298 31.4138 62.4069C31.53 61.4191 31.7168 60.3766 31.9451 59.3131C33.9829 59.8175 36.2075 60.2084 38.5442 60.4607C39.947 62.4069 41.4038 64.1766 42.8689 65.7236C39.478 68.9141 36.2988 70.6628 34.1365 70.6628C33.6675 70.6502 33.2732 70.5577 32.9619 70.377ZM57.6194 62.3565C58.1091 66.3793 57.5032 69.5068 56.1003 70.3391C55.7891 70.5283 55.3823 70.6124 54.905 70.6124C52.7551 70.6124 49.5635 68.8763 46.1726 65.7068C47.6294 64.1598 49.082 62.4027 50.4641 60.4523C52.8132 60.2 55.0378 59.8091 57.0757 59.2921C57.3164 60.3556 57.5032 61.377 57.6194 62.3565ZM61.6204 55.3323C60.728 55.7232 59.7485 56.0679 58.74 56.3958C58.1465 54.3318 57.3662 52.1838 56.3992 49.9853C57.3538 47.7952 58.1257 45.6598 58.7068 43.6042C59.7361 43.9321 60.7114 44.2894 61.6287 44.6761C65.3101 46.2651 67.6882 48.3501 67.6882 50.0021C67.6799 51.6583 65.3018 53.7517 61.6204 55.3323Z" fill="#3F3E71"/>
</g>
<path d="M114.78 56L111.326 50.104H107.696V56H105.65V40.6H111.81C113.13 40.6 114.259 41.0693 115.198 42.008C116.137 42.932 116.606 44.054 116.606 45.374C116.606 46.3713 116.305 47.2807 115.704 48.102C115.117 48.9233 114.355 49.5027 113.416 49.84L117.046 56H114.78ZM107.696 42.514V48.256H111.81C112.573 48.256 113.218 47.9773 113.746 47.42C114.289 46.848 114.56 46.166 114.56 45.374C114.56 44.582 114.289 43.9073 113.746 43.35C113.218 42.7927 112.573 42.514 111.81 42.514H107.696ZM119.685 51.38C119.875 52.3627 120.323 53.1253 121.027 53.668C121.745 54.2107 122.625 54.482 123.667 54.482C125.119 54.482 126.175 53.9467 126.835 52.876L128.463 53.8C127.392 55.4573 125.779 56.286 123.623 56.286C121.877 56.286 120.455 55.7433 119.355 54.658C118.269 53.558 117.727 52.172 117.727 50.5C117.727 48.8427 118.262 47.464 119.333 46.364C120.403 45.264 121.789 44.714 123.491 44.714C125.104 44.714 126.417 45.286 127.429 46.43C128.455 47.5593 128.969 48.9233 128.969 50.522C128.969 50.8007 128.947 51.0867 128.903 51.38H119.685ZM123.491 46.518C122.464 46.518 121.613 46.8113 120.939 47.398C120.264 47.97 119.846 48.74 119.685 49.708H127.033C126.871 48.6667 126.461 47.8747 125.801 47.332C125.141 46.7893 124.371 46.518 123.491 46.518ZM140.255 45H142.169V56H140.255V54.108C139.302 55.56 137.916 56.286 136.097 56.286C134.557 56.286 133.245 55.7287 132.159 54.614C131.074 53.4847 130.531 52.1133 130.531 50.5C130.531 48.8867 131.074 47.5227 132.159 46.408C133.245 45.2787 134.557 44.714 136.097 44.714C137.916 44.714 139.302 45.44 140.255 46.892V45ZM136.339 54.438C137.454 54.438 138.385 54.064 139.133 53.316C139.881 52.5533 140.255 51.6147 140.255 50.5C140.255 49.3853 139.881 48.454 139.133 47.706C138.385 46.9433 137.454 46.562 136.339 46.562C135.239 46.562 134.315 46.9433 133.567 47.706C132.819 48.454 132.445 49.3853 132.445 50.5C132.445 51.6147 132.819 52.5533 133.567 53.316C134.315 54.064 135.239 54.438 136.339 54.438ZM150.239 56.286C148.582 56.286 147.203 55.736 146.103 54.636C145.003 53.5213 144.453 52.1427 144.453 50.5C144.453 48.8573 145.003 47.486 146.103 46.386C147.203 45.2713 148.582 44.714 150.239 44.714C151.325 44.714 152.3 44.978 153.165 45.506C154.031 46.0193 154.676 46.716 155.101 47.596L153.495 48.52C153.217 47.9333 152.784 47.464 152.197 47.112C151.625 46.76 150.973 46.584 150.239 46.584C149.139 46.584 148.215 46.958 147.467 47.706C146.734 48.454 146.367 49.3853 146.367 50.5C146.367 51.6 146.734 52.524 147.467 53.272C148.215 54.02 149.139 54.394 150.239 54.394C150.973 54.394 151.633 54.2253 152.219 53.888C152.806 53.536 153.253 53.0667 153.561 52.48L155.189 53.426C154.72 54.2913 154.045 54.988 153.165 55.516C152.285 56.0293 151.31 56.286 150.239 56.286ZM163.063 46.848H160.137V52.81C160.137 53.3527 160.24 53.7413 160.445 53.976C160.665 54.196 160.995 54.3133 161.435 54.328C161.875 54.328 162.418 54.3133 163.063 54.284V56C161.391 56.22 160.166 56.088 159.389 55.604C158.612 55.1053 158.223 54.174 158.223 52.81V46.848H156.045V45H158.223V42.492L160.137 41.92V45H163.063V46.848Z" fill="#1E3D59"/>
<defs>
<linearGradient id="paint0_linear_1079_1121" x1="40.5599" y1="-3.0462e-06" x2="40.5599" y2="100" gradientUnits="userSpaceOnUse">
<stop stop-color="#C5BAFF"/>
<stop offset="1" stop-color="#80DAFD"/>
</linearGradient>
<clipPath id="clip0_1079_1121">
<rect width="51" height="46" fill="white" transform="translate(19 27)"/>
</clipPath>
</defs>
</svg>
