<svg width="248" height="100" viewBox="0 0 248 100" fill="none" xmlns="http://www.w3.org/2000/svg">
<path d="M0 16C0 7.16345 7.16344 0 16 0H218C234.569 0 248 13.4315 248 30V70C248 86.5685 234.569 100 218 100H16C7.16344 100 0 92.8366 0 84V16Z" fill="white"/>
<path d="M0 16C0 7.16345 7.16344 0 16 0H59C75.5685 0 89 13.4315 89 30V70C89 86.5685 75.5685 100 59 100H16C7.16345 100 0 92.8366 0 84V16Z" fill="url(#paint0_linear_1079_1125)"/>
<g clip-path="url(#clip0_1079_1125)">
<path d="M44.5 63.9932C30.4176 63.9932 19 56.3474 19 46.9146C19 37.4817 30.4176 29.8359 44.5 29.8359C58.5824 29.8359 70 37.4838 70 46.9146C70 56.3453 58.5824 63.9932 44.5 63.9932ZM48.4036 36.5127C37.6979 36.5127 29.0215 41.7402 29.0215 48.1896C29.0215 54.6389 37.6979 59.8643 48.4015 59.8643C59.1051 59.8643 67.008 56.2901 67.008 48.1896C67.008 40.0891 59.1073 36.5127 48.4036 36.5127ZM57.8344 56.2879C58.6682 56.5389 59.4839 56.8464 60.276 57.2081C60.7333 57.434 61.151 57.7325 61.5128 58.0921C61.7406 58.3338 61.9311 58.6081 62.078 58.9059L68.1619 69.1612L58.3295 69.1654L53.7331 60.5316C53.3088 59.7792 52.7982 59.0789 52.2116 58.4448C52.0643 58.2806 51.8846 58.1487 51.6838 58.0573C51.4831 57.9658 51.2656 57.9169 51.045 57.9136H48.7096V69.1591L40.012 69.1612V40.4418H57.4816C57.4816 40.4418 65.4376 40.5842 65.4376 48.1556C65.4446 50.2245 64.6616 52.2181 63.2486 53.7294C61.8356 55.2408 59.8991 56.1559 57.8344 56.2879ZM54.0519 46.6702L48.784 46.6681V51.5513H54.0519C54.3774 51.5555 54.7003 51.4937 55.0013 51.3696C55.3022 51.2456 55.5749 51.0618 55.8029 50.8295C56.0309 50.5971 56.2094 50.321 56.3277 50.0177C56.4461 49.7145 56.5017 49.3904 56.4914 49.0651C56.5095 48.742 56.4585 48.4187 56.3417 48.1169C56.2249 47.8151 56.045 47.5418 55.8141 47.3151C55.5831 47.0884 55.3065 46.9136 55.0026 46.8024C54.6987 46.6912 54.3746 46.6461 54.0519 46.6702Z" fill="#3F3E71"/>
</g>
<path d="M114.78 56L111.326 50.104H107.696V56H105.65V40.6H111.81C113.13 40.6 114.259 41.0693 115.198 42.008C116.137 42.932 116.606 44.054 116.606 45.374C116.606 46.3713 116.305 47.2807 115.704 48.102C115.117 48.9233 114.355 49.5027 113.416 49.84L117.046 56H114.78ZM107.696 42.514V48.256H111.81C112.573 48.256 113.218 47.9773 113.746 47.42C114.289 46.848 114.56 46.166 114.56 45.374C114.56 44.582 114.289 43.9073 113.746 43.35C113.218 42.7927 112.573 42.514 111.81 42.514H107.696ZM126.645 54.064H133.289V56H124.599V40.6H126.645V54.064ZM143.822 45H145.736V56H143.822V54.108C142.868 55.56 141.482 56.286 139.664 56.286C138.124 56.286 136.811 55.7287 135.726 54.614C134.64 53.4847 134.098 52.1133 134.098 50.5C134.098 48.8867 134.64 47.5227 135.726 46.408C136.811 45.2787 138.124 44.714 139.664 44.714C141.482 44.714 142.868 45.44 143.822 46.892V45ZM139.906 54.438C141.02 54.438 141.952 54.064 142.7 53.316C143.448 52.5533 143.822 51.6147 143.822 50.5C143.822 49.3853 143.448 48.454 142.7 47.706C141.952 46.9433 141.02 46.562 139.906 46.562C138.806 46.562 137.882 46.9433 137.134 47.706C136.386 48.454 136.012 49.3853 136.012 50.5C136.012 51.6147 136.386 52.5533 137.134 53.316C137.882 54.064 138.806 54.438 139.906 54.438ZM154.114 44.714C155.404 44.714 156.438 45.1247 157.216 45.946C157.993 46.7527 158.382 47.8527 158.382 49.246V56H156.468V49.356C156.468 48.4613 156.226 47.772 155.742 47.288C155.258 46.7893 154.59 46.54 153.74 46.54C152.786 46.54 152.016 46.8407 151.43 47.442C150.843 48.0287 150.55 48.938 150.55 50.17V56H148.636V45H150.55V46.584C151.327 45.3373 152.515 44.714 154.114 44.714ZM170.184 45H172.076V55.538C172.076 57.166 171.526 58.4273 170.426 59.322C169.326 60.2313 168.006 60.686 166.466 60.686C165.234 60.686 164.17 60.4513 163.276 59.982C162.381 59.5273 161.706 58.8673 161.252 58.002L162.924 57.056C163.525 58.288 164.72 58.904 166.51 58.904C167.654 58.904 168.548 58.6033 169.194 58.002C169.854 57.4007 170.184 56.5793 170.184 55.538V53.976C169.216 55.4427 167.837 56.176 166.048 56.176C164.478 56.176 163.151 55.6187 162.066 54.504C160.98 53.3893 160.438 52.0327 160.438 50.434C160.438 48.8353 160.98 47.486 162.066 46.386C163.151 45.2713 164.478 44.714 166.048 44.714C167.852 44.714 169.23 45.44 170.184 46.892V45ZM163.474 53.228C164.222 53.976 165.153 54.35 166.268 54.35C167.382 54.35 168.314 53.976 169.062 53.228C169.81 52.48 170.184 51.5487 170.184 50.434C170.184 49.334 169.81 48.41 169.062 47.662C168.314 46.914 167.382 46.54 166.268 46.54C165.153 46.54 164.222 46.914 163.474 47.662C162.726 48.41 162.352 49.334 162.352 50.434C162.352 51.5487 162.726 52.48 163.474 53.228ZM182.565 45H184.479V56H182.565V54.416C181.788 55.6627 180.6 56.286 179.001 56.286C177.711 56.286 176.677 55.8827 175.899 55.076C175.122 54.2547 174.733 53.1473 174.733 51.754V45H176.647V51.644C176.647 52.5387 176.889 53.2353 177.373 53.734C177.857 54.218 178.525 54.46 179.375 54.46C180.329 54.46 181.099 54.1667 181.685 53.58C182.272 52.9787 182.565 52.062 182.565 50.83V45ZM196.501 45H198.415V56H196.501V54.108C195.548 55.56 194.162 56.286 192.343 56.286C190.803 56.286 189.491 55.7287 188.405 54.614C187.32 53.4847 186.777 52.1133 186.777 50.5C186.777 48.8867 187.32 47.5227 188.405 46.408C189.491 45.2787 190.803 44.714 192.343 44.714C194.162 44.714 195.548 45.44 196.501 46.892V45ZM192.585 54.438C193.7 54.438 194.631 54.064 195.379 53.316C196.127 52.5533 196.501 51.6147 196.501 50.5C196.501 49.3853 196.127 48.454 195.379 47.706C194.631 46.9433 193.7 46.562 192.585 46.562C191.485 46.562 190.561 46.9433 189.813 47.706C189.065 48.454 188.691 49.3853 188.691 50.5C188.691 51.6147 189.065 52.5533 189.813 53.316C190.561 54.064 191.485 54.438 192.585 54.438ZM210.445 45H212.337V55.538C212.337 57.166 211.787 58.4273 210.687 59.322C209.587 60.2313 208.267 60.686 206.727 60.686C205.495 60.686 204.432 60.4513 203.537 59.982C202.643 59.5273 201.968 58.8673 201.513 58.002L203.185 57.056C203.787 58.288 204.982 58.904 206.771 58.904C207.915 58.904 208.81 58.6033 209.455 58.002C210.115 57.4007 210.445 56.5793 210.445 55.538V53.976C209.477 55.4427 208.099 56.176 206.309 56.176C204.74 56.176 203.413 55.6187 202.327 54.504C201.242 53.3893 200.699 52.0327 200.699 50.434C200.699 48.8353 201.242 47.486 202.327 46.386C203.413 45.2713 204.74 44.714 206.309 44.714C208.113 44.714 209.492 45.44 210.445 46.892V45ZM203.735 53.228C204.483 53.976 205.415 54.35 206.529 54.35C207.644 54.35 208.575 53.976 209.323 53.228C210.071 52.48 210.445 51.5487 210.445 50.434C210.445 49.334 210.071 48.41 209.323 47.662C208.575 46.914 207.644 46.54 206.529 46.54C205.415 46.54 204.483 46.914 203.735 47.662C202.987 48.41 202.613 49.334 202.613 50.434C202.613 51.5487 202.987 52.48 203.735 53.228ZM216.579 51.38C216.77 52.3627 217.217 53.1253 217.921 53.668C218.64 54.2107 219.52 54.482 220.561 54.482C222.013 54.482 223.069 53.9467 223.729 52.876L225.357 53.8C224.286 55.4573 222.673 56.286 220.517 56.286C218.772 56.286 217.349 55.7433 216.249 54.658C215.164 53.558 214.621 52.172 214.621 50.5C214.621 48.8427 215.156 47.464 216.227 46.364C217.298 45.264 218.684 44.714 220.385 44.714C221.998 44.714 223.311 45.286 224.323 46.43C225.35 47.5593 225.863 48.9233 225.863 50.522C225.863 50.8007 225.841 51.0867 225.797 51.38H216.579ZM220.385 46.518C219.358 46.518 218.508 46.8113 217.833 47.398C217.158 47.97 216.74 48.74 216.579 49.708H223.927C223.766 48.6667 223.355 47.8747 222.695 47.332C222.035 46.7893 221.265 46.518 220.385 46.518Z" fill="#1E3D59"/>
<defs>
<linearGradient id="paint0_linear_1079_1125" x1="40.5599" y1="-3.0462e-06" x2="40.5599" y2="100" gradientUnits="userSpaceOnUse">
<stop stop-color="#C5BAFF"/>
<stop offset="1" stop-color="#80DAFD"/>
</linearGradient>
<clipPath id="clip0_1079_1125">
<rect width="51" height="51" fill="white" transform="translate(19 24)"/>
</clipPath>
</defs>
</svg>
