<svg width="248" height="100" viewBox="0 0 248 100" fill="none" xmlns="http://www.w3.org/2000/svg">
<path d="M0 16C0 7.16345 7.16344 0 16 0H218C234.569 0 248 13.4315 248 30V70C248 86.5685 234.569 100 218 100H16C7.16344 100 0 92.8366 0 84V16Z" fill="white"/>
<path d="M0 16C0 7.16345 7.16344 0 16 0H59C75.5685 0 89 13.4315 89 30V70C89 86.5685 75.5685 100 59 100H16C7.16345 100 0 92.8366 0 84V16Z" fill="url(#paint0_linear_1079_1130)"/>
<g clip-path="url(#clip0_1079_1130)">
<path d="M22 31.9219C22 29.2036 24.2036 27 26.9219 27H62.0781C64.7964 27 67 29.2036 67 31.9219V37.5469C67 38.7118 66.0556 39.6562 64.8906 39.6562C63.7257 39.6562 62.7812 38.7118 62.7812 37.5469V31.9219C62.7812 31.5336 62.4665 31.2188 62.0781 31.2188H26.9219C26.5336 31.2188 26.2188 31.5336 26.2188 31.9219V67.0781C26.2188 67.4665 26.5336 67.7812 26.9219 67.7812H64.8906C66.0556 67.7812 67 68.7257 67 69.8906C67 71.0556 66.0556 72 64.8906 72H26.9219C24.2036 72 22 69.7964 22 67.0781V31.9219ZM35.3594 45.2812C35.3594 44.1163 36.3038 43.1719 37.4688 43.1719H48.0156C49.1806 43.1719 50.125 44.1163 50.125 45.2812C50.125 46.4462 49.1806 47.3906 48.0156 47.3906H45.2031V62.1562C45.2031 63.3212 44.2587 64.2656 43.0938 64.2656C41.9288 64.2656 40.9844 63.3212 40.9844 62.1562V47.3906H37.4688C36.3038 47.3906 35.3594 46.4462 35.3594 45.2812ZM53.7129 45.5066C54.8905 44.1046 56.7363 43.1719 59.2656 43.1719C61.6138 43.1719 63.3854 43.9753 64.5796 45.2385C65.3797 46.0851 65.342 47.4202 64.4955 48.2205C63.6489 49.0207 62.3138 48.9831 61.5137 48.1365C61.2046 47.8096 60.5886 47.3906 59.2656 47.3906C57.8574 47.3906 57.2423 47.8641 56.9433 48.22C56.5752 48.6581 56.4531 49.2075 56.4531 49.5C56.4531 49.7925 56.5752 50.3419 56.9433 50.78C57.2423 51.1359 57.8574 51.6094 59.2656 51.6094C59.4785 51.6094 59.6841 51.6409 59.8776 51.6996C61.7426 51.965 63.1522 52.7977 64.1152 53.9441C65.2236 55.2637 65.5938 56.8237 65.5938 57.9375C65.5938 59.0513 65.2236 60.6113 64.1152 61.931C62.9376 63.333 61.0918 64.2656 58.5625 64.2656C56.2143 64.2656 54.4428 63.4621 53.2486 62.199C52.4484 61.3524 52.4861 60.0173 53.3327 59.2169C54.1792 58.4167 55.5143 58.4544 56.3145 59.301C56.6236 59.6278 57.2395 60.0469 58.5625 60.0469C59.9707 60.0469 60.5858 59.5732 60.8848 59.2175C61.2529 58.7793 61.375 58.23 61.375 57.9375C61.375 57.645 61.2529 57.0957 60.8848 56.6575C60.5858 56.3018 59.9707 55.8281 58.5625 55.8281C58.3496 55.8281 58.144 55.7966 57.9505 55.7378C56.0855 55.4723 54.6759 54.6398 53.7129 53.4934C52.6045 52.1737 52.2344 50.6138 52.2344 49.5C52.2344 48.3862 52.6045 46.8263 53.7129 45.5066Z" fill="#3F3E71"/>
</g>
<path d="M115.506 40.6V42.536H110.952V56H108.928V42.536H104.396V40.6H115.506ZM123.443 45H125.489L121.001 56.682C120.531 57.9287 119.871 58.8747 119.021 59.52C118.185 60.18 117.217 60.4733 116.117 60.4V58.618C117.466 58.7207 118.456 57.9727 119.087 56.374L119.285 55.956L114.489 45H116.535L120.275 53.624L123.443 45ZM133.159 44.714C134.699 44.714 136.011 45.2787 137.097 46.408C138.182 47.5227 138.725 48.8867 138.725 50.5C138.725 52.1133 138.182 53.4847 137.097 54.614C136.011 55.7287 134.699 56.286 133.159 56.286C131.34 56.286 129.954 55.56 129.001 54.108V60.4H127.087V45H129.001V46.892C129.954 45.44 131.34 44.714 133.159 44.714ZM132.917 54.438C134.017 54.438 134.941 54.064 135.689 53.316C136.437 52.5533 136.811 51.6147 136.811 50.5C136.811 49.3853 136.437 48.454 135.689 47.706C134.941 46.9433 134.017 46.562 132.917 46.562C131.802 46.562 130.871 46.9433 130.123 47.706C129.375 48.454 129.001 49.3853 129.001 50.5C129.001 51.6147 129.375 52.5533 130.123 53.316C130.871 54.064 131.802 54.438 132.917 54.438ZM142.351 51.38C142.541 52.3627 142.989 53.1253 143.693 53.668C144.411 54.2107 145.291 54.482 146.333 54.482C147.785 54.482 148.841 53.9467 149.501 52.876L151.129 53.8C150.058 55.4573 148.445 56.286 146.289 56.286C144.543 56.286 143.121 55.7433 142.021 54.658C140.935 53.558 140.393 52.172 140.393 50.5C140.393 48.8427 140.928 47.464 141.999 46.364C143.069 45.264 144.455 44.714 146.157 44.714C147.77 44.714 149.083 45.286 150.095 46.43C151.121 47.5593 151.635 48.9233 151.635 50.522C151.635 50.8007 151.613 51.0867 151.569 51.38H142.351ZM146.157 46.518C145.13 46.518 144.279 46.8113 143.605 47.398C142.93 47.97 142.512 48.74 142.351 49.708H149.699C149.537 48.6667 149.127 47.8747 148.467 47.332C147.807 46.7893 147.037 46.518 146.157 46.518ZM158.575 56.286C157.138 56.286 155.906 55.9487 154.879 55.274C153.867 54.5993 153.156 53.6753 152.745 52.502L154.505 51.49C155.106 53.3527 156.478 54.284 158.619 54.284C159.675 54.284 160.482 54.0713 161.039 53.646C161.596 53.206 161.875 52.6267 161.875 51.908C161.875 51.1747 161.596 50.6247 161.039 50.258C160.482 49.8913 159.55 49.5027 158.245 49.092C157.6 48.8867 157.108 48.7253 156.771 48.608C156.434 48.476 156.008 48.2853 155.495 48.036C154.996 47.772 154.622 47.508 154.373 47.244C154.124 46.9653 153.896 46.606 153.691 46.166C153.5 45.726 153.405 45.2273 153.405 44.67C153.405 43.3353 153.874 42.2793 154.813 41.502C155.752 40.71 156.896 40.314 158.245 40.314C159.462 40.314 160.518 40.622 161.413 41.238C162.322 41.854 163.004 42.668 163.459 43.68L161.743 44.67C161.083 43.086 159.917 42.294 158.245 42.294C157.409 42.294 156.734 42.4993 156.221 42.91C155.708 43.3207 155.451 43.878 155.451 44.582C155.451 45.2567 155.693 45.77 156.177 46.122C156.661 46.474 157.497 46.8407 158.685 47.222C159.11 47.354 159.411 47.4493 159.587 47.508C159.763 47.5667 160.034 47.6693 160.401 47.816C160.782 47.9627 161.061 48.08 161.237 48.168C161.413 48.256 161.648 48.3807 161.941 48.542C162.249 48.7033 162.476 48.8573 162.623 49.004C162.77 49.1507 162.938 49.334 163.129 49.554C163.334 49.7593 163.481 49.972 163.569 50.192C163.657 50.412 163.73 50.6687 163.789 50.962C163.862 51.2407 163.899 51.5413 163.899 51.864C163.899 53.2133 163.408 54.2913 162.425 55.098C161.442 55.89 160.159 56.286 158.575 56.286ZM171.552 56.286C169.894 56.286 168.516 55.736 167.416 54.636C166.316 53.5213 165.766 52.1427 165.766 50.5C165.766 48.8573 166.316 47.486 167.416 46.386C168.516 45.2713 169.894 44.714 171.552 44.714C172.637 44.714 173.612 44.978 174.478 45.506C175.343 46.0193 175.988 46.716 176.414 47.596L174.808 48.52C174.529 47.9333 174.096 47.464 173.51 47.112C172.938 46.76 172.285 46.584 171.552 46.584C170.452 46.584 169.528 46.958 168.78 47.706C168.046 48.454 167.68 49.3853 167.68 50.5C167.68 51.6 168.046 52.524 168.78 53.272C169.528 54.02 170.452 54.394 171.552 54.394C172.285 54.394 172.945 54.2253 173.532 53.888C174.118 53.536 174.566 53.0667 174.874 52.48L176.502 53.426C176.032 54.2913 175.358 54.988 174.478 55.516C173.598 56.0293 172.622 56.286 171.552 56.286ZM180.327 46.848C180.958 45.484 182.102 44.802 183.759 44.802V46.804C182.82 46.76 182.014 47.0093 181.339 47.552C180.664 48.0947 180.327 48.9673 180.327 50.17V56H178.413V45H180.327V46.848ZM186.6 42.998C186.233 42.998 185.925 42.8733 185.676 42.624C185.426 42.3747 185.302 42.074 185.302 41.722C185.302 41.37 185.426 41.0693 185.676 40.82C185.925 40.556 186.233 40.424 186.6 40.424C186.952 40.424 187.252 40.556 187.502 40.82C187.751 41.0693 187.876 41.37 187.876 41.722C187.876 42.074 187.751 42.3747 187.502 42.624C187.252 42.8733 186.952 42.998 186.6 42.998ZM185.632 56V45H187.546V56H185.632ZM196.538 44.714C198.078 44.714 199.39 45.2787 200.476 46.408C201.561 47.5227 202.104 48.8867 202.104 50.5C202.104 52.1133 201.561 53.4847 200.476 54.614C199.39 55.7287 198.078 56.286 196.538 56.286C194.719 56.286 193.333 55.56 192.38 54.108V60.4H190.466V45H192.38V46.892C193.333 45.44 194.719 44.714 196.538 44.714ZM196.296 54.438C197.396 54.438 198.32 54.064 199.068 53.316C199.816 52.5533 200.19 51.6147 200.19 50.5C200.19 49.3853 199.816 48.454 199.068 47.706C198.32 46.9433 197.396 46.562 196.296 46.562C195.181 46.562 194.25 46.9433 193.502 47.706C192.754 48.454 192.38 49.3853 192.38 50.5C192.38 51.6147 192.754 52.5533 193.502 53.316C194.25 54.064 195.181 54.438 196.296 54.438ZM210.135 46.848H207.209V52.81C207.209 53.3527 207.312 53.7413 207.517 53.976C207.737 54.196 208.067 54.3133 208.507 54.328C208.947 54.328 209.49 54.3133 210.135 54.284V56C208.463 56.22 207.239 56.088 206.461 55.604C205.684 55.1053 205.295 54.174 205.295 52.81V46.848H203.117V45H205.295V42.492L207.209 41.92V45H210.135V46.848Z" fill="#1E3D59"/>
<defs>
<linearGradient id="paint0_linear_1079_1130" x1="40.5599" y1="-3.0462e-06" x2="40.5599" y2="100" gradientUnits="userSpaceOnUse">
<stop stop-color="#C5BAFF"/>
<stop offset="1" stop-color="#80DAFD"/>
</linearGradient>
<clipPath id="clip0_1079_1130">
<rect width="45" height="45" fill="white" transform="translate(22 27)"/>
</clipPath>
</defs>
</svg>
